%TF.GenerationSoftware,KiCad,Pcbnew,8.0.3*%
%TF.CreationDate,2024-11-10T00:39:19+08:00*%
%TF.ProjectId,NekoPurrTech_TiltingCtrl,4e656b6f-5075-4727-9254-6563685f5469,rev?*%
%TF.SameCoordinates,Original*%
%TF.FileFunction,Legend,Top*%
%TF.FilePolarity,Positive*%
%FSLAX46Y46*%
G04 Gerber Fmt 4.6, Leading zero omitted, Abs format (unit mm)*
G04 Created by KiCad (PCBNEW 8.0.3) date 2024-11-10 00:39:19*
%MOMM*%
%LPD*%
G01*
G04 APERTURE LIST*
%ADD10C,0.125000*%
%ADD11C,0.254000*%
%ADD12C,0.120000*%
%ADD13C,0.100000*%
%ADD14C,0.000000*%
%ADD15C,0.200000*%
G04 APERTURE END LIST*
D10*
G36*
X90498119Y-71642800D02*
G01*
X90510348Y-71653162D01*
X90525044Y-71678521D01*
X90527131Y-71720346D01*
X90516504Y-71745339D01*
X90506146Y-71757562D01*
X90481328Y-71771945D01*
X90361079Y-71774614D01*
X90359798Y-71633510D01*
X90470495Y-71631053D01*
X90498119Y-71642800D01*
G37*
G36*
X92973902Y-72244928D02*
G01*
X90176283Y-72244928D01*
X90176283Y-71572309D01*
X90238783Y-71572309D01*
X90243541Y-72096227D01*
X90277365Y-72130051D01*
X90325201Y-72130051D01*
X90359025Y-72096227D01*
X90363783Y-72072309D01*
X90362176Y-71895362D01*
X90484467Y-71892648D01*
X90496190Y-71896556D01*
X90512750Y-71892020D01*
X90515677Y-71891956D01*
X90516691Y-71890941D01*
X90519710Y-71890115D01*
X90557616Y-71868146D01*
X90563294Y-71868147D01*
X90583571Y-71854599D01*
X90586058Y-71851663D01*
X90586594Y-71851353D01*
X90586770Y-71850823D01*
X90600025Y-71835181D01*
X90604138Y-71833811D01*
X90619090Y-71814545D01*
X90620677Y-71810810D01*
X90620930Y-71810513D01*
X90620930Y-71810217D01*
X90638325Y-71769307D01*
X90644739Y-71762894D01*
X90647979Y-71746602D01*
X90649339Y-71743406D01*
X90648886Y-71742047D01*
X90649497Y-71738976D01*
X90646183Y-71672582D01*
X90649339Y-71663117D01*
X90644902Y-71646915D01*
X90644739Y-71643629D01*
X90643725Y-71642615D01*
X90642899Y-71639596D01*
X90620930Y-71601687D01*
X90620930Y-71596010D01*
X90607381Y-71575733D01*
X90604448Y-71573248D01*
X90604138Y-71572712D01*
X90603606Y-71572534D01*
X90591665Y-71562416D01*
X90691952Y-71562416D01*
X90692864Y-71586785D01*
X90812930Y-72071976D01*
X90810757Y-72080541D01*
X90818254Y-72093490D01*
X90822080Y-72108951D01*
X90830040Y-72113850D01*
X90834724Y-72121939D01*
X90849656Y-72125920D01*
X90862819Y-72134021D01*
X90871912Y-72131855D01*
X90880944Y-72134264D01*
X90894318Y-72126520D01*
X90909354Y-72122941D01*
X90914253Y-72114980D01*
X90922342Y-72110297D01*
X90933102Y-72088413D01*
X90968465Y-71949054D01*
X91003377Y-72073892D01*
X91001476Y-72082202D01*
X91009220Y-72094786D01*
X91013558Y-72110297D01*
X91021647Y-72114980D01*
X91026546Y-72122941D01*
X91041580Y-72126520D01*
X91054955Y-72134264D01*
X91063986Y-72131855D01*
X91073081Y-72134021D01*
X91086246Y-72125919D01*
X91101176Y-72121938D01*
X91105858Y-72113850D01*
X91113820Y-72108951D01*
X91123988Y-72086785D01*
X91241685Y-71572309D01*
X91310212Y-71572309D01*
X91314970Y-72096227D01*
X91348794Y-72130051D01*
X91396630Y-72130051D01*
X91430454Y-72096227D01*
X91435212Y-72072309D01*
X91433122Y-71842281D01*
X91487018Y-71954423D01*
X91493287Y-71971662D01*
X91495886Y-71972874D01*
X91497169Y-71975544D01*
X91517264Y-71982851D01*
X91536635Y-71991891D01*
X91539379Y-71990893D01*
X91542123Y-71991891D01*
X91561493Y-71982851D01*
X91581589Y-71975544D01*
X91583898Y-71972395D01*
X91585471Y-71971662D01*
X91586486Y-71968868D01*
X91596015Y-71955882D01*
X91646025Y-71845454D01*
X91648303Y-72096227D01*
X91682127Y-72130051D01*
X91729963Y-72130051D01*
X91763787Y-72096227D01*
X91763830Y-72096010D01*
X91767352Y-72096010D01*
X91767352Y-72143846D01*
X91801176Y-72177670D01*
X91825094Y-72182428D01*
X92229964Y-72177670D01*
X92263788Y-72143846D01*
X92263788Y-72096010D01*
X92229964Y-72062186D01*
X92206046Y-72057428D01*
X91801176Y-72062186D01*
X91767352Y-72096010D01*
X91763830Y-72096010D01*
X91768545Y-72072309D01*
X91764116Y-71584698D01*
X91768485Y-71575053D01*
X91767487Y-71572309D01*
X92262593Y-71572309D01*
X92267351Y-72096227D01*
X92301175Y-72130051D01*
X92349011Y-72130051D01*
X92382835Y-72096227D01*
X92387593Y-72072309D01*
X92383052Y-71572309D01*
X92500688Y-71572309D01*
X92505446Y-72096227D01*
X92539270Y-72130051D01*
X92587106Y-72130051D01*
X92620930Y-72096227D01*
X92625688Y-72072309D01*
X92623212Y-71799691D01*
X92791086Y-72088136D01*
X92791160Y-72096227D01*
X92802249Y-72107316D01*
X92810634Y-72121723D01*
X92818914Y-72123981D01*
X92824984Y-72130051D01*
X92841170Y-72130051D01*
X92856783Y-72134309D01*
X92864235Y-72130051D01*
X92872820Y-72130051D01*
X92884267Y-72118603D01*
X92898316Y-72110576D01*
X92900574Y-72102296D01*
X92906644Y-72096227D01*
X92911402Y-72072309D01*
X92906644Y-71548391D01*
X92872820Y-71514567D01*
X92824984Y-71514567D01*
X92791160Y-71548391D01*
X92786402Y-71572309D01*
X92788877Y-71844926D01*
X92621003Y-71556482D01*
X92620930Y-71548391D01*
X92609839Y-71537300D01*
X92601455Y-71522894D01*
X92593174Y-71520635D01*
X92587106Y-71514567D01*
X92570923Y-71514567D01*
X92555307Y-71510308D01*
X92547854Y-71514567D01*
X92539270Y-71514567D01*
X92527824Y-71526012D01*
X92513773Y-71534042D01*
X92511514Y-71542322D01*
X92505446Y-71548391D01*
X92500688Y-71572309D01*
X92383052Y-71572309D01*
X92382835Y-71548391D01*
X92349011Y-71514567D01*
X92301175Y-71514567D01*
X92267351Y-71548391D01*
X92262593Y-71572309D01*
X91767487Y-71572309D01*
X91763915Y-71562486D01*
X91763787Y-71548391D01*
X91755933Y-71540537D01*
X91752137Y-71530098D01*
X91739681Y-71524285D01*
X91729963Y-71514567D01*
X91718856Y-71514567D01*
X91708789Y-71509869D01*
X91695870Y-71514567D01*
X91682127Y-71514567D01*
X91674274Y-71522419D01*
X91663835Y-71526216D01*
X91649409Y-71545878D01*
X91540231Y-71786952D01*
X91430547Y-71558730D01*
X91430454Y-71548391D01*
X91421067Y-71539004D01*
X91414922Y-71526217D01*
X91404484Y-71522421D01*
X91396630Y-71514567D01*
X91382885Y-71514567D01*
X91369968Y-71509870D01*
X91359903Y-71514567D01*
X91348794Y-71514567D01*
X91339073Y-71524287D01*
X91326620Y-71530099D01*
X91322824Y-71540536D01*
X91314970Y-71548391D01*
X91310212Y-71572309D01*
X91241685Y-71572309D01*
X91243948Y-71562416D01*
X91218878Y-71521677D01*
X91172343Y-71510597D01*
X91131604Y-71535667D01*
X91121436Y-71557833D01*
X91059687Y-71827746D01*
X91028000Y-71714439D01*
X91029905Y-71706934D01*
X91022160Y-71693557D01*
X91017580Y-71677178D01*
X91010205Y-71672908D01*
X91005938Y-71665537D01*
X90990243Y-71661351D01*
X90976182Y-71653211D01*
X90967949Y-71655406D01*
X90959717Y-71653211D01*
X90945658Y-71661350D01*
X90929962Y-71665536D01*
X90925693Y-71672909D01*
X90918320Y-71677178D01*
X90907560Y-71699062D01*
X90875750Y-71824416D01*
X90804296Y-71535667D01*
X90763557Y-71510597D01*
X90717022Y-71521677D01*
X90691952Y-71562416D01*
X90591665Y-71562416D01*
X90587964Y-71559280D01*
X90586594Y-71555170D01*
X90567329Y-71540218D01*
X90563592Y-71538629D01*
X90563294Y-71538376D01*
X90562997Y-71538376D01*
X90522091Y-71520981D01*
X90515677Y-71514567D01*
X90499386Y-71511326D01*
X90496190Y-71509967D01*
X90494830Y-71510420D01*
X90491759Y-71509809D01*
X90277365Y-71514567D01*
X90243541Y-71548391D01*
X90238783Y-71572309D01*
X90176283Y-71572309D01*
X90176283Y-71447309D01*
X92973902Y-71447309D01*
X92973902Y-72244928D01*
G37*
G36*
X97169458Y-72267309D02*
G01*
X95091041Y-72267309D01*
X95091041Y-71927915D01*
X95153541Y-71927915D01*
X95153541Y-71975751D01*
X95187365Y-72009575D01*
X95211283Y-72014333D01*
X95342213Y-72012794D01*
X95344017Y-72166227D01*
X95377841Y-72200051D01*
X95425677Y-72200051D01*
X95459501Y-72166227D01*
X95464259Y-72142309D01*
X95462720Y-72011378D01*
X95616154Y-72009575D01*
X95649978Y-71975751D01*
X95649978Y-71927915D01*
X95616154Y-71894091D01*
X95592236Y-71889333D01*
X95461304Y-71890871D01*
X95460114Y-71789596D01*
X95744179Y-71789596D01*
X95765572Y-71832382D01*
X95810952Y-71847509D01*
X95834472Y-71841068D01*
X95872381Y-71819099D01*
X95878058Y-71819099D01*
X95888421Y-71812174D01*
X95890880Y-72082903D01*
X95782604Y-72084567D01*
X95748780Y-72118391D01*
X95748780Y-72166227D01*
X95782604Y-72200051D01*
X95806522Y-72204809D01*
X96116154Y-72200051D01*
X96149978Y-72166227D01*
X96149978Y-72118391D01*
X96201160Y-72118391D01*
X96201160Y-72166227D01*
X96234984Y-72200051D01*
X96258902Y-72204809D01*
X96592344Y-72200051D01*
X96626168Y-72166227D01*
X96626168Y-72118391D01*
X96592344Y-72084567D01*
X96568426Y-72079809D01*
X96405165Y-72082138D01*
X96579833Y-71903543D01*
X96591831Y-71897545D01*
X96600398Y-71882516D01*
X96602359Y-71880512D01*
X96602359Y-71879077D01*
X96603909Y-71876359D01*
X96621491Y-71813760D01*
X96626168Y-71809084D01*
X96630926Y-71785166D01*
X96630657Y-71781128D01*
X96630768Y-71780735D01*
X96630610Y-71780419D01*
X96628013Y-71741379D01*
X96630768Y-71733116D01*
X96626404Y-71717178D01*
X96626168Y-71713629D01*
X96625154Y-71712615D01*
X96624328Y-71709596D01*
X96602358Y-71671687D01*
X96602358Y-71666011D01*
X96588810Y-71645734D01*
X96585875Y-71643247D01*
X96585565Y-71642712D01*
X96585035Y-71642535D01*
X96579539Y-71637878D01*
X96648941Y-71637878D01*
X96651990Y-71662073D01*
X96816870Y-72142836D01*
X96815607Y-72146740D01*
X96823893Y-72163312D01*
X96830734Y-72183259D01*
X96834910Y-72185347D01*
X96836999Y-72189524D01*
X96855794Y-72195789D01*
X96873518Y-72204651D01*
X96877949Y-72203174D01*
X96882380Y-72204651D01*
X96900104Y-72195789D01*
X96918899Y-72189524D01*
X96920987Y-72185347D01*
X96925164Y-72183259D01*
X96937242Y-72162073D01*
X97106958Y-71637878D01*
X97085566Y-71595094D01*
X97040185Y-71579967D01*
X96997401Y-71601359D01*
X96985323Y-71622545D01*
X96878703Y-71951856D01*
X96758498Y-71601359D01*
X96715714Y-71579967D01*
X96670333Y-71595094D01*
X96648941Y-71637878D01*
X96579539Y-71637878D01*
X96569393Y-71629280D01*
X96568023Y-71625170D01*
X96548758Y-71610218D01*
X96545021Y-71608629D01*
X96544724Y-71608377D01*
X96544429Y-71608377D01*
X96503520Y-71590981D01*
X96497106Y-71584567D01*
X96480815Y-71581326D01*
X96477619Y-71579967D01*
X96476259Y-71580420D01*
X96473188Y-71579809D01*
X96360487Y-71583559D01*
X96349709Y-71579967D01*
X96333280Y-71584465D01*
X96330222Y-71584567D01*
X96329208Y-71585580D01*
X96326189Y-71586407D01*
X96288281Y-71608377D01*
X96282604Y-71608377D01*
X96262327Y-71621925D01*
X96259840Y-71624859D01*
X96259305Y-71625170D01*
X96259128Y-71625699D01*
X96224970Y-71666011D01*
X96224970Y-71713845D01*
X96258795Y-71747670D01*
X96306629Y-71747670D01*
X96326906Y-71734122D01*
X96339755Y-71718958D01*
X96364780Y-71704454D01*
X96453016Y-71701518D01*
X96479548Y-71712800D01*
X96491776Y-71723162D01*
X96506679Y-71748876D01*
X96508037Y-71769299D01*
X96494122Y-71818842D01*
X96201204Y-72118346D01*
X96201160Y-72118391D01*
X96149978Y-72118391D01*
X96116154Y-72084567D01*
X96092236Y-72079809D01*
X96011322Y-72081052D01*
X96007496Y-71659710D01*
X96010691Y-71654437D01*
X96007294Y-71637454D01*
X96007121Y-71618391D01*
X96002570Y-71613840D01*
X96001309Y-71607532D01*
X95986167Y-71597437D01*
X95973297Y-71584567D01*
X95966862Y-71584567D01*
X95961507Y-71580997D01*
X95943657Y-71584567D01*
X95925461Y-71584567D01*
X95920912Y-71589116D01*
X95914602Y-71590378D01*
X95897376Y-71607640D01*
X95861443Y-71666953D01*
X95857566Y-71669544D01*
X95824147Y-71706638D01*
X95759306Y-71744216D01*
X95744179Y-71789596D01*
X95460114Y-71789596D01*
X95459501Y-71737439D01*
X95425677Y-71703615D01*
X95377841Y-71703615D01*
X95344017Y-71737439D01*
X95339259Y-71761357D01*
X95340797Y-71892287D01*
X95187365Y-71894091D01*
X95153541Y-71927915D01*
X95091041Y-71927915D01*
X95091041Y-71517309D01*
X97169458Y-71517309D01*
X97169458Y-72267309D01*
G37*
G36*
X90221469Y-60967309D02*
G01*
X88616283Y-60967309D01*
X88616283Y-60342309D01*
X88678783Y-60342309D01*
X88683541Y-60866227D01*
X88717365Y-60900051D01*
X88765201Y-60900051D01*
X88799025Y-60866227D01*
X88803783Y-60842309D01*
X88802084Y-60655236D01*
X88806386Y-60650837D01*
X88995154Y-60896088D01*
X89042508Y-60902853D01*
X89080776Y-60874152D01*
X89087541Y-60826798D01*
X89076997Y-60804809D01*
X88891501Y-60563808D01*
X88945128Y-60508976D01*
X89178783Y-60508976D01*
X89183541Y-60866227D01*
X89217365Y-60900051D01*
X89265201Y-60900051D01*
X89299025Y-60866227D01*
X89303783Y-60842309D01*
X89300612Y-60604214D01*
X89393069Y-60604214D01*
X89396952Y-60740322D01*
X89393226Y-60751501D01*
X89397741Y-60767989D01*
X89397827Y-60770989D01*
X89398840Y-60772002D01*
X89399667Y-60775021D01*
X89421636Y-60812929D01*
X89421636Y-60818607D01*
X89435184Y-60838884D01*
X89438118Y-60841370D01*
X89438428Y-60841905D01*
X89438957Y-60842081D01*
X89454601Y-60855337D01*
X89455972Y-60859450D01*
X89475238Y-60874402D01*
X89478974Y-60875990D01*
X89479271Y-60876242D01*
X89479565Y-60876242D01*
X89520475Y-60893637D01*
X89526889Y-60900051D01*
X89543180Y-60903291D01*
X89546377Y-60904651D01*
X89547735Y-60904198D01*
X89550807Y-60904809D01*
X89640233Y-60901238D01*
X89650475Y-60904652D01*
X89666817Y-60900176D01*
X89669963Y-60900051D01*
X89670976Y-60899037D01*
X89673995Y-60898211D01*
X89740879Y-60859450D01*
X89756006Y-60814071D01*
X89734614Y-60771285D01*
X89689234Y-60756158D01*
X89665713Y-60762598D01*
X89635272Y-60780239D01*
X89570348Y-60782831D01*
X89544443Y-60771816D01*
X89532219Y-60761457D01*
X89517768Y-60736521D01*
X89514582Y-60624847D01*
X89526060Y-60597851D01*
X89536421Y-60585625D01*
X89561578Y-60571045D01*
X89626503Y-60568453D01*
X89689234Y-60595127D01*
X89734614Y-60580000D01*
X89756006Y-60537214D01*
X89740879Y-60491835D01*
X89721614Y-60476883D01*
X89676375Y-60457646D01*
X89669963Y-60451234D01*
X89653675Y-60447993D01*
X89650475Y-60446633D01*
X89649114Y-60447086D01*
X89646045Y-60446476D01*
X89556615Y-60450046D01*
X89546377Y-60446634D01*
X89530035Y-60451108D01*
X89526889Y-60451234D01*
X89525875Y-60452247D01*
X89522856Y-60453074D01*
X89484947Y-60475043D01*
X89479271Y-60475043D01*
X89458994Y-60488591D01*
X89456508Y-60491523D01*
X89455972Y-60491835D01*
X89455794Y-60492366D01*
X89442539Y-60508009D01*
X89438428Y-60509380D01*
X89423476Y-60528645D01*
X89421887Y-60532381D01*
X89421636Y-60532678D01*
X89421636Y-60532972D01*
X89404239Y-60573883D01*
X89397827Y-60580296D01*
X89394586Y-60596583D01*
X89393226Y-60599784D01*
X89393679Y-60601144D01*
X89393069Y-60604214D01*
X89300612Y-60604214D01*
X89299025Y-60485058D01*
X89265201Y-60451234D01*
X89217365Y-60451234D01*
X89183541Y-60485058D01*
X89178783Y-60508976D01*
X88945128Y-60508976D01*
X89084740Y-60366226D01*
X89084740Y-60342203D01*
X89159731Y-60342203D01*
X89159732Y-60390037D01*
X89159734Y-60390039D01*
X89173280Y-60410313D01*
X89217359Y-60447664D01*
X89217365Y-60447670D01*
X89265199Y-60447671D01*
X89265200Y-60447670D01*
X89265201Y-60447670D01*
X89265202Y-60447668D01*
X89285476Y-60434123D01*
X89322835Y-60390037D01*
X89322836Y-60342309D01*
X89845449Y-60342309D01*
X89850207Y-60866227D01*
X89884031Y-60900051D01*
X89931867Y-60900051D01*
X89965691Y-60866227D01*
X89970449Y-60842309D01*
X89969808Y-60771823D01*
X90066582Y-60896089D01*
X90113936Y-60902853D01*
X90152205Y-60874152D01*
X90158969Y-60826798D01*
X90148425Y-60804809D01*
X90034523Y-60658549D01*
X90156168Y-60532893D01*
X90156168Y-60485059D01*
X90122342Y-60451233D01*
X90074508Y-60451233D01*
X90054231Y-60464782D01*
X89967830Y-60554031D01*
X89965691Y-60318391D01*
X89931867Y-60284567D01*
X89884031Y-60284567D01*
X89850207Y-60318391D01*
X89845449Y-60342309D01*
X89322836Y-60342309D01*
X89322836Y-60342203D01*
X89322834Y-60342201D01*
X89309287Y-60321925D01*
X89265206Y-60284572D01*
X89265201Y-60284567D01*
X89265200Y-60284567D01*
X89265199Y-60284566D01*
X89217365Y-60284567D01*
X89197088Y-60298116D01*
X89159731Y-60342203D01*
X89084740Y-60342203D01*
X89084740Y-60318392D01*
X89050914Y-60284566D01*
X89003080Y-60284566D01*
X88982803Y-60298115D01*
X88800533Y-60484483D01*
X88799025Y-60318391D01*
X88765201Y-60284567D01*
X88717365Y-60284567D01*
X88683541Y-60318391D01*
X88678783Y-60342309D01*
X88616283Y-60342309D01*
X88616283Y-60222066D01*
X90221469Y-60222066D01*
X90221469Y-60967309D01*
G37*
G36*
X97641931Y-58049467D02*
G01*
X97654157Y-58059828D01*
X97668607Y-58084762D01*
X97671793Y-58196437D01*
X97660314Y-58223434D01*
X97649955Y-58235658D01*
X97624593Y-58250356D01*
X97582770Y-58252443D01*
X97557777Y-58241816D01*
X97545553Y-58231457D01*
X97531102Y-58206521D01*
X97527916Y-58094847D01*
X97539394Y-58067851D01*
X97549755Y-58055625D01*
X97575115Y-58040928D01*
X97616939Y-58038841D01*
X97641931Y-58049467D01*
G37*
G36*
X98380026Y-58049467D02*
G01*
X98392252Y-58059828D01*
X98406702Y-58084762D01*
X98409888Y-58196437D01*
X98398409Y-58223434D01*
X98388050Y-58235658D01*
X98362688Y-58250356D01*
X98320865Y-58252443D01*
X98295872Y-58241816D01*
X98283648Y-58231457D01*
X98269197Y-58206521D01*
X98266011Y-58094847D01*
X98277489Y-58067851D01*
X98287850Y-58055625D01*
X98313210Y-58040928D01*
X98355034Y-58038841D01*
X98380026Y-58049467D01*
G37*
G36*
X98946287Y-58437309D02*
G01*
X96796283Y-58437309D01*
X96796283Y-57812309D01*
X96858783Y-57812309D01*
X96863541Y-58336227D01*
X96897365Y-58370051D01*
X96945201Y-58370051D01*
X96979025Y-58336227D01*
X96983783Y-58312309D01*
X96981693Y-58082281D01*
X97035589Y-58194423D01*
X97041858Y-58211662D01*
X97044457Y-58212874D01*
X97045740Y-58215544D01*
X97065835Y-58222851D01*
X97085206Y-58231891D01*
X97087950Y-58230893D01*
X97090694Y-58231891D01*
X97110064Y-58222851D01*
X97130160Y-58215544D01*
X97132469Y-58212395D01*
X97134042Y-58211662D01*
X97135057Y-58208868D01*
X97144586Y-58195882D01*
X97194596Y-58085454D01*
X97196874Y-58336227D01*
X97230698Y-58370051D01*
X97278534Y-58370051D01*
X97312358Y-58336227D01*
X97317116Y-58312309D01*
X97314953Y-58074214D01*
X97406403Y-58074214D01*
X97410286Y-58210322D01*
X97406560Y-58221501D01*
X97411075Y-58237989D01*
X97411161Y-58240989D01*
X97412174Y-58242002D01*
X97413001Y-58245021D01*
X97434970Y-58282929D01*
X97434970Y-58288607D01*
X97448518Y-58308884D01*
X97451452Y-58311370D01*
X97451762Y-58311905D01*
X97452291Y-58312081D01*
X97467935Y-58325337D01*
X97469306Y-58329450D01*
X97488572Y-58344402D01*
X97492308Y-58345990D01*
X97492605Y-58346242D01*
X97492899Y-58346242D01*
X97533809Y-58363637D01*
X97540223Y-58370051D01*
X97556514Y-58373291D01*
X97559711Y-58374651D01*
X97561069Y-58374198D01*
X97564141Y-58374809D01*
X97630531Y-58371495D01*
X97639999Y-58374652D01*
X97656201Y-58370214D01*
X97659487Y-58370051D01*
X97660500Y-58369037D01*
X97663519Y-58368211D01*
X97701428Y-58346242D01*
X97707105Y-58346242D01*
X97727382Y-58332694D01*
X97729868Y-58329759D01*
X97730403Y-58329450D01*
X97730579Y-58328920D01*
X97743835Y-58313276D01*
X97747948Y-58311906D01*
X97762900Y-58292640D01*
X97764488Y-58288903D01*
X97764740Y-58288607D01*
X97764740Y-58288312D01*
X97782135Y-58247402D01*
X97788549Y-58240989D01*
X97791789Y-58224697D01*
X97793149Y-58221501D01*
X97792696Y-58220142D01*
X97793307Y-58217071D01*
X97789423Y-58080959D01*
X97793149Y-58069784D01*
X97788634Y-58053295D01*
X97788549Y-58050296D01*
X97787535Y-58049282D01*
X97786709Y-58046263D01*
X97764740Y-58008354D01*
X97764740Y-58002678D01*
X97751192Y-57982401D01*
X97748259Y-57979915D01*
X97747948Y-57979379D01*
X97747416Y-57979201D01*
X97731773Y-57965946D01*
X97730403Y-57961835D01*
X97721671Y-57955058D01*
X97815923Y-57955058D01*
X97815923Y-58002894D01*
X97849747Y-58036718D01*
X97873665Y-58041476D01*
X97885000Y-58041224D01*
X97887011Y-58232527D01*
X97882751Y-58245310D01*
X97887321Y-58262003D01*
X97887351Y-58264798D01*
X97888364Y-58265811D01*
X97889191Y-58268831D01*
X97918118Y-58318745D01*
X97921687Y-58329450D01*
X97926476Y-58333167D01*
X97927954Y-58335716D01*
X97931121Y-58336771D01*
X97940953Y-58344402D01*
X97986190Y-58363637D01*
X97992604Y-58370051D01*
X98008895Y-58373291D01*
X98012092Y-58374651D01*
X98013450Y-58374198D01*
X98016522Y-58374809D01*
X98088059Y-58370051D01*
X98121883Y-58336227D01*
X98121883Y-58288391D01*
X98088059Y-58254567D01*
X98064141Y-58249809D01*
X98033714Y-58251832D01*
X98015188Y-58243954D01*
X98007485Y-58230663D01*
X98005840Y-58074214D01*
X98144498Y-58074214D01*
X98148381Y-58210322D01*
X98144655Y-58221501D01*
X98149170Y-58237989D01*
X98149256Y-58240989D01*
X98150269Y-58242002D01*
X98151096Y-58245021D01*
X98173065Y-58282929D01*
X98173065Y-58288607D01*
X98186613Y-58308884D01*
X98189547Y-58311370D01*
X98189857Y-58311905D01*
X98190386Y-58312081D01*
X98206030Y-58325337D01*
X98207401Y-58329450D01*
X98226667Y-58344402D01*
X98230403Y-58345990D01*
X98230700Y-58346242D01*
X98230994Y-58346242D01*
X98271904Y-58363637D01*
X98278318Y-58370051D01*
X98294609Y-58373291D01*
X98297806Y-58374651D01*
X98299164Y-58374198D01*
X98302236Y-58374809D01*
X98368626Y-58371495D01*
X98378094Y-58374652D01*
X98394296Y-58370214D01*
X98397582Y-58370051D01*
X98398595Y-58369037D01*
X98401614Y-58368211D01*
X98439523Y-58346242D01*
X98445200Y-58346242D01*
X98465477Y-58332694D01*
X98467963Y-58329759D01*
X98468498Y-58329450D01*
X98468674Y-58328920D01*
X98481930Y-58313276D01*
X98486043Y-58311906D01*
X98500995Y-58292640D01*
X98502583Y-58288903D01*
X98502835Y-58288607D01*
X98502835Y-58288312D01*
X98520230Y-58247402D01*
X98526644Y-58240989D01*
X98529884Y-58224697D01*
X98531244Y-58221501D01*
X98530791Y-58220142D01*
X98531402Y-58217071D01*
X98527518Y-58080959D01*
X98531244Y-58069784D01*
X98526729Y-58053295D01*
X98526644Y-58050296D01*
X98525630Y-58049282D01*
X98524804Y-58046263D01*
X98502835Y-58008354D01*
X98502835Y-58002678D01*
X98489287Y-57982401D01*
X98486354Y-57979915D01*
X98486043Y-57979379D01*
X98485511Y-57979201D01*
X98485245Y-57978976D01*
X98620688Y-57978976D01*
X98621865Y-58067385D01*
X98620846Y-58069783D01*
X98621941Y-58073068D01*
X98625446Y-58336227D01*
X98659270Y-58370051D01*
X98707106Y-58370051D01*
X98740930Y-58336227D01*
X98745688Y-58312309D01*
X98742773Y-58093499D01*
X98753679Y-58067853D01*
X98764041Y-58055624D01*
X98789755Y-58040722D01*
X98849963Y-58036718D01*
X98883787Y-58002894D01*
X98883787Y-57955058D01*
X98849963Y-57921234D01*
X98826045Y-57916476D01*
X98782258Y-57919388D01*
X98773996Y-57916634D01*
X98758057Y-57920997D01*
X98754508Y-57921234D01*
X98753494Y-57922247D01*
X98750475Y-57923074D01*
X98724182Y-57938310D01*
X98707106Y-57921234D01*
X98659270Y-57921234D01*
X98625446Y-57955058D01*
X98620688Y-57978976D01*
X98485245Y-57978976D01*
X98469868Y-57965946D01*
X98468498Y-57961835D01*
X98449233Y-57946883D01*
X98445496Y-57945294D01*
X98445200Y-57945043D01*
X98444906Y-57945043D01*
X98403994Y-57927646D01*
X98397582Y-57921234D01*
X98381294Y-57917993D01*
X98378094Y-57916633D01*
X98376733Y-57917086D01*
X98373664Y-57916476D01*
X98307271Y-57919789D01*
X98297806Y-57916634D01*
X98281604Y-57921070D01*
X98278318Y-57921234D01*
X98277304Y-57922247D01*
X98274285Y-57923074D01*
X98236376Y-57945043D01*
X98230700Y-57945043D01*
X98210423Y-57958591D01*
X98207937Y-57961523D01*
X98207401Y-57961835D01*
X98207223Y-57962366D01*
X98193968Y-57978009D01*
X98189857Y-57979380D01*
X98174905Y-57998645D01*
X98173316Y-58002381D01*
X98173065Y-58002678D01*
X98173065Y-58002972D01*
X98155668Y-58043883D01*
X98149256Y-58050296D01*
X98146015Y-58066583D01*
X98144655Y-58069784D01*
X98145108Y-58071144D01*
X98144498Y-58074214D01*
X98005840Y-58074214D01*
X98005465Y-58038550D01*
X98088059Y-58036718D01*
X98121883Y-58002894D01*
X98121883Y-57955058D01*
X98088059Y-57921234D01*
X98064141Y-57916476D01*
X98004195Y-57917806D01*
X98002835Y-57788391D01*
X97969011Y-57754567D01*
X97921175Y-57754567D01*
X97887351Y-57788391D01*
X97882593Y-57812309D01*
X97883730Y-57920479D01*
X97849747Y-57921234D01*
X97815923Y-57955058D01*
X97721671Y-57955058D01*
X97711138Y-57946883D01*
X97707401Y-57945294D01*
X97707105Y-57945043D01*
X97706811Y-57945043D01*
X97665899Y-57927646D01*
X97659487Y-57921234D01*
X97643199Y-57917993D01*
X97639999Y-57916633D01*
X97638638Y-57917086D01*
X97635569Y-57916476D01*
X97569176Y-57919789D01*
X97559711Y-57916634D01*
X97543509Y-57921070D01*
X97540223Y-57921234D01*
X97539209Y-57922247D01*
X97536190Y-57923074D01*
X97498281Y-57945043D01*
X97492605Y-57945043D01*
X97472328Y-57958591D01*
X97469842Y-57961523D01*
X97469306Y-57961835D01*
X97469128Y-57962366D01*
X97455873Y-57978009D01*
X97451762Y-57979380D01*
X97436810Y-57998645D01*
X97435221Y-58002381D01*
X97434970Y-58002678D01*
X97434970Y-58002972D01*
X97417573Y-58043883D01*
X97411161Y-58050296D01*
X97407920Y-58066583D01*
X97406560Y-58069784D01*
X97407013Y-58071144D01*
X97406403Y-58074214D01*
X97314953Y-58074214D01*
X97312687Y-57824698D01*
X97317056Y-57815053D01*
X97312486Y-57802486D01*
X97312358Y-57788391D01*
X97304504Y-57780537D01*
X97300708Y-57770098D01*
X97288252Y-57764285D01*
X97278534Y-57754567D01*
X97267427Y-57754567D01*
X97257360Y-57749869D01*
X97244441Y-57754567D01*
X97230698Y-57754567D01*
X97222845Y-57762419D01*
X97212406Y-57766216D01*
X97197980Y-57785878D01*
X97088802Y-58026952D01*
X96979118Y-57798730D01*
X96979025Y-57788391D01*
X96969638Y-57779004D01*
X96963493Y-57766217D01*
X96953055Y-57762421D01*
X96945201Y-57754567D01*
X96931456Y-57754567D01*
X96918539Y-57749870D01*
X96908474Y-57754567D01*
X96897365Y-57754567D01*
X96887644Y-57764287D01*
X96875191Y-57770099D01*
X96871395Y-57780536D01*
X96863541Y-57788391D01*
X96858783Y-57812309D01*
X96796283Y-57812309D01*
X96796283Y-57687369D01*
X98946287Y-57687369D01*
X98946287Y-58437309D01*
G37*
G36*
X98422865Y-59493636D02*
G01*
X98502054Y-59510185D01*
X98505310Y-59512712D01*
X98539289Y-59527161D01*
X98572843Y-59557389D01*
X98589863Y-59601313D01*
X98591709Y-59656766D01*
X98212861Y-59660206D01*
X98211510Y-59619594D01*
X98211602Y-59619433D01*
X98226837Y-59565191D01*
X98253733Y-59535337D01*
X98284431Y-59517546D01*
X98286515Y-59517445D01*
X98363690Y-59494924D01*
X98366595Y-59495502D01*
X98421061Y-59492783D01*
X98422865Y-59493636D01*
G37*
G36*
X98563433Y-59051112D02*
G01*
X98575659Y-59061473D01*
X98590239Y-59086630D01*
X98592831Y-59151555D01*
X98590611Y-59156776D01*
X98380980Y-59158680D01*
X98378453Y-59095400D01*
X98389467Y-59069496D01*
X98399828Y-59057270D01*
X98424762Y-59042820D01*
X98536437Y-59039634D01*
X98563433Y-59051112D01*
G37*
G36*
X98592831Y-58675364D02*
G01*
X98581816Y-58701269D01*
X98571457Y-58713493D01*
X98546521Y-58727944D01*
X98434847Y-58731130D01*
X98407850Y-58719651D01*
X98395626Y-58709292D01*
X98381045Y-58684133D01*
X98378453Y-58619209D01*
X98380726Y-58613863D01*
X98590282Y-58611537D01*
X98592831Y-58675364D01*
G37*
G36*
X98943976Y-59843716D02*
G01*
X98027309Y-59843716D01*
X98027309Y-59599668D01*
X98089809Y-59599668D01*
X98094567Y-59742634D01*
X98128391Y-59776458D01*
X98152309Y-59781216D01*
X98676227Y-59776458D01*
X98710051Y-59742634D01*
X98714809Y-59718716D01*
X98711222Y-59610958D01*
X98714652Y-59604100D01*
X98711602Y-59579904D01*
X98710056Y-59575915D01*
X98710051Y-59575750D01*
X98709955Y-59575654D01*
X98686242Y-59514455D01*
X98686242Y-59504322D01*
X98676894Y-59490332D01*
X98675716Y-59487290D01*
X98674433Y-59486648D01*
X98672694Y-59484045D01*
X98630094Y-59445668D01*
X98628096Y-59439672D01*
X98608831Y-59424720D01*
X98605063Y-59423117D01*
X98604797Y-59422878D01*
X98604499Y-59422878D01*
X98571929Y-59409028D01*
X98570469Y-59406594D01*
X98548419Y-59396177D01*
X98465536Y-59378855D01*
X98461941Y-59375260D01*
X98438023Y-59370502D01*
X98379525Y-59373421D01*
X98375795Y-59371183D01*
X98351437Y-59372368D01*
X98271021Y-59395834D01*
X98266926Y-59394469D01*
X98243406Y-59400909D01*
X98205498Y-59422879D01*
X98199821Y-59422879D01*
X98179544Y-59436427D01*
X98176728Y-59439552D01*
X98176522Y-59439672D01*
X98176464Y-59439845D01*
X98137672Y-59482904D01*
X98128904Y-59487289D01*
X98120599Y-59501856D01*
X98118377Y-59504323D01*
X98118377Y-59505754D01*
X98116826Y-59508475D01*
X98099242Y-59571074D01*
X98094567Y-59575750D01*
X98089809Y-59599668D01*
X98027309Y-59599668D01*
X98027309Y-59194798D01*
X98094567Y-59194798D01*
X98094567Y-59242634D01*
X98128391Y-59276458D01*
X98152309Y-59281216D01*
X98342506Y-59279488D01*
X98347214Y-59281058D01*
X98350497Y-59279416D01*
X98615962Y-59277005D01*
X98624070Y-59281059D01*
X98636798Y-59276816D01*
X98676227Y-59276458D01*
X98710051Y-59242634D01*
X98710051Y-59195015D01*
X98713291Y-59178723D01*
X98714651Y-59175527D01*
X98714198Y-59174168D01*
X98714809Y-59171097D01*
X98711238Y-59081667D01*
X98714651Y-59071429D01*
X98710176Y-59055087D01*
X98710051Y-59051941D01*
X98709037Y-59050927D01*
X98708211Y-59047908D01*
X98686242Y-59009999D01*
X98686242Y-59004323D01*
X98672694Y-58984046D01*
X98669761Y-58981560D01*
X98669450Y-58981024D01*
X98668918Y-58980846D01*
X98653275Y-58967591D01*
X98651905Y-58963480D01*
X98632640Y-58948528D01*
X98628903Y-58946939D01*
X98628607Y-58946688D01*
X98628313Y-58946688D01*
X98587401Y-58929291D01*
X98580989Y-58922879D01*
X98564701Y-58919638D01*
X98561501Y-58918278D01*
X98560140Y-58918731D01*
X98557071Y-58918121D01*
X98420959Y-58922004D01*
X98409784Y-58918279D01*
X98393295Y-58922793D01*
X98390296Y-58922879D01*
X98389282Y-58923892D01*
X98386263Y-58924719D01*
X98348354Y-58946688D01*
X98342678Y-58946688D01*
X98322401Y-58960236D01*
X98319915Y-58963168D01*
X98319379Y-58963480D01*
X98319201Y-58964011D01*
X98305946Y-58979654D01*
X98301835Y-58981025D01*
X98286883Y-59000290D01*
X98285294Y-59004026D01*
X98285043Y-59004323D01*
X98285043Y-59004617D01*
X98267646Y-59045528D01*
X98261234Y-59051941D01*
X98257993Y-59068228D01*
X98256633Y-59071429D01*
X98257086Y-59072789D01*
X98256476Y-59075859D01*
X98259827Y-59159780D01*
X98128391Y-59160974D01*
X98094567Y-59194798D01*
X98027309Y-59194798D01*
X98027309Y-58599668D01*
X98256476Y-58599668D01*
X98260046Y-58689094D01*
X98256633Y-58699336D01*
X98261108Y-58715678D01*
X98261234Y-58718824D01*
X98262247Y-58719837D01*
X98263074Y-58722856D01*
X98285043Y-58760764D01*
X98285043Y-58766442D01*
X98298591Y-58786719D01*
X98301525Y-58789205D01*
X98301835Y-58789740D01*
X98302364Y-58789916D01*
X98318008Y-58803172D01*
X98319379Y-58807285D01*
X98338645Y-58822237D01*
X98342381Y-58823825D01*
X98342678Y-58824077D01*
X98342972Y-58824077D01*
X98383882Y-58841472D01*
X98390296Y-58847886D01*
X98406587Y-58851126D01*
X98409784Y-58852486D01*
X98411142Y-58852033D01*
X98414214Y-58852644D01*
X98550322Y-58848760D01*
X98561501Y-58852487D01*
X98577989Y-58847971D01*
X98580989Y-58847886D01*
X98582002Y-58846872D01*
X98585021Y-58846046D01*
X98622930Y-58824077D01*
X98628607Y-58824077D01*
X98648884Y-58810529D01*
X98651370Y-58807594D01*
X98651905Y-58807285D01*
X98652081Y-58806755D01*
X98665337Y-58791111D01*
X98669450Y-58789741D01*
X98684402Y-58770475D01*
X98685990Y-58766738D01*
X98686242Y-58766442D01*
X98686242Y-58766147D01*
X98703637Y-58725237D01*
X98710051Y-58718824D01*
X98713291Y-58702532D01*
X98714651Y-58699336D01*
X98714198Y-58697977D01*
X98714809Y-58694906D01*
X98711605Y-58614676D01*
X98730098Y-58622540D01*
X98742326Y-58632902D01*
X98757023Y-58658261D01*
X98759110Y-58700087D01*
X98732824Y-58761904D01*
X98747950Y-58807284D01*
X98790735Y-58828677D01*
X98836115Y-58813551D01*
X98851067Y-58794286D01*
X98870303Y-58749048D01*
X98876718Y-58742634D01*
X98879958Y-58726343D01*
X98881318Y-58723147D01*
X98880864Y-58721787D01*
X98881476Y-58718716D01*
X98878162Y-58652321D01*
X98881318Y-58642856D01*
X98876881Y-58626654D01*
X98876718Y-58623369D01*
X98875704Y-58622355D01*
X98874878Y-58619336D01*
X98852908Y-58581427D01*
X98852908Y-58575751D01*
X98839360Y-58555474D01*
X98836425Y-58552987D01*
X98836115Y-58552452D01*
X98835585Y-58552275D01*
X98819943Y-58539020D01*
X98818573Y-58534910D01*
X98799308Y-58519958D01*
X98795571Y-58518369D01*
X98795274Y-58518117D01*
X98794979Y-58518117D01*
X98754070Y-58500721D01*
X98747656Y-58494307D01*
X98731365Y-58491066D01*
X98728169Y-58489707D01*
X98726809Y-58490160D01*
X98723738Y-58489549D01*
X98626825Y-58490624D01*
X98624070Y-58489706D01*
X98622128Y-58490676D01*
X98355081Y-58493640D01*
X98347214Y-58489707D01*
X98334735Y-58493866D01*
X98295058Y-58494307D01*
X98261234Y-58528131D01*
X98261234Y-58575750D01*
X98257993Y-58592037D01*
X98256633Y-58595238D01*
X98257086Y-58596598D01*
X98256476Y-58599668D01*
X98027309Y-58599668D01*
X98027309Y-58427049D01*
X98943976Y-58427049D01*
X98943976Y-59843716D01*
G37*
D11*
%TO.C,R6*%
X87260000Y-66670000D02*
X85960000Y-66670000D01*
X85960000Y-63470000D02*
X87260000Y-63470000D01*
X85960000Y-65877000D02*
X85960000Y-65498000D01*
X85960000Y-64653000D02*
X85960000Y-64274000D01*
X87260000Y-65853000D02*
X87260000Y-65474000D01*
X87260000Y-64653000D02*
X87260000Y-64274000D01*
X85428140Y-66629000D02*
G75*
G02*
X85335860Y-66629000I-46140J0D01*
G01*
X85335860Y-66629000D02*
G75*
G02*
X85428140Y-66629000I46140J0D01*
G01*
D12*
%TO.C,R12*%
X87227258Y-62017500D02*
X86752742Y-62017500D01*
X87227258Y-63062500D02*
X86752742Y-63062500D01*
%TO.C,C8*%
X89540000Y-69434420D02*
X89540000Y-69715580D01*
X90560000Y-69434420D02*
X90560000Y-69715580D01*
%TO.C,J4*%
D13*
X98990000Y-65140000D02*
X100390000Y-65140000D01*
X100390000Y-57740000D01*
X98990000Y-57740000D01*
X98990000Y-65140000D01*
D14*
%TO.C,*%
G36*
X91190420Y-64505125D02*
G01*
X91184559Y-64510985D01*
X91178698Y-64505125D01*
X91184559Y-64499264D01*
X91190420Y-64505125D01*
G37*
G36*
X91987466Y-64927091D02*
G01*
X91981606Y-64932951D01*
X91975745Y-64927091D01*
X91981606Y-64921230D01*
X91987466Y-64927091D01*
G37*
G36*
X92010909Y-63379882D02*
G01*
X92005048Y-63385743D01*
X91999188Y-63379882D01*
X92005048Y-63374022D01*
X92010909Y-63379882D01*
G37*
G36*
X92022630Y-64938812D02*
G01*
X92016770Y-64944672D01*
X92010909Y-64938812D01*
X92016770Y-64932951D01*
X92022630Y-64938812D01*
G37*
G36*
X92057794Y-63368161D02*
G01*
X92051933Y-63374022D01*
X92046073Y-63368161D01*
X92051933Y-63362301D01*
X92057794Y-63368161D01*
G37*
G36*
X93136151Y-65489712D02*
G01*
X93130291Y-65495572D01*
X93124430Y-65489712D01*
X93130291Y-65483851D01*
X93136151Y-65489712D01*
G37*
G36*
X93323692Y-65982005D02*
G01*
X93317831Y-65987866D01*
X93311970Y-65982005D01*
X93317831Y-65976145D01*
X93323692Y-65982005D01*
G37*
G36*
X93382298Y-65384220D02*
G01*
X93376437Y-65390081D01*
X93370577Y-65384220D01*
X93376437Y-65378360D01*
X93382298Y-65384220D01*
G37*
G36*
X93792542Y-65724137D02*
G01*
X93786682Y-65729998D01*
X93780821Y-65724137D01*
X93786682Y-65718277D01*
X93792542Y-65724137D01*
G37*
G36*
X93827706Y-66122660D02*
G01*
X93821846Y-66128521D01*
X93815985Y-66122660D01*
X93821846Y-66116800D01*
X93827706Y-66122660D01*
G37*
G36*
X93956640Y-62946195D02*
G01*
X93950780Y-62952056D01*
X93944919Y-62946195D01*
X93950780Y-62940335D01*
X93956640Y-62946195D01*
G37*
G36*
X93980083Y-62957917D02*
G01*
X93974222Y-62963777D01*
X93968362Y-62957917D01*
X93974222Y-62952056D01*
X93980083Y-62957917D01*
G37*
G36*
X93980083Y-63368161D02*
G01*
X93974222Y-63374022D01*
X93968362Y-63368161D01*
X93974222Y-63362301D01*
X93980083Y-63368161D01*
G37*
G36*
X94015247Y-62969638D02*
G01*
X94009386Y-62975499D01*
X94003525Y-62969638D01*
X94009386Y-62963777D01*
X94015247Y-62969638D01*
G37*
G36*
X94132459Y-64071438D02*
G01*
X94126599Y-64077298D01*
X94120738Y-64071438D01*
X94126599Y-64065577D01*
X94132459Y-64071438D01*
G37*
G36*
X94191066Y-63403325D02*
G01*
X94185205Y-63409186D01*
X94179345Y-63403325D01*
X94185205Y-63397464D01*
X94191066Y-63403325D01*
G37*
G36*
X94320000Y-64118323D02*
G01*
X94314139Y-64124183D01*
X94308279Y-64118323D01*
X94314139Y-64112462D01*
X94320000Y-64118323D01*
G37*
G36*
X94484098Y-63649472D02*
G01*
X94478237Y-63655332D01*
X94472376Y-63649472D01*
X94478237Y-63643611D01*
X94484098Y-63649472D01*
G37*
G36*
X91720807Y-64737648D02*
G01*
X91722280Y-64741926D01*
X91706156Y-64743560D01*
X91689516Y-64741718D01*
X91691504Y-64737648D01*
X91715502Y-64736100D01*
X91720807Y-64737648D01*
G37*
G36*
X91796019Y-63448257D02*
G01*
X91794410Y-63455225D01*
X91788205Y-63456071D01*
X91778557Y-63451782D01*
X91780391Y-63448257D01*
X91794301Y-63446854D01*
X91796019Y-63448257D01*
G37*
G36*
X92182821Y-64901694D02*
G01*
X92181212Y-64908663D01*
X92175007Y-64909509D01*
X92165359Y-64905220D01*
X92167193Y-64901694D01*
X92181103Y-64900292D01*
X92182821Y-64901694D01*
G37*
G36*
X92229706Y-64913416D02*
G01*
X92228097Y-64920384D01*
X92221892Y-64921230D01*
X92212244Y-64916941D01*
X92214078Y-64913416D01*
X92227988Y-64912013D01*
X92229706Y-64913416D01*
G37*
G36*
X92265602Y-65289229D02*
G01*
X92262107Y-65294557D01*
X92250218Y-65295385D01*
X92237711Y-65292523D01*
X92243137Y-65288304D01*
X92261456Y-65286906D01*
X92265602Y-65289229D01*
G37*
G36*
X92945436Y-64468740D02*
G01*
X92941941Y-64474067D01*
X92930052Y-64474896D01*
X92917545Y-64472034D01*
X92922970Y-64467815D01*
X92941289Y-64466417D01*
X92945436Y-64468740D01*
G37*
G36*
X92968146Y-64432844D02*
G01*
X92966537Y-64439812D01*
X92960332Y-64440658D01*
X92950684Y-64436369D01*
X92952518Y-64432844D01*
X92966428Y-64431441D01*
X92968146Y-64432844D01*
G37*
G36*
X92991589Y-64479729D02*
G01*
X92989980Y-64486697D01*
X92983775Y-64487543D01*
X92974127Y-64483254D01*
X92975960Y-64479729D01*
X92989871Y-64478326D01*
X92991589Y-64479729D01*
G37*
G36*
X93408671Y-62498885D02*
G01*
X93410143Y-62503163D01*
X93394019Y-62504797D01*
X93377379Y-62502955D01*
X93379368Y-62498885D01*
X93403365Y-62497337D01*
X93408671Y-62498885D01*
G37*
G36*
X93788635Y-62416784D02*
G01*
X93787026Y-62423753D01*
X93780821Y-62424599D01*
X93771173Y-62420310D01*
X93773007Y-62416784D01*
X93786917Y-62415382D01*
X93788635Y-62416784D01*
G37*
G36*
X93326783Y-62510118D02*
G01*
X93331500Y-62512863D01*
X93316142Y-62514633D01*
X93294388Y-62515016D01*
X93267794Y-62514139D01*
X93260015Y-62512039D01*
X93268177Y-62509958D01*
X93302841Y-62508030D01*
X93326783Y-62510118D01*
G37*
G36*
X93580643Y-65196521D02*
G01*
X93565585Y-65212103D01*
X93561047Y-65215757D01*
X93547164Y-65225894D01*
X93550074Y-65219824D01*
X93556622Y-65211331D01*
X93571081Y-65195098D01*
X93577134Y-65190819D01*
X93580643Y-65196521D01*
G37*
G36*
X93877745Y-65933292D02*
G01*
X93878134Y-65937140D01*
X93859785Y-65938712D01*
X93857009Y-65938696D01*
X93838830Y-65937006D01*
X93840566Y-65933438D01*
X93842581Y-65932858D01*
X93868114Y-65931142D01*
X93877745Y-65933292D01*
G37*
G36*
X94416700Y-64115911D02*
G01*
X94422255Y-64118810D01*
X94407528Y-64120649D01*
X94390327Y-64120991D01*
X94364976Y-64120076D01*
X94358017Y-64117739D01*
X94363955Y-64115911D01*
X94398110Y-64113972D01*
X94416700Y-64115911D01*
G37*
G36*
X92889557Y-64443867D02*
G01*
X92901616Y-64451489D01*
X92901726Y-64452379D01*
X92892061Y-64462231D01*
X92881213Y-64463921D01*
X92853119Y-64457462D01*
X92843119Y-64452379D01*
X92836268Y-64444596D01*
X92849423Y-64441242D01*
X92863632Y-64440837D01*
X92889557Y-64443867D01*
G37*
G36*
X94552669Y-63884194D02*
G01*
X94552869Y-63907340D01*
X94552142Y-63940728D01*
X94550564Y-63952437D01*
X94547101Y-63944228D01*
X94542432Y-63925153D01*
X94538676Y-63892472D01*
X94542545Y-63867939D01*
X94543276Y-63866546D01*
X94549668Y-63863990D01*
X94552669Y-63884194D01*
G37*
G36*
X92159360Y-66865991D02*
G01*
X92175750Y-66873206D01*
X92207723Y-66893670D01*
X92217457Y-66910271D01*
X92210386Y-66919574D01*
X92194395Y-66918667D01*
X92169274Y-66908877D01*
X92144454Y-66894956D01*
X92129361Y-66881656D01*
X92128122Y-66878109D01*
X92136252Y-66863829D01*
X92159360Y-66865991D01*
G37*
G36*
X94065457Y-66078463D02*
G01*
X94110843Y-66082875D01*
X94133679Y-66086678D01*
X94133729Y-66089687D01*
X94110759Y-66091720D01*
X94083336Y-66092432D01*
X94046023Y-66091319D01*
X94019215Y-66087480D01*
X94010473Y-66083395D01*
X94017356Y-66078727D01*
X94041609Y-66077288D01*
X94065457Y-66078463D01*
G37*
G36*
X93788401Y-65921211D02*
G01*
X93780541Y-65926265D01*
X93755173Y-65934907D01*
X93717610Y-65945351D01*
X93713846Y-65946310D01*
X93658528Y-65957572D01*
X93595051Y-65966538D01*
X93546396Y-65970678D01*
X93458486Y-65974933D01*
X93547957Y-65964493D01*
X93604851Y-65956344D01*
X93664833Y-65945406D01*
X93710421Y-65935139D01*
X93748656Y-65926130D01*
X93776862Y-65921170D01*
X93788401Y-65921211D01*
G37*
G36*
X92130158Y-64958777D02*
G01*
X92164017Y-64964362D01*
X92205472Y-64972292D01*
X92247873Y-64981195D01*
X92284574Y-64989698D01*
X92308927Y-64996430D01*
X92314903Y-64999104D01*
X92308179Y-65001687D01*
X92283948Y-65001042D01*
X92256583Y-64998349D01*
X92224538Y-64993117D01*
X92188508Y-64985263D01*
X92153686Y-64976261D01*
X92125266Y-64967583D01*
X92108439Y-64960704D01*
X92108400Y-64957097D01*
X92110540Y-64956910D01*
X92130158Y-64958777D01*
G37*
G36*
X92153754Y-66698786D02*
G01*
X92175340Y-66718873D01*
X92204204Y-66747132D01*
X92205586Y-66748513D01*
X92254535Y-66790624D01*
X92300706Y-66814858D01*
X92315683Y-66819420D01*
X92358201Y-66830642D01*
X92382790Y-66838443D01*
X92394305Y-66844922D01*
X92397600Y-66852175D01*
X92397711Y-66854872D01*
X92388366Y-66866964D01*
X92383059Y-66868259D01*
X92329321Y-66863500D01*
X92270709Y-66843228D01*
X92215483Y-66811346D01*
X92171905Y-66771757D01*
X92167737Y-66766525D01*
X92150868Y-66739267D01*
X92140586Y-66713121D01*
X92139106Y-66695130D01*
X92144029Y-66691142D01*
X92153754Y-66698786D01*
G37*
G36*
X93802542Y-64207287D02*
G01*
X93823761Y-64209984D01*
X93827706Y-64212093D01*
X93817378Y-64215947D01*
X93791942Y-64217896D01*
X93786100Y-64217954D01*
X93733335Y-64226348D01*
X93690088Y-64248849D01*
X93658731Y-64281439D01*
X93641636Y-64320096D01*
X93641175Y-64360800D01*
X93659722Y-64399531D01*
X93671486Y-64412197D01*
X93717368Y-64442820D01*
X93765992Y-64450910D01*
X93789612Y-64447433D01*
X93809538Y-64444058D01*
X93808787Y-64448550D01*
X93804264Y-64451843D01*
X93767910Y-64463516D01*
X93724663Y-64458838D01*
X93681593Y-64440293D01*
X93645767Y-64410363D01*
X93632581Y-64391548D01*
X93617557Y-64349038D01*
X93623054Y-64309031D01*
X93649938Y-64267676D01*
X93663608Y-64253117D01*
X93693427Y-64225620D01*
X93718081Y-64211616D01*
X93747523Y-64206683D01*
X93769100Y-64206232D01*
X93802542Y-64207287D01*
G37*
G36*
X94185754Y-61491418D02*
G01*
X94188593Y-61506091D01*
X94190823Y-61532550D01*
X94192477Y-61572433D01*
X94193585Y-61627380D01*
X94194180Y-61699029D01*
X94194294Y-61789019D01*
X94193957Y-61898989D01*
X94193201Y-62030578D01*
X94193093Y-62046583D01*
X94192554Y-62160379D01*
X94192443Y-62277017D01*
X94192725Y-62394622D01*
X94193368Y-62511319D01*
X94194335Y-62625231D01*
X94195593Y-62734484D01*
X94197106Y-62837202D01*
X94198840Y-62931510D01*
X94200762Y-63015533D01*
X94202835Y-63087394D01*
X94205026Y-63145218D01*
X94207300Y-63187131D01*
X94209622Y-63211256D01*
X94211958Y-63215718D01*
X94214274Y-63198642D01*
X94214309Y-63198203D01*
X94217832Y-63158922D01*
X94221055Y-63140498D01*
X94225023Y-63140382D01*
X94230781Y-63156028D01*
X94231135Y-63157178D01*
X94240703Y-63188768D01*
X94245478Y-63206166D01*
X94247609Y-63217570D01*
X94248207Y-63222337D01*
X94256577Y-63229742D01*
X94260070Y-63228324D01*
X94267982Y-63232026D01*
X94268861Y-63242284D01*
X94257620Y-63262146D01*
X94243812Y-63270292D01*
X94235041Y-63275431D01*
X94248435Y-63278340D01*
X94264358Y-63279083D01*
X94319699Y-63291655D01*
X94376653Y-63325139D01*
X94432261Y-63377457D01*
X94466822Y-63421343D01*
X94504643Y-63482735D01*
X94532511Y-63543671D01*
X94549306Y-63600026D01*
X94553908Y-63647676D01*
X94545196Y-63682495D01*
X94539774Y-63689872D01*
X94536843Y-63693512D01*
X94530985Y-63700787D01*
X94539200Y-63697708D01*
X94539774Y-63697385D01*
X94551621Y-63697454D01*
X94552515Y-63704456D01*
X94550088Y-63724120D01*
X94545905Y-63758166D01*
X94542704Y-63784266D01*
X94537975Y-63817049D01*
X94533851Y-63835666D01*
X94531725Y-63837012D01*
X94526888Y-63830030D01*
X94522188Y-63841383D01*
X94518277Y-63865967D01*
X94515804Y-63898682D01*
X94515421Y-63934425D01*
X94516538Y-63956116D01*
X94518515Y-64001003D01*
X94514330Y-64032588D01*
X94502276Y-64060583D01*
X94496461Y-64070399D01*
X94477083Y-64099418D01*
X94466288Y-64111150D01*
X94465648Y-64104962D01*
X94476734Y-64080219D01*
X94477936Y-64077880D01*
X94494402Y-64021613D01*
X94492368Y-63955295D01*
X94489958Y-63946669D01*
X94472135Y-63882876D01*
X94461129Y-63857493D01*
X94454794Y-63845903D01*
X94433073Y-63806164D01*
X94418605Y-63790127D01*
X94448934Y-63790127D01*
X94454794Y-63795988D01*
X94460655Y-63790127D01*
X94454794Y-63784266D01*
X94448934Y-63790127D01*
X94418605Y-63790127D01*
X94408031Y-63778406D01*
X94484098Y-63778406D01*
X94489958Y-63784266D01*
X94495819Y-63778406D01*
X94489958Y-63772545D01*
X94484098Y-63778406D01*
X94408031Y-63778406D01*
X94405935Y-63776083D01*
X94376467Y-63765430D01*
X94341423Y-63772385D01*
X94323682Y-63780411D01*
X94279999Y-63814516D01*
X94247962Y-63867111D01*
X94227121Y-63939132D01*
X94219276Y-63997819D01*
X94215989Y-64047673D01*
X94217135Y-64080996D01*
X94223351Y-64104392D01*
X94230906Y-64118161D01*
X94247584Y-64138212D01*
X94264324Y-64140349D01*
X94276445Y-64135441D01*
X94302418Y-64122860D01*
X94277846Y-64144454D01*
X94262277Y-64168660D01*
X94247876Y-64209057D01*
X94236353Y-64258405D01*
X94229421Y-64309458D01*
X94228634Y-64352748D01*
X94229035Y-64387232D01*
X94227214Y-64429476D01*
X94226355Y-64440658D01*
X94223899Y-64459974D01*
X94221348Y-64459407D01*
X94218446Y-64437816D01*
X94214938Y-64394062D01*
X94214508Y-64387912D01*
X94208648Y-64303126D01*
X94207217Y-64282421D01*
X94205002Y-64408881D01*
X94202787Y-64535341D01*
X94227476Y-64512340D01*
X94242907Y-64492112D01*
X94244657Y-64477189D01*
X94247003Y-64471061D01*
X94269074Y-64476194D01*
X94272735Y-64477446D01*
X94299508Y-64489160D01*
X94314715Y-64500205D01*
X94314852Y-64500418D01*
X94329587Y-64506871D01*
X94358924Y-64510611D01*
X94372674Y-64510985D01*
X94433740Y-64517070D01*
X94477190Y-64536007D01*
X94501071Y-64561158D01*
X94511421Y-64589602D01*
X94519066Y-64635561D01*
X94523802Y-64693240D01*
X94525424Y-64756843D01*
X94523728Y-64820576D01*
X94518510Y-64878645D01*
X94513364Y-64909509D01*
X94503699Y-64957185D01*
X94497862Y-64987685D01*
X94494996Y-65002661D01*
X94490226Y-65029652D01*
X94488005Y-65037966D01*
X94482687Y-65057872D01*
X94472985Y-65072867D01*
X94470591Y-65073607D01*
X94466516Y-65078380D01*
X94463272Y-65082179D01*
X94465015Y-65091505D01*
X94466029Y-65112169D01*
X94461837Y-65148114D01*
X94453812Y-65192118D01*
X94452623Y-65197203D01*
X94443327Y-65236963D01*
X94431756Y-65275427D01*
X94428299Y-65284589D01*
X94408565Y-65317916D01*
X94376925Y-65343949D01*
X94329228Y-65365984D01*
X94328429Y-65366353D01*
X94308279Y-65373442D01*
X94272050Y-65385183D01*
X94266277Y-65386910D01*
X94245236Y-65393204D01*
X94235607Y-65395461D01*
X94232090Y-65395955D01*
X94228364Y-65396479D01*
X94222079Y-65399673D01*
X94216678Y-65406614D01*
X94212084Y-65418874D01*
X94208221Y-65438025D01*
X94205015Y-65465637D01*
X94202390Y-65503282D01*
X94200270Y-65552533D01*
X94198579Y-65614960D01*
X94197242Y-65692135D01*
X94196184Y-65785629D01*
X94195328Y-65897014D01*
X94194599Y-66027862D01*
X94193922Y-66179744D01*
X94193556Y-66269756D01*
X94192725Y-66439152D01*
X94191658Y-66591501D01*
X94190371Y-66725998D01*
X94188876Y-66841841D01*
X94187189Y-66938224D01*
X94185324Y-67014344D01*
X94183293Y-67069397D01*
X94181112Y-67102577D01*
X94178905Y-67113108D01*
X94173568Y-67102293D01*
X94169614Y-67073452D01*
X94167704Y-67031991D01*
X94167623Y-67020764D01*
X94167623Y-66928419D01*
X94065062Y-66928551D01*
X93989687Y-66925083D01*
X93920974Y-66915328D01*
X93892173Y-66908392D01*
X93847249Y-66892297D01*
X93789320Y-66867149D01*
X93725229Y-66836367D01*
X93661819Y-66803373D01*
X93605935Y-66771586D01*
X93564972Y-66744837D01*
X93491601Y-66697866D01*
X93405186Y-66653548D01*
X93316012Y-66616843D01*
X93266133Y-66600727D01*
X93169878Y-66579651D01*
X93065361Y-66567385D01*
X92960915Y-66564348D01*
X92864869Y-66570959D01*
X92821007Y-66578349D01*
X92778119Y-66586453D01*
X92744174Y-66590969D01*
X92725600Y-66591078D01*
X92724488Y-66590635D01*
X92708471Y-66592559D01*
X92673436Y-66606567D01*
X92619117Y-66632781D01*
X92545249Y-66671320D01*
X92532958Y-66677908D01*
X92479507Y-66697791D01*
X92423969Y-66703730D01*
X92373452Y-66695834D01*
X92335725Y-66674834D01*
X92308043Y-66634225D01*
X92296837Y-66582817D01*
X92301125Y-66525454D01*
X92319926Y-66466983D01*
X92352258Y-66412248D01*
X92397140Y-66366096D01*
X92398484Y-66365039D01*
X92431777Y-66343525D01*
X92480742Y-66317350D01*
X92538907Y-66289545D01*
X92599800Y-66263139D01*
X92656948Y-66241161D01*
X92679021Y-66233743D01*
X92742551Y-66216296D01*
X92817309Y-66199860D01*
X92894615Y-66186012D01*
X92965785Y-66176331D01*
X93015757Y-66172532D01*
X93145674Y-66179028D01*
X93282551Y-66205515D01*
X93422946Y-66250975D01*
X93563416Y-66314393D01*
X93640166Y-66356978D01*
X93745745Y-66416785D01*
X93836640Y-66461619D01*
X93915504Y-66492282D01*
X93984994Y-66509576D01*
X94047766Y-66514303D01*
X94106475Y-66507265D01*
X94123668Y-66502986D01*
X94167623Y-66490779D01*
X94167623Y-66399425D01*
X94167623Y-66308071D01*
X94152588Y-66304748D01*
X94100226Y-66293176D01*
X94065152Y-66284232D01*
X94011896Y-66269114D01*
X93944513Y-66249066D01*
X93867059Y-66225329D01*
X93783590Y-66199147D01*
X93698161Y-66171762D01*
X93616723Y-66145046D01*
X93567280Y-66129596D01*
X93502357Y-66110675D01*
X93429268Y-66090283D01*
X93355330Y-66070417D01*
X93287857Y-66053079D01*
X93234164Y-66040267D01*
X93229921Y-66039330D01*
X93160546Y-66024246D01*
X93106652Y-66012786D01*
X93101916Y-66011779D01*
X93049726Y-66001168D01*
X92999672Y-65991653D01*
X92966686Y-65985856D01*
X93112141Y-65985856D01*
X93120721Y-65989848D01*
X93136151Y-65994092D01*
X93167517Y-66001946D01*
X93215464Y-66013869D01*
X93273814Y-66028328D01*
X93336385Y-66043790D01*
X93345226Y-66045971D01*
X93401965Y-66060769D01*
X93475538Y-66081168D01*
X93560468Y-66105582D01*
X93651276Y-66132423D01*
X93742483Y-66160103D01*
X93790634Y-66175048D01*
X93871317Y-66200051D01*
X93946813Y-66222957D01*
X94013557Y-66242722D01*
X94067985Y-66258302D01*
X94106530Y-66268656D01*
X94123668Y-66272496D01*
X94152588Y-66275400D01*
X94165123Y-66270279D01*
X94167623Y-66257170D01*
X94160165Y-66240022D01*
X94144400Y-66231735D01*
X94135083Y-66226837D01*
X94117808Y-66221648D01*
X94079205Y-66210082D01*
X94032113Y-66193361D01*
X93971748Y-66169715D01*
X93921476Y-66149111D01*
X93877014Y-66129455D01*
X93950780Y-66129455D01*
X93995440Y-66151756D01*
X94032491Y-66168103D01*
X94073911Y-66183175D01*
X94113335Y-66195070D01*
X94144400Y-66201884D01*
X94160741Y-66201715D01*
X94161245Y-66201320D01*
X94165902Y-66186088D01*
X94167623Y-66161731D01*
X94167623Y-66128521D01*
X94059201Y-66128988D01*
X93950780Y-66129455D01*
X93877014Y-66129455D01*
X93876453Y-66129207D01*
X93841013Y-66111203D01*
X93819862Y-66097618D01*
X93815985Y-66092583D01*
X93826494Y-66089265D01*
X93853349Y-66087772D01*
X93889541Y-66087893D01*
X93928063Y-66089414D01*
X93961907Y-66092123D01*
X93984065Y-66095808D01*
X93988445Y-66097813D01*
X94003018Y-66101455D01*
X94034306Y-66104062D01*
X94075587Y-66105078D01*
X94076320Y-66105079D01*
X94156929Y-66105079D01*
X94153485Y-66020099D01*
X94150041Y-65935120D01*
X94044550Y-65926938D01*
X93983223Y-65921730D01*
X93917856Y-65915468D01*
X93876708Y-65911049D01*
X93861145Y-65909378D01*
X93853702Y-65908499D01*
X93812937Y-65904713D01*
X93774061Y-65904165D01*
X93731875Y-65907409D01*
X93716354Y-65909733D01*
X93681181Y-65914998D01*
X93616782Y-65927489D01*
X93558117Y-65940022D01*
X93529104Y-65944611D01*
X93481715Y-65950117D01*
X93420973Y-65956044D01*
X93351903Y-65961892D01*
X93294388Y-65966156D01*
X93220295Y-65971407D01*
X93167311Y-65975599D01*
X93133149Y-65979136D01*
X93115521Y-65982420D01*
X93112141Y-65985856D01*
X92966686Y-65985856D01*
X92947448Y-65982475D01*
X92888750Y-65972873D01*
X92819273Y-65962088D01*
X92734711Y-65949359D01*
X92643858Y-65935867D01*
X92575059Y-65925648D01*
X92512490Y-65916300D01*
X92460609Y-65908492D01*
X92423872Y-65902895D01*
X92408323Y-65900449D01*
X92384043Y-65902342D01*
X92352829Y-65916859D01*
X92321523Y-65938306D01*
X92310072Y-65946151D01*
X92309559Y-65946535D01*
X92264588Y-65977679D01*
X92214670Y-66008301D01*
X92165180Y-66035531D01*
X92121491Y-66056496D01*
X92088979Y-66068324D01*
X92078666Y-66069915D01*
X92062570Y-66074296D01*
X92028457Y-66086528D01*
X91979866Y-66105240D01*
X91920334Y-66129063D01*
X91853397Y-66156627D01*
X91836943Y-66163512D01*
X91734758Y-66204733D01*
X91632626Y-66242832D01*
X91533406Y-66276983D01*
X91439957Y-66306359D01*
X91355140Y-66330131D01*
X91281813Y-66347472D01*
X91222835Y-66357556D01*
X91181068Y-66359553D01*
X91167472Y-66357243D01*
X91155860Y-66351409D01*
X91148721Y-66339657D01*
X91144973Y-66317084D01*
X91143534Y-66278788D01*
X91143332Y-66247874D01*
X91141477Y-66180584D01*
X91136668Y-66100426D01*
X91129692Y-66017198D01*
X91121338Y-65940696D01*
X91115035Y-65896043D01*
X91111621Y-65869484D01*
X91109848Y-65853071D01*
X92315662Y-65853071D01*
X92321523Y-65858932D01*
X92327383Y-65853071D01*
X92321523Y-65847211D01*
X92315662Y-65853071D01*
X91109848Y-65853071D01*
X91106733Y-65824237D01*
X91100818Y-65764980D01*
X91094324Y-65696389D01*
X91087699Y-65623139D01*
X91081391Y-65549908D01*
X91078366Y-65513154D01*
X91072415Y-65460476D01*
X91063847Y-65409664D01*
X91054431Y-65371059D01*
X91053655Y-65368692D01*
X91042771Y-65318580D01*
X91047110Y-65268364D01*
X91047474Y-65266635D01*
X91052499Y-65236424D01*
X91050421Y-65213062D01*
X91038908Y-65187757D01*
X91017869Y-65155043D01*
X90975825Y-65084459D01*
X90932909Y-64998163D01*
X90892197Y-64903548D01*
X90856766Y-64808009D01*
X90829693Y-64718942D01*
X90820630Y-64680944D01*
X90793788Y-64521696D01*
X90778474Y-64355928D01*
X90776674Y-64274083D01*
X90806070Y-64274083D01*
X90816230Y-64436370D01*
X90837593Y-64595450D01*
X90869788Y-64745592D01*
X90912446Y-64881067D01*
X90915053Y-64887887D01*
X90946097Y-64962357D01*
X90979914Y-65033448D01*
X91013616Y-65095616D01*
X91044314Y-65143318D01*
X91055625Y-65157716D01*
X91076750Y-65183140D01*
X91104091Y-65217051D01*
X91118263Y-65234960D01*
X91157562Y-65277837D01*
X91212859Y-65328341D01*
X91279518Y-65382975D01*
X91352905Y-65438241D01*
X91428381Y-65490643D01*
X91501312Y-65536682D01*
X91564472Y-65571570D01*
X91600925Y-65587899D01*
X91655206Y-65609694D01*
X91722800Y-65635330D01*
X91799190Y-65663184D01*
X91879859Y-65691633D01*
X91960292Y-65719055D01*
X92035971Y-65743824D01*
X92092958Y-65761512D01*
X92288821Y-65815243D01*
X92477376Y-65856983D01*
X92653991Y-65885762D01*
X92724218Y-65893823D01*
X92801683Y-65899563D01*
X92894869Y-65903414D01*
X92998337Y-65905420D01*
X93106652Y-65905622D01*
X93214375Y-65904064D01*
X93316070Y-65900787D01*
X93406299Y-65895836D01*
X93479625Y-65889252D01*
X93491367Y-65887798D01*
X93560015Y-65878048D01*
X93613109Y-65868990D01*
X93649124Y-65861039D01*
X93666537Y-65854612D01*
X93663824Y-65850127D01*
X93639459Y-65848000D01*
X93637077Y-65847954D01*
X93601936Y-65850911D01*
X93574122Y-65859126D01*
X93571704Y-65860487D01*
X93546947Y-65867249D01*
X93502246Y-65868464D01*
X93447740Y-65865208D01*
X93399573Y-65860796D01*
X93371787Y-65856845D01*
X93361359Y-65852448D01*
X93365268Y-65846700D01*
X93372457Y-65842622D01*
X93375749Y-65841350D01*
X93710494Y-65841350D01*
X93716354Y-65847211D01*
X93722215Y-65841350D01*
X93716354Y-65835489D01*
X93710494Y-65841350D01*
X93375749Y-65841350D01*
X93398789Y-65832448D01*
X93438211Y-65820798D01*
X93470207Y-65812947D01*
X93522889Y-65800982D01*
X93579129Y-65787846D01*
X93606032Y-65781403D01*
X93650652Y-65771399D01*
X93692799Y-65763282D01*
X93711524Y-65760382D01*
X93747510Y-65754272D01*
X93791793Y-65744812D01*
X93810124Y-65740362D01*
X93842538Y-65731431D01*
X93854452Y-65725521D01*
X93848303Y-65720803D01*
X93839428Y-65718371D01*
X93827813Y-65713814D01*
X93828314Y-65711895D01*
X93876271Y-65711895D01*
X93876708Y-65712579D01*
X93890203Y-65712188D01*
X93918660Y-65704796D01*
X93955695Y-65692731D01*
X93994923Y-65678321D01*
X94029960Y-65663895D01*
X94054421Y-65651780D01*
X94062132Y-65644963D01*
X94053456Y-65638807D01*
X94043461Y-65640884D01*
X94017185Y-65649462D01*
X93996576Y-65655130D01*
X93975151Y-65664177D01*
X93968362Y-65672662D01*
X93958903Y-65682052D01*
X93951543Y-65683113D01*
X93929941Y-65686578D01*
X93904553Y-65694752D01*
X93883842Y-65704302D01*
X93876271Y-65711895D01*
X93828314Y-65711895D01*
X93829509Y-65707313D01*
X93847097Y-65696970D01*
X93883156Y-65680891D01*
X93900149Y-65673752D01*
X93943258Y-65656411D01*
X93978683Y-65643316D01*
X94000418Y-65636648D01*
X94003402Y-65636228D01*
X94011597Y-65629588D01*
X94010145Y-65625735D01*
X94013419Y-65613436D01*
X94022133Y-65608153D01*
X94048005Y-65601429D01*
X94058454Y-65605779D01*
X94056271Y-65612785D01*
X94055539Y-65624253D01*
X94058510Y-65625403D01*
X94077329Y-65628203D01*
X94088560Y-65630235D01*
X94102606Y-65628888D01*
X94102551Y-65623527D01*
X94106963Y-65611738D01*
X94125938Y-65599232D01*
X94148244Y-65585182D01*
X94156036Y-65572463D01*
X94146670Y-65566020D01*
X94143768Y-65565900D01*
X94125858Y-65571465D01*
X94099828Y-65584844D01*
X94099814Y-65584853D01*
X94084355Y-65593153D01*
X94085745Y-65589085D01*
X94104592Y-65571507D01*
X94109017Y-65567586D01*
X94135135Y-65545995D01*
X94154218Y-65532864D01*
X94158832Y-65531051D01*
X94163471Y-65520225D01*
X94166657Y-65492407D01*
X94167623Y-65460409D01*
X94165972Y-65418243D01*
X94160507Y-65395947D01*
X94151693Y-65390081D01*
X94145871Y-65388467D01*
X94133553Y-65385052D01*
X94101866Y-65371922D01*
X94078544Y-65360778D01*
X94226230Y-65360778D01*
X94232090Y-65366638D01*
X94237951Y-65360778D01*
X94232090Y-65354917D01*
X94226230Y-65360778D01*
X94078544Y-65360778D01*
X94066714Y-65355125D01*
X94060768Y-65352115D01*
X94254756Y-65352115D01*
X94266277Y-65353992D01*
X94281480Y-65351837D01*
X94281661Y-65347835D01*
X94265974Y-65345037D01*
X94259196Y-65346910D01*
X94254756Y-65352115D01*
X94060768Y-65352115D01*
X93997665Y-65320170D01*
X93818936Y-65407916D01*
X93750405Y-65440281D01*
X93680098Y-65471269D01*
X93614458Y-65498187D01*
X93559931Y-65518339D01*
X93538747Y-65525065D01*
X93489381Y-65538582D01*
X93454367Y-65546682D01*
X93435412Y-65549350D01*
X93434221Y-65546573D01*
X93452498Y-65538338D01*
X93489365Y-65525471D01*
X93578764Y-65490853D01*
X93666823Y-65446997D01*
X93746972Y-65397673D01*
X93812640Y-65346647D01*
X93829927Y-65330164D01*
X93861484Y-65296054D01*
X93885278Y-65266412D01*
X93897314Y-65246353D01*
X93898034Y-65243013D01*
X93891426Y-65222119D01*
X93875210Y-65194292D01*
X93872098Y-65189954D01*
X93846163Y-65154875D01*
X93822283Y-65200674D01*
X93774271Y-65272982D01*
X93713991Y-65327357D01*
X93639152Y-65365321D01*
X93547464Y-65388396D01*
X93537642Y-65389891D01*
X93496692Y-65395686D01*
X93465385Y-65399882D01*
X93450491Y-65401570D01*
X93450485Y-65401570D01*
X93441065Y-65411428D01*
X93434679Y-65426392D01*
X93425341Y-65442577D01*
X93406625Y-65447423D01*
X93397775Y-65446747D01*
X93384074Y-65445701D01*
X93346516Y-65445114D01*
X93313594Y-65450873D01*
X93311970Y-65451454D01*
X93270976Y-65464729D01*
X93225278Y-65474283D01*
X93194758Y-65478844D01*
X93184289Y-65478445D01*
X93194638Y-65471959D01*
X93224226Y-65460223D01*
X93241358Y-65454154D01*
X93283016Y-65439418D01*
X93315149Y-65427423D01*
X93332112Y-65420295D01*
X93333313Y-65419530D01*
X93334139Y-65406302D01*
X93330049Y-65380620D01*
X93322453Y-65346039D01*
X93255675Y-65366646D01*
X93190211Y-65382730D01*
X93105502Y-65397212D01*
X93005707Y-65409855D01*
X92894983Y-65420419D01*
X92777490Y-65428665D01*
X92657385Y-65434354D01*
X92538827Y-65437248D01*
X92425973Y-65437106D01*
X92322982Y-65433691D01*
X92234013Y-65426762D01*
X92225818Y-65425840D01*
X92004517Y-65388462D01*
X91786830Y-65328636D01*
X91576064Y-65247356D01*
X91480716Y-65202217D01*
X91368409Y-65143083D01*
X91275932Y-65088278D01*
X91200533Y-65035844D01*
X91139456Y-64983823D01*
X91089948Y-64930257D01*
X91079567Y-64917066D01*
X91057646Y-64886852D01*
X91050988Y-64873910D01*
X91059209Y-64878055D01*
X91081925Y-64899104D01*
X91117162Y-64935196D01*
X91160752Y-64977738D01*
X91210499Y-65021444D01*
X91255704Y-65056919D01*
X91256096Y-65057200D01*
X91325131Y-65101873D01*
X91410473Y-65149723D01*
X91505842Y-65197654D01*
X91604956Y-65242567D01*
X91701537Y-65281367D01*
X91735459Y-65293583D01*
X91868103Y-65336448D01*
X91993226Y-65369578D01*
X92116031Y-65393657D01*
X92241721Y-65409369D01*
X92375499Y-65417398D01*
X92522566Y-65418428D01*
X92655579Y-65414579D01*
X92742742Y-65410678D01*
X92810109Y-65406863D01*
X92861320Y-65402725D01*
X92900018Y-65397855D01*
X92929843Y-65391844D01*
X92954437Y-65384281D01*
X92966193Y-65379673D01*
X93024799Y-65355231D01*
X92954471Y-65361913D01*
X92881646Y-65362103D01*
X92820369Y-65353670D01*
X92800616Y-65350952D01*
X92796234Y-65350044D01*
X92739589Y-65340229D01*
X92678873Y-65332995D01*
X92632136Y-65330097D01*
X92585978Y-65328115D01*
X92544149Y-65324402D01*
X92520784Y-65320753D01*
X92508101Y-65316397D01*
X92511755Y-65313714D01*
X92800992Y-65313714D01*
X92802095Y-65319753D01*
X92817080Y-65331027D01*
X92820369Y-65331475D01*
X92831082Y-65322534D01*
X92831398Y-65319753D01*
X92821857Y-65309467D01*
X92813124Y-65308032D01*
X92800992Y-65313714D01*
X92511755Y-65313714D01*
X92513418Y-65312493D01*
X92538623Y-65308508D01*
X92578229Y-65304558D01*
X92631264Y-65300449D01*
X92683151Y-65297443D01*
X92723101Y-65296159D01*
X92724745Y-65296151D01*
X92774281Y-65295124D01*
X92804124Y-65290009D01*
X92818017Y-65277215D01*
X92819702Y-65253152D01*
X92812925Y-65214228D01*
X92812468Y-65212008D01*
X92792893Y-65148941D01*
X92765542Y-65107321D01*
X92745396Y-65083903D01*
X92743832Y-65074616D01*
X92761090Y-65078988D01*
X92776493Y-65085974D01*
X92794037Y-65094028D01*
X92791957Y-65090406D01*
X92788494Y-65087586D01*
X92779096Y-65079933D01*
X92759322Y-65069273D01*
X92722388Y-65053786D01*
X92673542Y-65035534D01*
X92618032Y-65016579D01*
X92617010Y-65016246D01*
X92546300Y-64992465D01*
X92518385Y-64981990D01*
X92592187Y-64981990D01*
X92679559Y-65016116D01*
X92732275Y-65036395D01*
X92767236Y-65048039D01*
X92788494Y-65051013D01*
X92800104Y-65045282D01*
X92806117Y-65030812D01*
X92809250Y-65015000D01*
X92814562Y-64985450D01*
X92817924Y-64966992D01*
X92818134Y-64965876D01*
X92811651Y-64952929D01*
X92810178Y-64951907D01*
X92793635Y-64950573D01*
X92764154Y-64954489D01*
X92754502Y-64956507D01*
X92713273Y-64964628D01*
X92665533Y-64972377D01*
X92650256Y-64974484D01*
X92592187Y-64981990D01*
X92518385Y-64981990D01*
X92497868Y-64974291D01*
X92471308Y-64961411D01*
X92466215Y-64953511D01*
X92482183Y-64950276D01*
X92518807Y-64951393D01*
X92534878Y-64952623D01*
X92589927Y-64954907D01*
X92647962Y-64953735D01*
X92686139Y-64950518D01*
X92755210Y-64941522D01*
X92637997Y-64920093D01*
X92551394Y-64903931D01*
X92485451Y-64890833D01*
X92437661Y-64880263D01*
X92405520Y-64871680D01*
X92393417Y-64867540D01*
X92378646Y-64863779D01*
X92379540Y-64873412D01*
X92385128Y-64884456D01*
X92392845Y-64903042D01*
X92386532Y-64907229D01*
X92383561Y-64906746D01*
X92368273Y-64894163D01*
X92361705Y-64880205D01*
X92347291Y-64862017D01*
X92346964Y-64861604D01*
X92328790Y-64859676D01*
X92310451Y-64857817D01*
X92310931Y-64849074D01*
X92312298Y-64840972D01*
X92306972Y-64843168D01*
X92288983Y-64843486D01*
X92262397Y-64833793D01*
X92261206Y-64833175D01*
X92223781Y-64821799D01*
X92192589Y-64821486D01*
X92172002Y-64824094D01*
X92173153Y-64820977D01*
X92180672Y-64817526D01*
X92192019Y-64810650D01*
X92185567Y-64804996D01*
X92158659Y-64798357D01*
X92157229Y-64798062D01*
X92121154Y-64792410D01*
X92091410Y-64790643D01*
X92087097Y-64790908D01*
X92072273Y-64790560D01*
X92075496Y-64786874D01*
X92219755Y-64786874D01*
X92232417Y-64793675D01*
X92239474Y-64796787D01*
X92276187Y-64809696D01*
X92316830Y-64819966D01*
X92318592Y-64820302D01*
X92347291Y-64824215D01*
X92359787Y-64819839D01*
X92362547Y-64804856D01*
X92362547Y-64804548D01*
X92360418Y-64791797D01*
X92350618Y-64784638D01*
X92328031Y-64781550D01*
X92287541Y-64781012D01*
X92283428Y-64781033D01*
X92242476Y-64781551D01*
X92222180Y-64783166D01*
X92219755Y-64786874D01*
X92075496Y-64786874D01*
X92078819Y-64783073D01*
X92079608Y-64782533D01*
X92083533Y-64774501D01*
X92066568Y-64768461D01*
X92050304Y-64765959D01*
X92018655Y-64764474D01*
X91997203Y-64768045D01*
X91994701Y-64769598D01*
X91987665Y-64787353D01*
X91998358Y-64804525D01*
X92021761Y-64814879D01*
X92031856Y-64815738D01*
X92062048Y-64819259D01*
X92103023Y-64828276D01*
X92128925Y-64835624D01*
X92162672Y-64847013D01*
X92175702Y-64854146D01*
X92170041Y-64858441D01*
X92163285Y-64859642D01*
X92133253Y-64865816D01*
X92116400Y-64871229D01*
X92094161Y-64876656D01*
X92065497Y-64879090D01*
X92038446Y-64878554D01*
X92021050Y-64875071D01*
X92018890Y-64870945D01*
X92013370Y-64866558D01*
X91992144Y-64868797D01*
X91991379Y-64868962D01*
X91970841Y-64871989D01*
X91971398Y-64867111D01*
X91974523Y-64864755D01*
X91988073Y-64847102D01*
X91981555Y-64831014D01*
X91958276Y-64819794D01*
X91940581Y-64818016D01*
X91926256Y-64816576D01*
X91884894Y-64812501D01*
X91863416Y-64807259D01*
X91837672Y-64800975D01*
X91817508Y-64793789D01*
X91758902Y-64769950D01*
X91799926Y-64767738D01*
X91840950Y-64765527D01*
X91815885Y-64761039D01*
X91932767Y-64761039D01*
X91934376Y-64768007D01*
X91940581Y-64768853D01*
X91950229Y-64764565D01*
X91948395Y-64761039D01*
X91934485Y-64759636D01*
X91932767Y-64761039D01*
X91815885Y-64761039D01*
X91794065Y-64757132D01*
X91778416Y-64754330D01*
X91851895Y-64754330D01*
X91863416Y-64756207D01*
X91878619Y-64754052D01*
X91878800Y-64750051D01*
X91863113Y-64747252D01*
X91856335Y-64749125D01*
X91851895Y-64754330D01*
X91778416Y-64754330D01*
X91747180Y-64748737D01*
X91794065Y-64745790D01*
X91840950Y-64742842D01*
X91794065Y-64733303D01*
X91751362Y-64724936D01*
X91709767Y-64717257D01*
X91706156Y-64716623D01*
X91664828Y-64707699D01*
X91627132Y-64697266D01*
X91594815Y-64690286D01*
X91569150Y-64690274D01*
X91568526Y-64690428D01*
X91557031Y-64694700D01*
X91567811Y-64696849D01*
X91572952Y-64697166D01*
X91601382Y-64703558D01*
X91631558Y-64716035D01*
X91650931Y-64728167D01*
X91651525Y-64733587D01*
X91636896Y-64732693D01*
X91610604Y-64725885D01*
X91576207Y-64713558D01*
X91563984Y-64708477D01*
X91530312Y-64692148D01*
X91517104Y-64680360D01*
X91520787Y-64672297D01*
X91526422Y-64665340D01*
X91510924Y-64666870D01*
X91509824Y-64667108D01*
X91489529Y-64667831D01*
X91483452Y-64662632D01*
X91474685Y-64657446D01*
X91463947Y-64659861D01*
X91450717Y-64661513D01*
X91452917Y-64653633D01*
X91451363Y-64642575D01*
X91436042Y-64639919D01*
X91412390Y-64634136D01*
X91375344Y-64618932D01*
X91331249Y-64597530D01*
X91286454Y-64573151D01*
X91247306Y-64549017D01*
X91225584Y-64533109D01*
X91216348Y-64523548D01*
X91226802Y-64526429D01*
X91257018Y-64541774D01*
X91260747Y-64543788D01*
X91318310Y-64570964D01*
X91391870Y-64599781D01*
X91474322Y-64627905D01*
X91558560Y-64653004D01*
X91637477Y-64672744D01*
X91678104Y-64680834D01*
X91724379Y-64689329D01*
X91761596Y-64696953D01*
X91783862Y-64702468D01*
X91787214Y-64703774D01*
X91805161Y-64708694D01*
X91842496Y-64714661D01*
X91895210Y-64721310D01*
X91959292Y-64728276D01*
X92030730Y-64735192D01*
X92105513Y-64741693D01*
X92179632Y-64747413D01*
X92249075Y-64751987D01*
X92309831Y-64755049D01*
X92357889Y-64756233D01*
X92362547Y-64756231D01*
X92442466Y-64754044D01*
X92528661Y-64748485D01*
X92615325Y-64740209D01*
X92696651Y-64729868D01*
X92766833Y-64718119D01*
X92820062Y-64705616D01*
X92824947Y-64704124D01*
X92846661Y-64696953D01*
X92854794Y-64692468D01*
X92846916Y-64689956D01*
X92820599Y-64688705D01*
X92773415Y-64688004D01*
X92769861Y-64687963D01*
X92724114Y-64686442D01*
X92688880Y-64683359D01*
X92669465Y-64679265D01*
X92667300Y-64677299D01*
X92677667Y-64669507D01*
X92704346Y-64659548D01*
X92728837Y-64652786D01*
X92801236Y-64632410D01*
X92872401Y-64607605D01*
X92933746Y-64581527D01*
X92960332Y-64567704D01*
X93001357Y-64544167D01*
X92966193Y-64574554D01*
X92937949Y-64593680D01*
X92896022Y-64615981D01*
X92848891Y-64636998D01*
X92843119Y-64639288D01*
X92755210Y-64673635D01*
X92854841Y-64677289D01*
X92954471Y-64680944D01*
X92854512Y-64713073D01*
X92776482Y-64734650D01*
X92687508Y-64753622D01*
X92596241Y-64768535D01*
X92511331Y-64777933D01*
X92453387Y-64780506D01*
X92415422Y-64781239D01*
X92395277Y-64784959D01*
X92387339Y-64794093D01*
X92385990Y-64809655D01*
X92392289Y-64833340D01*
X92415155Y-64845416D01*
X92418223Y-64846162D01*
X92445071Y-64852592D01*
X92486404Y-64862758D01*
X92533983Y-64874633D01*
X92541367Y-64876491D01*
X92578430Y-64884634D01*
X92625452Y-64893286D01*
X92677162Y-64901694D01*
X92728285Y-64909107D01*
X92773547Y-64914771D01*
X92807676Y-64917934D01*
X92825398Y-64917844D01*
X92826672Y-64917189D01*
X92828724Y-64913416D01*
X93058009Y-64913416D01*
X93059618Y-64920384D01*
X93065824Y-64921230D01*
X93075471Y-64916941D01*
X93073638Y-64913416D01*
X93059727Y-64912013D01*
X93058009Y-64913416D01*
X92828724Y-64913416D01*
X92832335Y-64906774D01*
X92845867Y-64881616D01*
X92860062Y-64855141D01*
X92995496Y-64855141D01*
X93003599Y-64880172D01*
X93022577Y-64894010D01*
X93043439Y-64891273D01*
X93052900Y-64873544D01*
X93051063Y-64846549D01*
X93043384Y-64828682D01*
X93026730Y-64817555D01*
X93008724Y-64824006D01*
X92996852Y-64843896D01*
X92995496Y-64855141D01*
X92860062Y-64855141D01*
X92860442Y-64854432D01*
X92883394Y-64815924D01*
X92907270Y-64782505D01*
X92920248Y-64767970D01*
X92946227Y-64751375D01*
X92967891Y-64749992D01*
X92979435Y-64762574D01*
X92977978Y-64780373D01*
X92975383Y-64795549D01*
X92984943Y-64799415D01*
X93009403Y-64795082D01*
X93039814Y-64790944D01*
X93084819Y-64787885D01*
X93135575Y-64786471D01*
X93144526Y-64786435D01*
X93196564Y-64787582D01*
X93230589Y-64791643D01*
X93251948Y-64799554D01*
X93261183Y-64806810D01*
X93272896Y-64819732D01*
X93269170Y-64822725D01*
X93246779Y-64817204D01*
X93241164Y-64815601D01*
X93210673Y-64807088D01*
X93197711Y-64805150D01*
X93197253Y-64809968D01*
X93201428Y-64817049D01*
X93200883Y-64833805D01*
X93196119Y-64838340D01*
X93188713Y-64850899D01*
X93193197Y-64876109D01*
X93196144Y-64885006D01*
X93202981Y-64921071D01*
X93204301Y-64967288D01*
X93202915Y-64987535D01*
X93200173Y-65026022D01*
X93203353Y-65049676D01*
X93214497Y-65066784D01*
X93224831Y-65076467D01*
X93247119Y-65098717D01*
X93251306Y-65115223D01*
X93238647Y-65133460D01*
X93235035Y-65137146D01*
X93223993Y-65157477D01*
X93228198Y-65174277D01*
X93240623Y-65179098D01*
X93254647Y-65171827D01*
X93276987Y-65153964D01*
X93280956Y-65150354D01*
X93303322Y-65133569D01*
X93312084Y-65133844D01*
X93304371Y-65148686D01*
X93293220Y-65161010D01*
X93249064Y-65190820D01*
X93189005Y-65211386D01*
X93118915Y-65222158D01*
X93065824Y-65222462D01*
X93044662Y-65222583D01*
X93022577Y-65219396D01*
X92972115Y-65212114D01*
X92920354Y-65195974D01*
X92904854Y-65192258D01*
X92903291Y-65203365D01*
X92906485Y-65215215D01*
X92913249Y-65246483D01*
X92918274Y-65284567D01*
X92918562Y-65287945D01*
X92922587Y-65318512D01*
X92928029Y-65337709D01*
X92929221Y-65339434D01*
X92943663Y-65341139D01*
X92973691Y-65338209D01*
X93003032Y-65333149D01*
X93056778Y-65323302D01*
X93088791Y-65320046D01*
X93099928Y-65323709D01*
X93091046Y-65334619D01*
X93063004Y-65353104D01*
X93059963Y-65354917D01*
X93001357Y-65389681D01*
X93040779Y-65389881D01*
X93070517Y-65387077D01*
X93114729Y-65379525D01*
X93166354Y-65368824D01*
X93218329Y-65356570D01*
X93263591Y-65344362D01*
X93295079Y-65333796D01*
X93301182Y-65330975D01*
X93314113Y-65313893D01*
X93336477Y-65313893D01*
X93340199Y-65353428D01*
X93350799Y-65387824D01*
X93365584Y-65410784D01*
X93380326Y-65416454D01*
X93393021Y-65422546D01*
X93394019Y-65427589D01*
X93397775Y-65436753D01*
X93406800Y-65429067D01*
X93417729Y-65409476D01*
X93427197Y-65382923D01*
X93428778Y-65376515D01*
X93433058Y-65350662D01*
X93433382Y-65323043D01*
X93429292Y-65286992D01*
X93420329Y-65235844D01*
X93418445Y-65225983D01*
X93407519Y-65194764D01*
X93392486Y-65183586D01*
X93375674Y-65189953D01*
X93359415Y-65211364D01*
X93346037Y-65245320D01*
X93337871Y-65289323D01*
X93336477Y-65313893D01*
X93314113Y-65313893D01*
X93315866Y-65311577D01*
X93326501Y-65273975D01*
X93328262Y-65262530D01*
X93339389Y-65214024D01*
X93356797Y-65178914D01*
X93378063Y-65160485D01*
X93400766Y-65162020D01*
X93401914Y-65162692D01*
X93418087Y-65181996D01*
X93431446Y-65213455D01*
X93433505Y-65221298D01*
X93440989Y-65251186D01*
X93446707Y-65269395D01*
X93447701Y-65271275D01*
X93458890Y-65268397D01*
X93482550Y-65256079D01*
X93493033Y-65249807D01*
X93518515Y-65235292D01*
X93533233Y-65229296D01*
X93534674Y-65229932D01*
X93525683Y-65239140D01*
X93503189Y-65255090D01*
X93493650Y-65261147D01*
X93462784Y-65286742D01*
X93452638Y-65313781D01*
X93452626Y-65314849D01*
X93455887Y-65336427D01*
X93461857Y-65343196D01*
X93474184Y-65335431D01*
X93497534Y-65315097D01*
X93526154Y-65287290D01*
X93569859Y-65234263D01*
X93596571Y-65179006D01*
X93599769Y-65168921D01*
X93610746Y-65135976D01*
X93619862Y-65115672D01*
X93624042Y-65112182D01*
X93625458Y-65128210D01*
X93617384Y-65158018D01*
X93602489Y-65195343D01*
X93583442Y-65233923D01*
X93562912Y-65267494D01*
X93551764Y-65281771D01*
X93530574Y-65308393D01*
X93519239Y-65328297D01*
X93518756Y-65334166D01*
X93514530Y-65341949D01*
X93506063Y-65343196D01*
X93490032Y-65349683D01*
X93487789Y-65355635D01*
X93498076Y-65361673D01*
X93525146Y-65361761D01*
X93563311Y-65356633D01*
X93606886Y-65347025D01*
X93645860Y-65335213D01*
X93697211Y-65309423D01*
X93741119Y-65269049D01*
X93781130Y-65210451D01*
X93797841Y-65179098D01*
X93818386Y-65133940D01*
X93831378Y-65092167D01*
X93838040Y-65051423D01*
X93863480Y-65051423D01*
X93863575Y-65090311D01*
X93866614Y-65117261D01*
X93873429Y-65138008D01*
X93884852Y-65158288D01*
X93890482Y-65166923D01*
X93923501Y-65210230D01*
X93960829Y-65248899D01*
X93998268Y-65279634D01*
X94031620Y-65299134D01*
X94056689Y-65304100D01*
X94062383Y-65302016D01*
X94080377Y-65301813D01*
X94094272Y-65307957D01*
X94105873Y-65316459D01*
X94097662Y-65316562D01*
X94085574Y-65313845D01*
X94065510Y-65309791D01*
X94066414Y-65314529D01*
X94079024Y-65325007D01*
X94105906Y-65337253D01*
X94141499Y-65343111D01*
X94145871Y-65343196D01*
X94162057Y-65341859D01*
X94329228Y-65341859D01*
X94340411Y-65337814D01*
X94366616Y-65316468D01*
X94369935Y-65313418D01*
X94391570Y-65289756D01*
X94402535Y-65270593D01*
X94399917Y-65261345D01*
X94398071Y-65261147D01*
X94388586Y-65269006D01*
X94368990Y-65288968D01*
X94356763Y-65302171D01*
X94334275Y-65329634D01*
X94329228Y-65341859D01*
X94162057Y-65341859D01*
X94175555Y-65340744D01*
X94193222Y-65329141D01*
X94208064Y-65302017D01*
X94209293Y-65299241D01*
X94230120Y-65252848D01*
X94244472Y-65224391D01*
X94254824Y-65210135D01*
X94263648Y-65206348D01*
X94269898Y-65207794D01*
X94286484Y-65204176D01*
X94291140Y-65196482D01*
X94302146Y-65162425D01*
X94309087Y-65148038D01*
X94314732Y-65150570D01*
X94321494Y-65166333D01*
X94332361Y-65194592D01*
X94364916Y-65163402D01*
X94389230Y-65143159D01*
X94408090Y-65132634D01*
X94410697Y-65132213D01*
X94419738Y-65122073D01*
X94422942Y-65097685D01*
X94422939Y-65097592D01*
X94418053Y-65071854D01*
X94400509Y-65058840D01*
X94385629Y-65054686D01*
X94353426Y-65048182D01*
X94329768Y-65044669D01*
X94310358Y-65036196D01*
X94282087Y-65016419D01*
X94263976Y-65001146D01*
X94233833Y-64975131D01*
X94208076Y-64954967D01*
X94198394Y-64948540D01*
X94174656Y-64923645D01*
X94154327Y-64880011D01*
X94138749Y-64822250D01*
X94129262Y-64754974D01*
X94128369Y-64734773D01*
X94135869Y-64734773D01*
X94137845Y-64772217D01*
X94141814Y-64794533D01*
X94143197Y-64797152D01*
X94152602Y-64815897D01*
X94163417Y-64847225D01*
X94166566Y-64858345D01*
X94188811Y-64903999D01*
X94227512Y-64948658D01*
X94276137Y-64986738D01*
X94328152Y-65012652D01*
X94355164Y-65019592D01*
X94393874Y-65026185D01*
X94426799Y-65032680D01*
X94434282Y-65034413D01*
X94452623Y-65035965D01*
X94459701Y-65024010D01*
X94460655Y-65004391D01*
X94456179Y-64970484D01*
X94454794Y-64966837D01*
X94446628Y-64945335D01*
X94440192Y-64939047D01*
X94486602Y-64939047D01*
X94488005Y-64940765D01*
X94494973Y-64939156D01*
X94495819Y-64932951D01*
X94491530Y-64923303D01*
X94488005Y-64925137D01*
X94486602Y-64939047D01*
X94440192Y-64939047D01*
X94430885Y-64929954D01*
X94410496Y-64934703D01*
X94395144Y-64944832D01*
X94399443Y-64954247D01*
X94409853Y-64962226D01*
X94426936Y-64977804D01*
X94425424Y-64984610D01*
X94408373Y-64982858D01*
X94378839Y-64972765D01*
X94346120Y-64957745D01*
X94330118Y-64946682D01*
X94279854Y-64911930D01*
X94229801Y-64851333D01*
X94197241Y-64779245D01*
X94183458Y-64698958D01*
X94185179Y-64675586D01*
X94205089Y-64675586D01*
X94206533Y-64726664D01*
X94215872Y-64774213D01*
X94223275Y-64794207D01*
X94246365Y-64836730D01*
X94275882Y-64879315D01*
X94284848Y-64890149D01*
X94310304Y-64916542D01*
X94330118Y-64927789D01*
X94352335Y-64927775D01*
X94359797Y-64926343D01*
X94392316Y-64915364D01*
X94412017Y-64903648D01*
X94448934Y-64903648D01*
X94454794Y-64909509D01*
X94460655Y-64903648D01*
X94454794Y-64897787D01*
X94448934Y-64903648D01*
X94412017Y-64903648D01*
X94415616Y-64901508D01*
X94431588Y-64880205D01*
X94460655Y-64880205D01*
X94466516Y-64886066D01*
X94472376Y-64880205D01*
X94466516Y-64874345D01*
X94460655Y-64880205D01*
X94431588Y-64880205D01*
X94438572Y-64870889D01*
X94460936Y-64822859D01*
X94466016Y-64807639D01*
X94495998Y-64807639D01*
X94497862Y-64824360D01*
X94504882Y-64819682D01*
X94507540Y-64815738D01*
X94517204Y-64793956D01*
X94517971Y-64777352D01*
X94509840Y-64773526D01*
X94507540Y-64774714D01*
X94498177Y-64791041D01*
X94495998Y-64807639D01*
X94466016Y-64807639D01*
X94480780Y-64763410D01*
X94496176Y-64698535D01*
X94505196Y-64634227D01*
X94506170Y-64620061D01*
X94499707Y-64594186D01*
X94482091Y-64564891D01*
X94479286Y-64561494D01*
X94458867Y-64541835D01*
X94435476Y-64531535D01*
X94400324Y-64527353D01*
X94385111Y-64526776D01*
X94345524Y-64523328D01*
X94314136Y-64516461D01*
X94302163Y-64510774D01*
X94278757Y-64502117D01*
X94256813Y-64513047D01*
X94237401Y-64539711D01*
X94221595Y-64578257D01*
X94210467Y-64624833D01*
X94205089Y-64675586D01*
X94185179Y-64675586D01*
X94189733Y-64613764D01*
X94198341Y-64578383D01*
X94198678Y-64561026D01*
X94198119Y-64561054D01*
X94184532Y-64561728D01*
X94162509Y-64575784D01*
X94150623Y-64588931D01*
X94143075Y-64610081D01*
X94138611Y-64644646D01*
X94136299Y-64688688D01*
X94135869Y-64734773D01*
X94128369Y-64734773D01*
X94126953Y-64702744D01*
X94126599Y-64595609D01*
X94073382Y-64622576D01*
X94038689Y-64645912D01*
X94021463Y-64657499D01*
X94017150Y-64660400D01*
X93962638Y-64713295D01*
X93917051Y-64773542D01*
X93895539Y-64813163D01*
X93882357Y-64849893D01*
X93873414Y-64894367D01*
X93867706Y-64952657D01*
X93865496Y-64994863D01*
X93863480Y-65051423D01*
X93838040Y-65051423D01*
X93839241Y-65044076D01*
X93843291Y-64997145D01*
X93849464Y-64928555D01*
X93858942Y-64874756D01*
X93874327Y-64827105D01*
X93898221Y-64776960D01*
X93922604Y-64733690D01*
X93957564Y-64661193D01*
X93969958Y-64621062D01*
X94007837Y-64621062D01*
X94008101Y-64624959D01*
X94021463Y-64625167D01*
X94026188Y-64622819D01*
X94038306Y-64611643D01*
X94029760Y-64609587D01*
X94020602Y-64612432D01*
X94007837Y-64621062D01*
X93969958Y-64621062D01*
X93983458Y-64577350D01*
X94001165Y-64478454D01*
X94011565Y-64360794D01*
X94011714Y-64358051D01*
X94013004Y-64303547D01*
X94012474Y-64278468D01*
X94038689Y-64278468D01*
X94038689Y-64288825D01*
X94038689Y-64419127D01*
X94082644Y-64392796D01*
X94126079Y-64364856D01*
X94152091Y-64342122D01*
X94164619Y-64320145D01*
X94167623Y-64296836D01*
X94160324Y-64265920D01*
X94137531Y-64235535D01*
X94202787Y-64235535D01*
X94208648Y-64241396D01*
X94214508Y-64235535D01*
X94208648Y-64229675D01*
X94206694Y-64231629D01*
X94202787Y-64235535D01*
X94137531Y-64235535D01*
X94136115Y-64233647D01*
X94123668Y-64221543D01*
X94100618Y-64200607D01*
X94205291Y-64200607D01*
X94206694Y-64202325D01*
X94213662Y-64200716D01*
X94214508Y-64194511D01*
X94210220Y-64184863D01*
X94206694Y-64186697D01*
X94205291Y-64200607D01*
X94100618Y-64200607D01*
X94088320Y-64189437D01*
X94064450Y-64171589D01*
X94049805Y-64169785D01*
X94042132Y-64185807D01*
X94039178Y-64221440D01*
X94038689Y-64278468D01*
X94012474Y-64278468D01*
X94011747Y-64244070D01*
X94008376Y-64184166D01*
X94003325Y-64128378D01*
X93997025Y-64081251D01*
X93989910Y-64047327D01*
X93982412Y-64031151D01*
X93980505Y-64030413D01*
X93968653Y-64020235D01*
X93951875Y-63993404D01*
X93932755Y-63955476D01*
X93913877Y-63912005D01*
X93897822Y-63868546D01*
X93887175Y-63830655D01*
X93886810Y-63828907D01*
X93881211Y-63787272D01*
X93877566Y-63731444D01*
X93876856Y-63695427D01*
X93893467Y-63695427D01*
X93894745Y-63779194D01*
X93907141Y-63858577D01*
X93913494Y-63881868D01*
X93947777Y-63955483D01*
X94003312Y-64024408D01*
X94074795Y-64083812D01*
X94104503Y-64102760D01*
X94121718Y-64108240D01*
X94131961Y-64101787D01*
X94133157Y-64100013D01*
X94141806Y-64089677D01*
X94143991Y-64100973D01*
X94144001Y-64101854D01*
X94153077Y-64125501D01*
X94174033Y-64146005D01*
X94198119Y-64156170D01*
X94208717Y-64155082D01*
X94220709Y-64145910D01*
X94216701Y-64128567D01*
X94213422Y-64122153D01*
X94206478Y-64094279D01*
X94204137Y-64050437D01*
X94205897Y-63997539D01*
X94211258Y-63942497D01*
X94219720Y-63892222D01*
X94230782Y-63853628D01*
X94233278Y-63847887D01*
X94260763Y-63806652D01*
X94298014Y-63772315D01*
X94338767Y-63749232D01*
X94376759Y-63741762D01*
X94384467Y-63742714D01*
X94430913Y-63749368D01*
X94459828Y-63746302D01*
X94474073Y-63735038D01*
X94481991Y-63718467D01*
X94477505Y-63708580D01*
X94457195Y-63703727D01*
X94417643Y-63702252D01*
X94406192Y-63702217D01*
X94360338Y-63703695D01*
X94326934Y-63710282D01*
X94295062Y-63725212D01*
X94265537Y-63743869D01*
X94231214Y-63767830D01*
X94212376Y-63786141D01*
X94204431Y-63805255D01*
X94202787Y-63831628D01*
X94202787Y-63832068D01*
X94200177Y-63864151D01*
X94189528Y-63881424D01*
X94173484Y-63889758D01*
X94157454Y-63897426D01*
X94147806Y-63908956D01*
X94143046Y-63929623D01*
X94141679Y-63964707D01*
X94141946Y-64001110D01*
X94142736Y-64059716D01*
X94131573Y-63996372D01*
X94126119Y-63954982D01*
X94128220Y-63927489D01*
X94138427Y-63905532D01*
X94157380Y-63885243D01*
X94173754Y-63878037D01*
X94186294Y-63869289D01*
X94191114Y-63841222D01*
X94191245Y-63834082D01*
X94192666Y-63803669D01*
X94199320Y-63781502D01*
X94215242Y-63761775D01*
X94244467Y-63738682D01*
X94269911Y-63720904D01*
X94312719Y-63694758D01*
X94348723Y-63681902D01*
X94383421Y-63678775D01*
X94439070Y-63674764D01*
X94475160Y-63663087D01*
X94490515Y-63644280D01*
X94490032Y-63637750D01*
X94530983Y-63637750D01*
X94536843Y-63643611D01*
X94542704Y-63637750D01*
X94536843Y-63631890D01*
X94530983Y-63637750D01*
X94490032Y-63637750D01*
X94489489Y-63630413D01*
X94487018Y-63612996D01*
X94494563Y-63613532D01*
X94506447Y-63617452D01*
X94503616Y-63608382D01*
X94503462Y-63607889D01*
X94492056Y-63594633D01*
X94477455Y-63572897D01*
X94463458Y-63540920D01*
X94452333Y-63506100D01*
X94448613Y-63487282D01*
X94478677Y-63487282D01*
X94482861Y-63505818D01*
X94484926Y-63512014D01*
X94495195Y-63537373D01*
X94502966Y-63549633D01*
X94503616Y-63549841D01*
X94505379Y-63540913D01*
X94500017Y-63520537D01*
X94490698Y-63498330D01*
X94482462Y-63485641D01*
X94478677Y-63487282D01*
X94448613Y-63487282D01*
X94446351Y-63475837D01*
X94447781Y-63457527D01*
X94449446Y-63455754D01*
X94452895Y-63443596D01*
X94443623Y-63433084D01*
X94430692Y-63426029D01*
X94424728Y-63433317D01*
X94422922Y-63435524D01*
X94417812Y-63456374D01*
X94411559Y-63480703D01*
X94404645Y-63484868D01*
X94396146Y-63475577D01*
X94384467Y-63465602D01*
X94381749Y-63463281D01*
X94374517Y-63464067D01*
X94367630Y-63462440D01*
X94366885Y-63456770D01*
X94361565Y-63450609D01*
X94358511Y-63447072D01*
X94350124Y-63448273D01*
X94331419Y-63446525D01*
X94300096Y-63435410D01*
X94277999Y-63424828D01*
X94271005Y-63421478D01*
X94231113Y-63401462D01*
X94223417Y-63397600D01*
X94218415Y-63395495D01*
X94205883Y-63390220D01*
X94402049Y-63390220D01*
X94410300Y-63400917D01*
X94413770Y-63403325D01*
X94424728Y-63406312D01*
X94425491Y-63404709D01*
X94417240Y-63394012D01*
X94413770Y-63391604D01*
X94402812Y-63388617D01*
X94402049Y-63390220D01*
X94205883Y-63390220D01*
X94187012Y-63382277D01*
X94167632Y-63377266D01*
X94164656Y-63376497D01*
X94161442Y-63379298D01*
X94159211Y-63381243D01*
X94160311Y-63383394D01*
X94157746Y-63390610D01*
X94143206Y-63388884D01*
X94127491Y-63381937D01*
X94133472Y-63373174D01*
X94134399Y-63372575D01*
X94137712Y-63368397D01*
X94217013Y-63368397D01*
X94218415Y-63370115D01*
X94225384Y-63368506D01*
X94226230Y-63362301D01*
X94221941Y-63352653D01*
X94218415Y-63354486D01*
X94217013Y-63368397D01*
X94137712Y-63368397D01*
X94140418Y-63364984D01*
X94124543Y-63362488D01*
X94123668Y-63362480D01*
X94103083Y-63357675D01*
X94097296Y-63349917D01*
X94088716Y-63346779D01*
X94067414Y-63355293D01*
X94062769Y-63357928D01*
X94041560Y-63374741D01*
X94034759Y-63389262D01*
X94035345Y-63390824D01*
X94036206Y-63397017D01*
X94032548Y-63394328D01*
X94019170Y-63396372D01*
X93996406Y-63411750D01*
X93983272Y-63423496D01*
X93948212Y-63471313D01*
X93921015Y-63536139D01*
X93902496Y-63612626D01*
X93893467Y-63695427D01*
X93876856Y-63695427D01*
X93876367Y-63670630D01*
X93876833Y-63641367D01*
X93878083Y-63585761D01*
X93876993Y-63546101D01*
X93872241Y-63514916D01*
X93862504Y-63484729D01*
X93846462Y-63448069D01*
X93840299Y-63434855D01*
X93817397Y-63389112D01*
X93798150Y-63359948D01*
X93778222Y-63341904D01*
X93758250Y-63331541D01*
X93720439Y-63318949D01*
X93666094Y-63305145D01*
X93601967Y-63291626D01*
X93534810Y-63279891D01*
X93507223Y-63275841D01*
X93462190Y-63269654D01*
X93518684Y-63330629D01*
X93549161Y-63363439D01*
X93574826Y-63390920D01*
X93590138Y-63407140D01*
X93590167Y-63407169D01*
X93607642Y-63430201D01*
X93618235Y-63448194D01*
X93620537Y-63458085D01*
X93608249Y-63450847D01*
X93585924Y-63430989D01*
X93552003Y-63402190D01*
X93517848Y-63377903D01*
X93513442Y-63375367D01*
X93504440Y-63370185D01*
X93468344Y-63352045D01*
X93447306Y-63422277D01*
X93434903Y-63460726D01*
X93424506Y-63481364D01*
X93412311Y-63489094D01*
X93405923Y-63489036D01*
X93395579Y-63488942D01*
X93368986Y-63477962D01*
X93348979Y-63450406D01*
X93334206Y-63403768D01*
X93326621Y-63360990D01*
X93322801Y-63334375D01*
X93347703Y-63334375D01*
X93349106Y-63383985D01*
X93356753Y-63427287D01*
X93370282Y-63457264D01*
X93376393Y-63463348D01*
X93396585Y-63476038D01*
X93405923Y-63479513D01*
X93415271Y-63469165D01*
X93425921Y-63443130D01*
X93435822Y-63408923D01*
X93442920Y-63374058D01*
X93445164Y-63346049D01*
X93444338Y-63338858D01*
X93437465Y-63306567D01*
X93436346Y-63301045D01*
X93452626Y-63301045D01*
X93460858Y-63318085D01*
X93479837Y-63339649D01*
X93500988Y-63357100D01*
X93513442Y-63362301D01*
X93521528Y-63360357D01*
X93517948Y-63351991D01*
X93500325Y-63333404D01*
X93487789Y-63321276D01*
X93466478Y-63303630D01*
X93453987Y-63298647D01*
X93452626Y-63301045D01*
X93436346Y-63301045D01*
X93429840Y-63268925D01*
X93429585Y-63267627D01*
X93418088Y-63223074D01*
X93405264Y-63201725D01*
X93390483Y-63203352D01*
X93373113Y-63227727D01*
X93365079Y-63244282D01*
X93352907Y-63285469D01*
X93347703Y-63334375D01*
X93322801Y-63334375D01*
X93317556Y-63297834D01*
X93259338Y-63283433D01*
X93193411Y-63269176D01*
X93125784Y-63258104D01*
X93060596Y-63250496D01*
X93001985Y-63246628D01*
X92954088Y-63246781D01*
X92921043Y-63251231D01*
X92907157Y-63259739D01*
X92901217Y-63280458D01*
X92893441Y-63313961D01*
X92885174Y-63353458D01*
X92877763Y-63392159D01*
X92872554Y-63423276D01*
X92870893Y-63440019D01*
X92871187Y-63441161D01*
X92883458Y-63440317D01*
X92912074Y-63434614D01*
X92949363Y-63425655D01*
X93038915Y-63414344D01*
X93131245Y-63424124D01*
X93220401Y-63454330D01*
X93224740Y-63456400D01*
X93257172Y-63474523D01*
X93272523Y-63491383D01*
X93276064Y-63512775D01*
X93276063Y-63512792D01*
X93274747Y-63533169D01*
X93270744Y-63531766D01*
X93265653Y-63520131D01*
X93245683Y-63488896D01*
X93220292Y-63473604D01*
X93202104Y-63474704D01*
X93184649Y-63488260D01*
X93188643Y-63504070D01*
X93194758Y-63508816D01*
X93206082Y-63523159D01*
X93195326Y-63536284D01*
X93177176Y-63542933D01*
X93153521Y-63557324D01*
X93149275Y-63580594D01*
X93164836Y-63607910D01*
X93171315Y-63614308D01*
X93191896Y-63645350D01*
X93189403Y-63680401D01*
X93171970Y-63709908D01*
X93156309Y-63741717D01*
X93162956Y-63767618D01*
X93187597Y-63784504D01*
X93203032Y-63792070D01*
X93197036Y-63794959D01*
X93191827Y-63795245D01*
X93174553Y-63805587D01*
X93171315Y-63819430D01*
X93173745Y-63837985D01*
X93183756Y-63840450D01*
X93205429Y-63826811D01*
X93215210Y-63819266D01*
X93237571Y-63805067D01*
X93251643Y-63802249D01*
X93252223Y-63802693D01*
X93249084Y-63813913D01*
X93232032Y-63831774D01*
X93229921Y-63833521D01*
X93214607Y-63844105D01*
X93196766Y-63850644D01*
X93171213Y-63853761D01*
X93132764Y-63854077D01*
X93076235Y-63852215D01*
X93074572Y-63852147D01*
X93018537Y-63850234D01*
X93001357Y-63850254D01*
X92982061Y-63850276D01*
X92981344Y-63850359D01*
X92961309Y-63852687D01*
X92952449Y-63857880D01*
X92951499Y-63865437D01*
X92944221Y-63882025D01*
X92929475Y-63887462D01*
X92904214Y-63880149D01*
X92874965Y-63854549D01*
X92845016Y-63814664D01*
X92817652Y-63764492D01*
X92806189Y-63737381D01*
X92792362Y-63687814D01*
X92781975Y-63624361D01*
X92775642Y-63555702D01*
X92995496Y-63555702D01*
X93001357Y-63561562D01*
X93007217Y-63555702D01*
X93001357Y-63549841D01*
X92995496Y-63555702D01*
X92775642Y-63555702D01*
X92775547Y-63554673D01*
X92773597Y-63486402D01*
X92774206Y-63474562D01*
X92940779Y-63474562D01*
X92942565Y-63497219D01*
X92958878Y-63516504D01*
X92981344Y-63524043D01*
X92988726Y-63522508D01*
X93004839Y-63510162D01*
X93004593Y-63487996D01*
X93000102Y-63474611D01*
X92984058Y-63459127D01*
X92961037Y-63457759D01*
X92942758Y-63470517D01*
X92940779Y-63474562D01*
X92774206Y-63474562D01*
X92776642Y-63427199D01*
X92782811Y-63392263D01*
X92789610Y-63362169D01*
X92791082Y-63343061D01*
X92790188Y-63340626D01*
X92777821Y-63342714D01*
X92750407Y-63353314D01*
X92713726Y-63370173D01*
X92711388Y-63371319D01*
X92708727Y-63372569D01*
X92594759Y-63426108D01*
X92467246Y-63481553D01*
X92337783Y-63533966D01*
X92215302Y-63579659D01*
X92163285Y-63597566D01*
X92109448Y-63615972D01*
X92056008Y-63635013D01*
X92012757Y-63651184D01*
X92005048Y-63654222D01*
X91946442Y-63677678D01*
X92010909Y-63678455D01*
X92051646Y-63680565D01*
X92106349Y-63685559D01*
X92165847Y-63692540D01*
X92192589Y-63696213D01*
X92252569Y-63704862D01*
X92293224Y-63710117D01*
X92318452Y-63711775D01*
X92332151Y-63709634D01*
X92338221Y-63703490D01*
X92340560Y-63693141D01*
X92341220Y-63688484D01*
X92349993Y-63664359D01*
X92362321Y-63657086D01*
X92371518Y-63667145D01*
X92372349Y-63686252D01*
X92371549Y-63701813D01*
X92376069Y-63713491D01*
X92389816Y-63723890D01*
X92416698Y-63735614D01*
X92460619Y-63751268D01*
X92479642Y-63757782D01*
X92603021Y-63804833D01*
X92719196Y-63858685D01*
X92823951Y-63917027D01*
X92913066Y-63977546D01*
X92972053Y-64027698D01*
X93013078Y-64067363D01*
X92954471Y-64038792D01*
X92914725Y-64020855D01*
X92869402Y-64002579D01*
X92823949Y-63985872D01*
X92783815Y-63972641D01*
X92754447Y-63964793D01*
X92741350Y-63964177D01*
X92746730Y-63972781D01*
X92764102Y-63988343D01*
X92785889Y-64004915D01*
X92804512Y-64016549D01*
X92810814Y-64018692D01*
X92823214Y-64026585D01*
X92846558Y-64047070D01*
X92876061Y-64075353D01*
X92906942Y-64106643D01*
X92934416Y-64136145D01*
X92953699Y-64159068D01*
X92959200Y-64167368D01*
X92970150Y-64192698D01*
X92966663Y-64200714D01*
X92946445Y-64193446D01*
X92935800Y-64188087D01*
X92910824Y-64176592D01*
X92896776Y-64172813D01*
X92896093Y-64173134D01*
X92900332Y-64184057D01*
X92914501Y-64210593D01*
X92936208Y-64248411D01*
X92955788Y-64281229D01*
X92991879Y-64344517D01*
X93012935Y-64390300D01*
X93018914Y-64418459D01*
X93009772Y-64428873D01*
X93008314Y-64428936D01*
X93001887Y-64419751D01*
X93003081Y-64408324D01*
X92998982Y-64389533D01*
X92982664Y-64355353D01*
X92955905Y-64309199D01*
X92931804Y-64271428D01*
X92902520Y-64225789D01*
X92879466Y-64187490D01*
X92864953Y-64160549D01*
X92861297Y-64148984D01*
X92875276Y-64148513D01*
X92901167Y-64155579D01*
X92904330Y-64156742D01*
X92930242Y-64165137D01*
X92944515Y-64167141D01*
X92945012Y-64166853D01*
X92939196Y-64157477D01*
X92918620Y-64137354D01*
X92887272Y-64109814D01*
X92849136Y-64078187D01*
X92808198Y-64045803D01*
X92768445Y-64015993D01*
X92743488Y-63998463D01*
X92698090Y-63971031D01*
X92650037Y-63947025D01*
X92614554Y-63933283D01*
X92555948Y-63915641D01*
X92603299Y-63914421D01*
X92633566Y-63917481D01*
X92678416Y-63926549D01*
X92731576Y-63939839D01*
X92786776Y-63955565D01*
X92837743Y-63971942D01*
X92878206Y-63987184D01*
X92901726Y-63999378D01*
X92913081Y-64007125D01*
X92908796Y-63999535D01*
X92903265Y-63992372D01*
X92878089Y-63970188D01*
X92834591Y-63942413D01*
X92776669Y-63910921D01*
X92708222Y-63877585D01*
X92633152Y-63844279D01*
X92555356Y-63812876D01*
X92478735Y-63785250D01*
X92457879Y-63778400D01*
X92371531Y-63750723D01*
X92379185Y-63798585D01*
X92382868Y-63827754D01*
X92380432Y-63837964D01*
X92370820Y-63833147D01*
X92370058Y-63832521D01*
X92356251Y-63811725D01*
X92346201Y-63780852D01*
X92346043Y-63780029D01*
X92340531Y-63758701D01*
X92330102Y-63745443D01*
X92308914Y-63736357D01*
X92271123Y-63727545D01*
X92265698Y-63726424D01*
X92230493Y-63721333D01*
X92177072Y-63716321D01*
X92110662Y-63711752D01*
X92036487Y-63707986D01*
X91963371Y-63705477D01*
X91870254Y-63705894D01*
X91782344Y-63706287D01*
X91772114Y-63706333D01*
X91593926Y-63719724D01*
X91421609Y-63746410D01*
X91287120Y-63776821D01*
X91240686Y-63788221D01*
X91204189Y-63796281D01*
X91182531Y-63799970D01*
X91178698Y-63799667D01*
X91189254Y-63791192D01*
X91217467Y-63778973D01*
X91258163Y-63764564D01*
X91306162Y-63749518D01*
X91356289Y-63735390D01*
X91403366Y-63723734D01*
X91442215Y-63716102D01*
X91464308Y-63713939D01*
X91494784Y-63709350D01*
X91529780Y-63698248D01*
X91531181Y-63697667D01*
X91574795Y-63687380D01*
X91632249Y-63685629D01*
X91640948Y-63686116D01*
X91678741Y-63687708D01*
X91694582Y-63685835D01*
X91689732Y-63680331D01*
X91688574Y-63679769D01*
X91678627Y-63674383D01*
X91763136Y-63674383D01*
X91778704Y-63676413D01*
X91782344Y-63676490D01*
X91802362Y-63675223D01*
X91804124Y-63671554D01*
X91803079Y-63671087D01*
X91779810Y-63668768D01*
X91767916Y-63670652D01*
X91763136Y-63674383D01*
X91678627Y-63674383D01*
X91673341Y-63671521D01*
X91679302Y-63668526D01*
X91693636Y-63667878D01*
X91718159Y-63664491D01*
X91722577Y-63663569D01*
X91854130Y-63663569D01*
X91870254Y-63665203D01*
X91886893Y-63663361D01*
X91884905Y-63659291D01*
X91860908Y-63657743D01*
X91855602Y-63659291D01*
X91854130Y-63663569D01*
X91722577Y-63663569D01*
X91757652Y-63656249D01*
X91804557Y-63644766D01*
X91816075Y-63641708D01*
X91865816Y-63629792D01*
X91899310Y-63625023D01*
X91913753Y-63627785D01*
X91913983Y-63628283D01*
X91926933Y-63635240D01*
X91947929Y-63634474D01*
X91967046Y-63628313D01*
X91964392Y-63620286D01*
X91962171Y-63618776D01*
X91954153Y-63610756D01*
X91966954Y-63608627D01*
X91984345Y-63613826D01*
X91987466Y-63619801D01*
X91996130Y-63626068D01*
X92006031Y-63624030D01*
X92017147Y-63615370D01*
X92010946Y-63608470D01*
X92010160Y-63601320D01*
X92025459Y-63594812D01*
X92049504Y-63590450D01*
X92074953Y-63589738D01*
X92089899Y-63592290D01*
X92103478Y-63595526D01*
X92096527Y-63588181D01*
X92092958Y-63585399D01*
X92085704Y-63577250D01*
X92096640Y-63576139D01*
X92116400Y-63579144D01*
X92141304Y-63582340D01*
X92145509Y-63578918D01*
X92139843Y-63574174D01*
X92128187Y-63564240D01*
X92136604Y-63561192D01*
X92139843Y-63560993D01*
X92175955Y-63557766D01*
X92211792Y-63551073D01*
X92252706Y-63539373D01*
X92304048Y-63521127D01*
X92371171Y-63494795D01*
X92374268Y-63493548D01*
X92463268Y-63457294D01*
X92537261Y-63426310D01*
X92594686Y-63401284D01*
X92633982Y-63382905D01*
X92653590Y-63371860D01*
X92655579Y-63369543D01*
X92644637Y-63368734D01*
X92612615Y-63374944D01*
X92560716Y-63387916D01*
X92528392Y-63396663D01*
X92490419Y-63405349D01*
X92474092Y-63405470D01*
X92479844Y-63398368D01*
X92508103Y-63385388D01*
X92523002Y-63379842D01*
X92598589Y-63352161D01*
X92642120Y-63334815D01*
X92708727Y-63334815D01*
X92723470Y-63334303D01*
X92725907Y-63333901D01*
X92759479Y-63329508D01*
X92779791Y-63328008D01*
X92798053Y-63319682D01*
X92815791Y-63301465D01*
X92826349Y-63281760D01*
X92825216Y-63270643D01*
X92813937Y-63273279D01*
X92789350Y-63284317D01*
X92776858Y-63290702D01*
X92734317Y-63313949D01*
X92711975Y-63328342D01*
X92708727Y-63334815D01*
X92642120Y-63334815D01*
X92656284Y-63329171D01*
X92700671Y-63308898D01*
X92736335Y-63289372D01*
X92743488Y-63284966D01*
X92790374Y-63255498D01*
X92708325Y-63263177D01*
X92661888Y-63268934D01*
X92601504Y-63278394D01*
X92536091Y-63290086D01*
X92491481Y-63298936D01*
X92423235Y-63312841D01*
X92376521Y-63321555D01*
X92350046Y-63325228D01*
X92342516Y-63324012D01*
X92352638Y-63318055D01*
X92362547Y-63313893D01*
X92425804Y-63293898D01*
X92507518Y-63276217D01*
X92602784Y-63261236D01*
X92706697Y-63249340D01*
X92814350Y-63240915D01*
X92920839Y-63236346D01*
X93021257Y-63236019D01*
X93110700Y-63240319D01*
X93183036Y-63249406D01*
X93232139Y-63258763D01*
X93275153Y-63267538D01*
X93304717Y-63274209D01*
X93309974Y-63275605D01*
X93329077Y-63278564D01*
X93334666Y-63267853D01*
X93333417Y-63250329D01*
X93327566Y-63229141D01*
X93312119Y-63214119D01*
X93281151Y-63200153D01*
X93270946Y-63196459D01*
X93241121Y-63184492D01*
X93231783Y-63177184D01*
X93239089Y-63175248D01*
X93267624Y-63179427D01*
X93302876Y-63190324D01*
X93308312Y-63192507D01*
X93337301Y-63203059D01*
X93354989Y-63202932D01*
X93371053Y-63191907D01*
X93371966Y-63191085D01*
X93398856Y-63178155D01*
X93423219Y-63187445D01*
X93440666Y-63215157D01*
X93448874Y-63231170D01*
X93462161Y-63242363D01*
X93485155Y-63250384D01*
X93522486Y-63256876D01*
X93575699Y-63263155D01*
X93633880Y-63273172D01*
X93703476Y-63290779D01*
X93776327Y-63313388D01*
X93844272Y-63338413D01*
X93899151Y-63363269D01*
X93909536Y-63368959D01*
X93962063Y-63399186D01*
X93981743Y-63374882D01*
X94000565Y-63356669D01*
X94013416Y-63350579D01*
X94027552Y-63345069D01*
X94052726Y-63332173D01*
X94320000Y-63332173D01*
X94328985Y-63341586D01*
X94343442Y-63350579D01*
X94361565Y-63358125D01*
X94366885Y-63357265D01*
X94366098Y-63356440D01*
X94378606Y-63356440D01*
X94384467Y-63362301D01*
X94390327Y-63356440D01*
X94384467Y-63350579D01*
X94378606Y-63356440D01*
X94366098Y-63356440D01*
X94357900Y-63347851D01*
X94343442Y-63338858D01*
X94325320Y-63331313D01*
X94320000Y-63332173D01*
X94052726Y-63332173D01*
X94054866Y-63331077D01*
X94067043Y-63324334D01*
X94266477Y-63324334D01*
X94277999Y-63326211D01*
X94293201Y-63324056D01*
X94293383Y-63320055D01*
X94277695Y-63317257D01*
X94270917Y-63319130D01*
X94266477Y-63324334D01*
X94067043Y-63324334D01*
X94088210Y-63312613D01*
X94219592Y-63312613D01*
X94231113Y-63314490D01*
X94246316Y-63312335D01*
X94246498Y-63308334D01*
X94230810Y-63305536D01*
X94224032Y-63307408D01*
X94219592Y-63312613D01*
X94088210Y-63312613D01*
X94088575Y-63312411D01*
X94121895Y-63292879D01*
X94148042Y-63276288D01*
X94155902Y-63270606D01*
X94150229Y-63261305D01*
X94138320Y-63248157D01*
X94130433Y-63239449D01*
X94126599Y-63235573D01*
X94099657Y-63208337D01*
X94062421Y-63172558D01*
X94004706Y-63121072D01*
X93953388Y-63082458D01*
X93900455Y-63051094D01*
X93863159Y-63032753D01*
X93828282Y-63016523D01*
X94132459Y-63016523D01*
X94138320Y-63022384D01*
X94144181Y-63016523D01*
X94138320Y-63010662D01*
X94132459Y-63016523D01*
X93828282Y-63016523D01*
X93812651Y-63009249D01*
X93764328Y-62986664D01*
X93726245Y-62968765D01*
X93716354Y-62964080D01*
X93669469Y-62941789D01*
X93749279Y-62941062D01*
X93793387Y-62942205D01*
X93817888Y-62946400D01*
X93821846Y-62952056D01*
X93825773Y-62961055D01*
X93841666Y-62964022D01*
X93867092Y-62966522D01*
X93906291Y-62972791D01*
X93944919Y-62980280D01*
X93988911Y-62987717D01*
X94018213Y-62988883D01*
X94028003Y-62985341D01*
X94039588Y-62983877D01*
X94049950Y-62992526D01*
X94072679Y-63006510D01*
X94095478Y-63010662D01*
X94116604Y-63009805D01*
X94115904Y-63004128D01*
X94101436Y-62993489D01*
X94076884Y-62979860D01*
X94039855Y-62963101D01*
X94032829Y-62960305D01*
X94012420Y-62952184D01*
X93996688Y-62947082D01*
X93978623Y-62941223D01*
X93969878Y-62938387D01*
X93939993Y-62934868D01*
X93916354Y-62940054D01*
X93885015Y-62950000D01*
X93869438Y-62950817D01*
X93872104Y-62942764D01*
X93879987Y-62936263D01*
X93891016Y-62920200D01*
X93884644Y-62908696D01*
X93866732Y-62909218D01*
X93861059Y-62912151D01*
X93852916Y-62913546D01*
X93854986Y-62908446D01*
X93849816Y-62901240D01*
X93823004Y-62899383D01*
X93806981Y-62900151D01*
X93776838Y-62901909D01*
X93768835Y-62901264D01*
X93781756Y-62897832D01*
X93792542Y-62895586D01*
X93812085Y-62891033D01*
X93816529Y-62887203D01*
X93803505Y-62882806D01*
X93770640Y-62876553D01*
X93766661Y-62875868D01*
X94132459Y-62875868D01*
X94138320Y-62881728D01*
X94144181Y-62875868D01*
X94138320Y-62870007D01*
X94132459Y-62875868D01*
X93766661Y-62875868D01*
X93751518Y-62873261D01*
X93700642Y-62864799D01*
X93650438Y-62856789D01*
X93616723Y-62851695D01*
X93549845Y-62838920D01*
X93502585Y-62826959D01*
X94050245Y-62826959D01*
X94061207Y-62837661D01*
X94088505Y-62852830D01*
X94126599Y-62871418D01*
X94097296Y-62847531D01*
X94074466Y-62830869D01*
X94064979Y-62826129D01*
X94157204Y-62826129D01*
X94159144Y-62861216D01*
X94161442Y-62870063D01*
X94163124Y-62858096D01*
X94163862Y-62827943D01*
X94163872Y-62823122D01*
X94163271Y-62790920D01*
X94161688Y-62776582D01*
X94159448Y-62782735D01*
X94159144Y-62785028D01*
X94157204Y-62826129D01*
X94064979Y-62826129D01*
X94059531Y-62823407D01*
X94059201Y-62823383D01*
X94050245Y-62826959D01*
X93502585Y-62826959D01*
X93465206Y-62817499D01*
X93464372Y-62817261D01*
X94026968Y-62817261D01*
X94032829Y-62823122D01*
X94038689Y-62817261D01*
X94032829Y-62811401D01*
X94026968Y-62817261D01*
X93464372Y-62817261D01*
X93434016Y-62808598D01*
X93985167Y-62808598D01*
X93996688Y-62810475D01*
X94011891Y-62808320D01*
X94012072Y-62804319D01*
X93996385Y-62801521D01*
X93989606Y-62803394D01*
X93985167Y-62808598D01*
X93434016Y-62808598D01*
X93420392Y-62804710D01*
X93396603Y-62794484D01*
X93393710Y-62785636D01*
X93409168Y-62779926D01*
X93440434Y-62779110D01*
X93455556Y-62780408D01*
X93494414Y-62784015D01*
X93548036Y-62788038D01*
X93607767Y-62791855D01*
X93640166Y-62793646D01*
X93696345Y-62795560D01*
X93729584Y-62794373D01*
X93740166Y-62790204D01*
X93728371Y-62783172D01*
X93694480Y-62773397D01*
X93655079Y-62764627D01*
X93852600Y-62764627D01*
X93869274Y-62771749D01*
X93893058Y-62776367D01*
X93928119Y-62778784D01*
X93978623Y-62779304D01*
X94041620Y-62778381D01*
X94089836Y-62776119D01*
X94125092Y-62771963D01*
X94142898Y-62766518D01*
X94144181Y-62764516D01*
X94132857Y-62759544D01*
X94100418Y-62755885D01*
X94049163Y-62753706D01*
X93988874Y-62753151D01*
X93920164Y-62754054D01*
X93874821Y-62756395D01*
X93852814Y-62760177D01*
X93852600Y-62764627D01*
X93655079Y-62764627D01*
X93638775Y-62760998D01*
X93561537Y-62746094D01*
X93503754Y-62735786D01*
X93416156Y-62723706D01*
X93310277Y-62714231D01*
X93191139Y-62707419D01*
X93063765Y-62703328D01*
X92933177Y-62702018D01*
X92804398Y-62703545D01*
X92682451Y-62707969D01*
X92572357Y-62715348D01*
X92491481Y-62724036D01*
X92326570Y-62750013D01*
X92257359Y-62760915D01*
X92044129Y-62806665D01*
X91946442Y-62834459D01*
X91850832Y-62861663D01*
X91676510Y-62926288D01*
X91520204Y-63000919D01*
X91380955Y-63085934D01*
X91257804Y-63181714D01*
X91202362Y-63233367D01*
X91120272Y-63322279D01*
X91055179Y-63409235D01*
X91009099Y-63491416D01*
X90997091Y-63520538D01*
X90979887Y-63563212D01*
X90969831Y-63581748D01*
X90966969Y-63587024D01*
X90959296Y-63591044D01*
X90957829Y-63574343D01*
X90959935Y-63556513D01*
X90962323Y-63529001D01*
X90958589Y-63521262D01*
X90949803Y-63530760D01*
X90937038Y-63554955D01*
X90921364Y-63591310D01*
X90903853Y-63637288D01*
X90885575Y-63690349D01*
X90867602Y-63747958D01*
X90851005Y-63807574D01*
X90846499Y-63825291D01*
X90820834Y-63962813D01*
X90807481Y-64114320D01*
X90806070Y-64274083D01*
X90776674Y-64274083D01*
X90774831Y-64190267D01*
X90783002Y-64031339D01*
X90803128Y-63885772D01*
X90803489Y-63883897D01*
X90811275Y-63843224D01*
X90817999Y-63807576D01*
X90820141Y-63795988D01*
X90836381Y-63729418D01*
X90861915Y-63650761D01*
X90893663Y-63567838D01*
X90928543Y-63488471D01*
X90928629Y-63488304D01*
X90967895Y-63488304D01*
X90969831Y-63501877D01*
X90977968Y-63493480D01*
X90979437Y-63491235D01*
X90989672Y-63473597D01*
X90986628Y-63468160D01*
X90985221Y-63468088D01*
X90979437Y-63467792D01*
X90969585Y-63477457D01*
X90967895Y-63488304D01*
X90928629Y-63488304D01*
X90948555Y-63449520D01*
X90979810Y-63449520D01*
X90985221Y-63450177D01*
X90996646Y-63437799D01*
X91010207Y-63415908D01*
X91014228Y-63404015D01*
X91008817Y-63403358D01*
X90997391Y-63415736D01*
X90983830Y-63437628D01*
X90979810Y-63449520D01*
X90948555Y-63449520D01*
X90963474Y-63420483D01*
X90976935Y-63397966D01*
X91017417Y-63334001D01*
X91015894Y-63097148D01*
X91015776Y-63006662D01*
X91016936Y-62934438D01*
X91019691Y-62875319D01*
X91024358Y-62824144D01*
X91031255Y-62775755D01*
X91037893Y-62739148D01*
X91042405Y-62711770D01*
X91940581Y-62711770D01*
X91946442Y-62717631D01*
X91952303Y-62711770D01*
X91946442Y-62705909D01*
X91940581Y-62711770D01*
X91042405Y-62711770D01*
X91048348Y-62675705D01*
X91056423Y-62608439D01*
X91060917Y-62548219D01*
X91061450Y-62526227D01*
X91062898Y-62467078D01*
X91066814Y-62403591D01*
X91072620Y-62340657D01*
X91079736Y-62283163D01*
X91087584Y-62235998D01*
X91095587Y-62204051D01*
X91100818Y-62193518D01*
X91113220Y-62187267D01*
X91135827Y-62187583D01*
X91173334Y-62194858D01*
X91202145Y-62202002D01*
X91251419Y-62214257D01*
X91314267Y-62229204D01*
X91381339Y-62244644D01*
X91424845Y-62254360D01*
X91484990Y-62267607D01*
X91543058Y-62280437D01*
X91591584Y-62291200D01*
X91618246Y-62297150D01*
X91665717Y-62309374D01*
X91725029Y-62326849D01*
X91787551Y-62346819D01*
X91844652Y-62366525D01*
X91887702Y-62383211D01*
X91887836Y-62383269D01*
X91929590Y-62399304D01*
X91984874Y-62417992D01*
X92044444Y-62436420D01*
X92099056Y-62451679D01*
X92125191Y-62458012D01*
X92156143Y-62464053D01*
X92170562Y-62462184D01*
X92174763Y-62449743D01*
X92174908Y-62442181D01*
X92204436Y-62442181D01*
X92211243Y-62526827D01*
X92233473Y-62598542D01*
X92273467Y-62663846D01*
X92292036Y-62686327D01*
X92326570Y-62725660D01*
X92429538Y-62710259D01*
X92469731Y-62705073D01*
X92525782Y-62698935D01*
X92591956Y-62692358D01*
X92662516Y-62685856D01*
X92731726Y-62679941D01*
X92793848Y-62675127D01*
X92843146Y-62671925D01*
X92870141Y-62670861D01*
X92881199Y-62660500D01*
X92896323Y-62633591D01*
X92913035Y-62596098D01*
X92928852Y-62553985D01*
X92941295Y-62513214D01*
X92947123Y-62485778D01*
X92950146Y-62427873D01*
X92944764Y-62364666D01*
X92932325Y-62306357D01*
X92918738Y-62271121D01*
X92880572Y-62217863D01*
X92824689Y-62167430D01*
X92756724Y-62124705D01*
X92740701Y-62116820D01*
X92724650Y-62109648D01*
X92880370Y-62109648D01*
X92883951Y-62115288D01*
X92895720Y-62122343D01*
X92934922Y-62156222D01*
X92971989Y-62208566D01*
X93005076Y-62274401D01*
X93032335Y-62348750D01*
X93051919Y-62426639D01*
X93061982Y-62503092D01*
X93061213Y-62568184D01*
X93054462Y-62635582D01*
X93182756Y-62635582D01*
X93252010Y-62636795D01*
X93328401Y-62640039D01*
X93399406Y-62644720D01*
X93425793Y-62647091D01*
X93469599Y-62650385D01*
X93532141Y-62653565D01*
X93608713Y-62656471D01*
X93694606Y-62658942D01*
X93785116Y-62660816D01*
X93854083Y-62661742D01*
X94167632Y-62664885D01*
X94167627Y-62522570D01*
X94167623Y-62380255D01*
X94135390Y-62372076D01*
X94111056Y-62368009D01*
X94069390Y-62363157D01*
X94016456Y-62358158D01*
X93964326Y-62354072D01*
X93909773Y-62349790D01*
X93864298Y-62345429D01*
X93832700Y-62341502D01*
X93819810Y-62338561D01*
X93827122Y-62333531D01*
X93851855Y-62326175D01*
X93882453Y-62319368D01*
X93935614Y-62308224D01*
X93993427Y-62295187D01*
X94019124Y-62289041D01*
X94064125Y-62279656D01*
X94106573Y-62273551D01*
X94127545Y-62272222D01*
X94167623Y-62272222D01*
X94167623Y-62196034D01*
X94166790Y-62157230D01*
X94164609Y-62129788D01*
X94161685Y-62119846D01*
X94141250Y-62121639D01*
X94138276Y-62121900D01*
X94099818Y-62127325D01*
X94052520Y-62135014D01*
X94002590Y-62143861D01*
X93956236Y-62152758D01*
X93919667Y-62160599D01*
X93899090Y-62166277D01*
X93897703Y-62166908D01*
X93868596Y-62176171D01*
X93847005Y-62178452D01*
X93820102Y-62181335D01*
X93780388Y-62188801D01*
X93746510Y-62196736D01*
X93700222Y-62206151D01*
X93655716Y-62211252D01*
X93631320Y-62211387D01*
X93612560Y-62209231D01*
X93606367Y-62205718D01*
X93615042Y-62199246D01*
X93640890Y-62188211D01*
X93686213Y-62171011D01*
X93692951Y-62168501D01*
X93746524Y-62147948D01*
X93812894Y-62121582D01*
X93883348Y-62092907D01*
X93944919Y-62067226D01*
X93984734Y-62050778D01*
X94050411Y-62050778D01*
X94054198Y-62054125D01*
X94073410Y-62059644D01*
X94100361Y-62065573D01*
X94127365Y-62070155D01*
X94141250Y-62071574D01*
X94161503Y-62067325D01*
X94167576Y-62047553D01*
X94167623Y-62044218D01*
X94167623Y-62015475D01*
X94111947Y-62032370D01*
X94078671Y-62042418D01*
X94055796Y-62049234D01*
X94050411Y-62050778D01*
X93984734Y-62050778D01*
X94002499Y-62043439D01*
X94055575Y-62022578D01*
X94098781Y-62006679D01*
X94126751Y-61997781D01*
X94129529Y-61997127D01*
X94156574Y-61987710D01*
X94166774Y-61971087D01*
X94167623Y-61959423D01*
X94163819Y-61938272D01*
X94150689Y-61936312D01*
X94149664Y-61936689D01*
X94128920Y-61943291D01*
X94094154Y-61953125D01*
X94064685Y-61960977D01*
X94014001Y-61975211D01*
X93957571Y-61992618D01*
X93927337Y-62002664D01*
X93843715Y-62029539D01*
X93761199Y-62051485D01*
X93675487Y-62069188D01*
X93582279Y-62083333D01*
X93477272Y-62094606D01*
X93356166Y-62103692D01*
X93259225Y-62109132D01*
X93186246Y-62113021D01*
X93116803Y-62117126D01*
X93056170Y-62121104D01*
X93009622Y-62124614D01*
X92986705Y-62126782D01*
X92945537Y-62129189D01*
X92926578Y-62124423D01*
X92925168Y-62120977D01*
X92915257Y-62111088D01*
X92898795Y-62108481D01*
X92880370Y-62109648D01*
X92724650Y-62109648D01*
X92704015Y-62100428D01*
X92674384Y-62090467D01*
X92644182Y-62085737D01*
X92605783Y-62085038D01*
X92552122Y-62087142D01*
X92462000Y-62096926D01*
X92389772Y-62118000D01*
X92331724Y-62152563D01*
X92284143Y-62202812D01*
X92244010Y-62269554D01*
X92223193Y-62314128D01*
X92211252Y-62350650D01*
X92205797Y-62389545D01*
X92204437Y-62441238D01*
X92204436Y-62442181D01*
X92174908Y-62442181D01*
X92175007Y-62437010D01*
X92180498Y-62397020D01*
X92195008Y-62345059D01*
X92215593Y-62289316D01*
X92239307Y-62237980D01*
X92257883Y-62206553D01*
X92313438Y-62146068D01*
X92385230Y-62102385D01*
X92473099Y-62075552D01*
X92576886Y-62065616D01*
X92696429Y-62072625D01*
X92704107Y-62073586D01*
X92752188Y-62078301D01*
X92812821Y-62081506D01*
X92888313Y-62083235D01*
X92980972Y-62083523D01*
X93093108Y-62082406D01*
X93184679Y-62080801D01*
X93308094Y-62077912D01*
X93412291Y-62074199D01*
X93501492Y-62069041D01*
X93579923Y-62061822D01*
X93651805Y-62051922D01*
X93721363Y-62038724D01*
X93792820Y-62021608D01*
X93870399Y-61999957D01*
X93958323Y-61973153D01*
X93991635Y-61962657D01*
X94050662Y-61944017D01*
X94101184Y-61928178D01*
X94139272Y-61916364D01*
X94160997Y-61909798D01*
X94164524Y-61908863D01*
X94165514Y-61897758D01*
X94166373Y-61866909D01*
X94167047Y-61820016D01*
X94167482Y-61760776D01*
X94167623Y-61697880D01*
X94168018Y-61618596D01*
X94169314Y-61560329D01*
X94171678Y-61520665D01*
X94175279Y-61497187D01*
X94180284Y-61487483D01*
X94182275Y-61486892D01*
X94185754Y-61491418D01*
G37*
D12*
%TO.C,C4*%
X87230000Y-68249420D02*
X87230000Y-68530580D01*
X88250000Y-68249420D02*
X88250000Y-68530580D01*
%TO.C,R7*%
X91942258Y-59327500D02*
X91467742Y-59327500D01*
X91942258Y-60372500D02*
X91467742Y-60372500D01*
%TO.C,J5*%
X85015000Y-57670000D02*
X85015000Y-60330000D01*
X87615000Y-57670000D02*
X85015000Y-57670000D01*
X87615000Y-57670000D02*
X87615000Y-60330000D01*
X87615000Y-60330000D02*
X85015000Y-60330000D01*
X88885000Y-57670000D02*
X90215000Y-57670000D01*
X90215000Y-57670000D02*
X90215000Y-59000000D01*
%TO.C,R5*%
X90977500Y-69812258D02*
X90977500Y-69337742D01*
X92022500Y-69812258D02*
X92022500Y-69337742D01*
%TO.C,D3*%
X90902500Y-59115000D02*
X93187500Y-59115000D01*
X93187500Y-57645000D02*
X90902500Y-57645000D01*
X93187500Y-59115000D02*
X93187500Y-57645000D01*
D15*
%TO.C,C1*%
X97075000Y-66700000D02*
X97075000Y-70800000D01*
X99925000Y-70200000D02*
X99925000Y-66700000D01*
D12*
%TO.C,C14*%
X87130580Y-60570000D02*
X86849420Y-60570000D01*
X87130580Y-61590000D02*
X86849420Y-61590000D01*
%TO.C,R3*%
X85717500Y-68627258D02*
X85717500Y-68152742D01*
X86762500Y-68627258D02*
X86762500Y-68152742D01*
%TO.C,R11*%
X95027258Y-57857500D02*
X94552742Y-57857500D01*
X95027258Y-58902500D02*
X94552742Y-58902500D01*
%TO.C,U1*%
X92764000Y-60915000D02*
X90564000Y-60915000D01*
X92764000Y-60915000D02*
X94964000Y-60915000D01*
X92764000Y-67685000D02*
X90564000Y-67685000D01*
X92764000Y-67685000D02*
X94964000Y-67685000D01*
X88904000Y-61375000D02*
X88574000Y-61615000D01*
X88574000Y-61135000D01*
X88904000Y-61375000D01*
G36*
X88904000Y-61375000D02*
G01*
X88574000Y-61615000D01*
X88574000Y-61135000D01*
X88904000Y-61375000D01*
G37*
%TO.C,R2*%
X93902500Y-69812258D02*
X93902500Y-69337742D01*
X94947500Y-69812258D02*
X94947500Y-69337742D01*
%TO.C,J3*%
X85020000Y-57630000D02*
X85020000Y-56300000D01*
X86350000Y-57630000D02*
X85020000Y-57630000D01*
X87620000Y-54970000D02*
X100380000Y-54970000D01*
X87620000Y-57630000D02*
X87620000Y-54970000D01*
X87620000Y-57630000D02*
X100380000Y-57630000D01*
X100380000Y-57630000D02*
X100380000Y-54970000D01*
%TO.C,J2*%
X85170000Y-72270000D02*
X85170000Y-74930000D01*
X90310000Y-72270000D02*
X85170000Y-72270000D01*
X90310000Y-72270000D02*
X90310000Y-74930000D01*
X90310000Y-74930000D02*
X85170000Y-74930000D01*
X91580000Y-72270000D02*
X92910000Y-72270000D01*
X92910000Y-72270000D02*
X92910000Y-73600000D01*
%TO.C,C3*%
X92440000Y-69434420D02*
X92440000Y-69715580D01*
X93460000Y-69434420D02*
X93460000Y-69715580D01*
%TO.C,C6*%
X97190000Y-63234420D02*
X97190000Y-63515580D01*
X98210000Y-63234420D02*
X98210000Y-63515580D01*
%TO.C,C5*%
X86849420Y-70105000D02*
X87130580Y-70105000D01*
X86849420Y-71125000D02*
X87130580Y-71125000D01*
%TO.C,J1*%
X95155000Y-72270000D02*
X95155000Y-74930000D01*
X97755000Y-72270000D02*
X95155000Y-72270000D01*
X97755000Y-72270000D02*
X97755000Y-74930000D01*
X97755000Y-74930000D02*
X95155000Y-74930000D01*
X99025000Y-72270000D02*
X100355000Y-72270000D01*
X100355000Y-72270000D02*
X100355000Y-73600000D01*
%TD*%
M02*
