M48
; DRILL file {KiCad 8.0.3} date 2024-11-10T00:39:21+0800
; FORMAT={-:-/ absolute / inch / decimal}
; #@! TF.CreationDate,2024-11-10T00:39:21+08:00
; #@! TF.GenerationSoftware,Kicad,Pcbnew,8.0.3
; #@! TF.FileFunction,Plated,1,2,PTH
FMAT,2
INCH
; #@! TA.AperFunction,Plated,PTH,ViaDrill
T1C0.0098
; #@! TA.AperFunction,Plated,PTH,ViaDrill
T2C0.0118
; #@! TA.AperFunction,Plated,PTH,ComponentDrill
T3C0.0394
%
G90
G05
T1
X3.4063Y-2.5787
X3.4256Y-2.5787
X3.4433Y-2.5392
X3.5049Y-2.5961
X3.5059Y-2.5425
X3.5143Y-2.6902
X3.5154Y-2.7476
X3.5744Y-2.7488
X3.5776Y-2.6467
X3.5815Y-2.6074
X3.6362Y-2.7756
X3.6366Y-2.5169
X3.6366Y-2.5346
X3.6366Y-2.5524
X3.6598Y-2.7535
X3.6663Y-2.6511
X3.687Y-2.7492
X3.6878Y-2.5252
X3.7074Y-2.512
X3.7075Y-2.5383
X3.7276Y-2.4931
X3.7276Y-2.4675
X3.7476Y-2.3902
X3.7638Y-2.3681
X3.7661Y-2.7941
X3.7823Y-2.7941
X3.7984Y-2.7941
X3.8031Y-2.3197
X3.8146Y-2.6814
X3.8146Y-2.7941
X3.8228Y-2.5209
X3.8602Y-2.747
X3.8602Y-2.7608
X3.8602Y-2.7746
X3.9059Y-2.6173
X3.9059Y-2.6335
X3.9104Y-2.5504
X3.9248Y-2.4425
T2
X3.808Y-2.5531
T3
X3.3994Y-2.3228
X3.3996Y-2.2165
X3.4055Y-2.8976
X3.4994Y-2.3228
X3.4996Y-2.2165
X3.5055Y-2.8976
X3.5996Y-2.2165
X3.6055Y-2.8976
X3.6996Y-2.2165
X3.7986Y-2.8976
X3.7996Y-2.2165
X3.8986Y-2.8976
X3.8996Y-2.2165
M30
