G04 EasyEDA Pro v1.9.28, 2023-01-14 19:19:00*
G04 Gerber Generator version 0.3*%TF.GenerationSoftware,KiCad,Pcbnew,8.0.3*%
%TF.CreationDate,2024-11-10T00:39:19+08:00*%
%TF.ProjectId,NekoPurrTech_TiltingCtrl,4e656b6f-5075-4727-9254-6563685f5469,rev?*%
%TF.SameCoordinates,Original*%
%TF.FileFunction,Soldermask,Top*%
%TF.FilePolarity,Negative*%
%FSLAX46Y46*%
G04 Gerber Fmt 4.6, Leading zero omitted, Abs format (unit mm)*
G04 Created by KiCad (PCBNEW 8.0.3) date 2024-11-10 00:39:19*
%MOMM*%
%LPD*%
G01*
G04 APERTURE LIST*
G04 Aperture macros list*
%AMRoundRect*
0 Rectangle with rounded corners*
0 $1 Rounding radius*
0 $2 $3 $4 $5 $6 $7 $8 $9 X,Y pos of 4 corners*
0 Add a 4 corners polygon primitive as box body*
4,1,4,$2,$3,$4,$5,$6,$7,$8,$9,$2,$3,0*
0 Add four circle primitives for the rounded corners*
1,1,$1+$1,$2,$3*
1,1,$1+$1,$4,$5*
1,1,$1+$1,$6,$7*
1,1,$1+$1,$8,$9*
0 Add four rect primitives between the rounded corners*
20,1,$1+$1,$2,$3,$4,$5,0*
20,1,$1+$1,$4,$5,$6,$7,0*
20,1,$1+$1,$6,$7,$8,$9,0*
20,1,$1+$1,$8,$9,$2,$3,0*%
G04 Aperture macros list end*
%ADD10R,2.100000X0.400000*%
%ADD11RoundRect,0.200000X0.200000X0.275000X-0.200000X0.275000X-0.200000X-0.275000X0.200000X-0.275000X0*%
%ADD12RoundRect,0.225000X-0.250000X0.225000X-0.250000X-0.225000X0.250000X-0.225000X0.250000X0.225000X0*%
%ADD13RoundRect,0.250000X0.250000X-0.250000X0.250000X0.250000X-0.250000X0.250000X-0.250000X-0.250000X0*%
%ADD14R,1.700000X1.700000*%
%ADD15O,1.700000X1.700000*%
%ADD16RoundRect,0.200000X0.275000X-0.200000X0.275000X0.200000X-0.275000X0.200000X-0.275000X-0.200000X0*%
%ADD17RoundRect,0.218750X0.218750X0.256250X-0.218750X0.256250X-0.218750X-0.256250X0.218750X-0.256250X0*%
%ADD18R,2.300000X1.800000*%
%ADD19RoundRect,0.225000X0.225000X0.250000X-0.225000X0.250000X-0.225000X-0.250000X0.225000X-0.250000X0*%
%ADD20RoundRect,0.100000X-0.637500X-0.100000X0.637500X-0.100000X0.637500X0.100000X-0.637500X0.100000X0*%
%ADD21RoundRect,0.225000X-0.225000X-0.250000X0.225000X-0.250000X0.225000X0.250000X-0.225000X0.250000X0*%
G04 APERTURE END LIST*
D10*
%TO.C,R6*%
X86610000Y-66270000D03*
X86610000Y-65070000D03*
X86610000Y-63870000D03*
%TD*%
D11*
%TO.C,R12*%
X87815000Y-62540000D03*
X86165000Y-62540000D03*
%TD*%
D12*
%TO.C,C8*%
X90050000Y-68800000D03*
X90050000Y-70350000D03*
%TD*%
D13*
%TO.C,J4*%
X99690000Y-64440000D03*
X99690000Y-63240000D03*
X99690000Y-62040000D03*
X99690000Y-60840000D03*
X99690000Y-59640000D03*
X99690000Y-58440000D03*
%TD*%
D12*
%TO.C,C4*%
X87740000Y-67615000D03*
X87740000Y-69165000D03*
%TD*%
D11*
%TO.C,R7*%
X92530000Y-59850000D03*
X90880000Y-59850000D03*
%TD*%
D14*
%TO.C,J5*%
X88885000Y-59000000D03*
D15*
X86345000Y-59000000D03*
%TD*%
D16*
%TO.C,R5*%
X91500000Y-70400000D03*
X91500000Y-68750000D03*
%TD*%
D17*
%TO.C,D3*%
X92490000Y-58380000D03*
X90915000Y-58380000D03*
%TD*%
D18*
%TO.C,C1*%
X98500000Y-69900000D03*
X98500000Y-67000000D03*
%TD*%
D19*
%TO.C,C14*%
X87765000Y-61080000D03*
X86215000Y-61080000D03*
%TD*%
D16*
%TO.C,R3*%
X86240000Y-69215000D03*
X86240000Y-67565000D03*
%TD*%
D11*
%TO.C,R11*%
X95615000Y-58380000D03*
X93965000Y-58380000D03*
%TD*%
D20*
%TO.C,U1*%
X89901500Y-61375000D03*
X89901500Y-62025000D03*
X89901500Y-62675000D03*
X89901500Y-63325000D03*
X89901500Y-63975000D03*
X89901500Y-64625000D03*
X89901500Y-65275000D03*
X89901500Y-65925000D03*
X89901500Y-66575000D03*
X89901500Y-67225000D03*
X95626500Y-67225000D03*
X95626500Y-66575000D03*
X95626500Y-65925000D03*
X95626500Y-65275000D03*
X95626500Y-64625000D03*
X95626500Y-63975000D03*
X95626500Y-63325000D03*
X95626500Y-62675000D03*
X95626500Y-62025000D03*
X95626500Y-61375000D03*
%TD*%
D16*
%TO.C,R2*%
X94425000Y-70400000D03*
X94425000Y-68750000D03*
%TD*%
D14*
%TO.C,J3*%
X86350000Y-56300000D03*
D15*
X88890000Y-56300000D03*
X91430000Y-56300000D03*
X93970000Y-56300000D03*
X96510000Y-56300000D03*
X99050000Y-56300000D03*
%TD*%
D14*
%TO.C,J2*%
X91580000Y-73600000D03*
D15*
X89040000Y-73600000D03*
X86500000Y-73600000D03*
%TD*%
D12*
%TO.C,C3*%
X92950000Y-68800000D03*
X92950000Y-70350000D03*
%TD*%
%TO.C,C6*%
X97700000Y-62600000D03*
X97700000Y-64150000D03*
%TD*%
D21*
%TO.C,C5*%
X86215000Y-70615000D03*
X87765000Y-70615000D03*
%TD*%
D14*
%TO.C,J1*%
X99025000Y-73600000D03*
D15*
X96485000Y-73600000D03*
%TD*%
M02*
