G04 EasyEDA Pro v1.9.28, 2023-01-14 19:19:00*
G04 Gerber Generator version 0.3*%TF.GenerationSoftware,KiCad,Pcbnew,8.0.3*%
%TF.CreationDate,2024-11-10T00:39:19+08:00*%
%TF.ProjectId,NekoPurrTech_TiltingCtrl,4e656b6f-5075-4727-9254-6563685f5469,rev?*%
%TF.SameCoordinates,Original*%
%TF.FileFunction,Legend,Bot*%
%TF.FilePolarity,Positive*%
%FSLAX46Y46*%
G04 Gerber Fmt 4.6, Leading zero omitted, Abs format (unit mm)*
G04 Created by KiCad (PCBNEW 8.0.3) date 2024-11-10 00:39:19*
%MOMM*%
%LPD*%
G01*
G04 APERTURE LIST*
%ADD10C,0.125000*%
%ADD11C,0.250000*%
%ADD12C,0.200000*%
%ADD13C,0.120000*%
G04 APERTURE END LIST*
D10*
G36*
X87382215Y-68460113D02*
G01*
X87390163Y-68473827D01*
X87393099Y-68562062D01*
X87390411Y-68568384D01*
X87323908Y-68569491D01*
X87321042Y-68483358D01*
X87330186Y-68461852D01*
X87344590Y-68453505D01*
X87363687Y-68452235D01*
X87382215Y-68460113D01*
G37*
G36*
X87191159Y-67848103D02*
G01*
X87189071Y-67847215D01*
X87181045Y-67833367D01*
X87178453Y-67768443D01*
X87187329Y-67747567D01*
X87200832Y-67739742D01*
X87210868Y-67739519D01*
X87191159Y-67848103D01*
G37*
G36*
X87393564Y-67370494D02*
G01*
X87381816Y-67398122D01*
X87371457Y-67410346D01*
X87346095Y-67425044D01*
X87304271Y-67427131D01*
X87279278Y-67416504D01*
X87268891Y-67407701D01*
X87252863Y-67366340D01*
X87250235Y-67261077D01*
X87391107Y-67259798D01*
X87393564Y-67370494D01*
G37*
G36*
X87131540Y-67346963D02*
G01*
X87119911Y-67374313D01*
X87109553Y-67386536D01*
X87083835Y-67401441D01*
X87064738Y-67402711D01*
X87041186Y-67392696D01*
X87028959Y-67382336D01*
X87014547Y-67357467D01*
X87012194Y-67263239D01*
X87129424Y-67262174D01*
X87131540Y-67346963D01*
G37*
G36*
X87624928Y-70369142D02*
G01*
X86803658Y-70369142D01*
X86803658Y-70053993D01*
X86866158Y-70053993D01*
X86881285Y-70099374D01*
X86924069Y-70120766D01*
X86948264Y-70117717D01*
X87224321Y-70022038D01*
X87225690Y-70117990D01*
X87095058Y-70119730D01*
X87061234Y-70153554D01*
X87061234Y-70201390D01*
X87095058Y-70235214D01*
X87118976Y-70239972D01*
X87227410Y-70238527D01*
X87227900Y-70272818D01*
X87261724Y-70306642D01*
X87309560Y-70306642D01*
X87343384Y-70272818D01*
X87348142Y-70248900D01*
X87347971Y-70236922D01*
X87476227Y-70235214D01*
X87510051Y-70201390D01*
X87510051Y-70153554D01*
X87476227Y-70119730D01*
X87452309Y-70114972D01*
X87346251Y-70116384D01*
X87343904Y-69951968D01*
X87347985Y-69943808D01*
X87343600Y-69930655D01*
X87343384Y-69915459D01*
X87336111Y-69908186D01*
X87332858Y-69898427D01*
X87319845Y-69891920D01*
X87309560Y-69881635D01*
X87299275Y-69881635D01*
X87290073Y-69877034D01*
X87265878Y-69880084D01*
X86887550Y-70011209D01*
X86866158Y-70053993D01*
X86803658Y-70053993D01*
X86803658Y-69749007D01*
X87346947Y-69749007D01*
X87346948Y-69749008D01*
X87346948Y-69749009D01*
X87346950Y-69749011D01*
X87360496Y-69769285D01*
X87404583Y-69806643D01*
X87404584Y-69806644D01*
X87452418Y-69806643D01*
X87472695Y-69793094D01*
X87510046Y-69749013D01*
X87510051Y-69749009D01*
X87510051Y-69749008D01*
X87510052Y-69749007D01*
X87510051Y-69701172D01*
X87510046Y-69701167D01*
X87496503Y-69680897D01*
X87452430Y-69643551D01*
X87452419Y-69643540D01*
X87404584Y-69643539D01*
X87384307Y-69657087D01*
X87346948Y-69701173D01*
X87346947Y-69749007D01*
X86803658Y-69749007D01*
X86803658Y-69380077D01*
X86890997Y-69380077D01*
X86894567Y-69385431D01*
X86894567Y-69391867D01*
X86907437Y-69404737D01*
X86917532Y-69419879D01*
X86923840Y-69421140D01*
X86928391Y-69425691D01*
X86952309Y-69430449D01*
X87392903Y-69426447D01*
X87394567Y-69534724D01*
X87428391Y-69568548D01*
X87476227Y-69568548D01*
X87510051Y-69534724D01*
X87514809Y-69510806D01*
X87510051Y-69201174D01*
X87496473Y-69187596D01*
X87523846Y-69187596D01*
X87557670Y-69153772D01*
X87562428Y-69129854D01*
X87557670Y-68724984D01*
X87523846Y-68691160D01*
X87476010Y-68691160D01*
X87442186Y-68724984D01*
X87437428Y-68748902D01*
X87442186Y-69153772D01*
X87455764Y-69167350D01*
X87428391Y-69167350D01*
X87394567Y-69201174D01*
X87389809Y-69225092D01*
X87391052Y-69306005D01*
X87121209Y-69308455D01*
X87127259Y-69300661D01*
X87128862Y-69296891D01*
X87129099Y-69296628D01*
X87129099Y-69296333D01*
X87157508Y-69229522D01*
X87142381Y-69184142D01*
X87099595Y-69162750D01*
X87054216Y-69177877D01*
X87039264Y-69197142D01*
X87024813Y-69231124D01*
X86992618Y-69266861D01*
X86989070Y-69268327D01*
X86931831Y-69310175D01*
X86928391Y-69310207D01*
X86919150Y-69319447D01*
X86900379Y-69333172D01*
X86899117Y-69339480D01*
X86894567Y-69344031D01*
X86894567Y-69362228D01*
X86890997Y-69380077D01*
X86803658Y-69380077D01*
X86803658Y-68463187D01*
X87056476Y-68463187D01*
X87060046Y-68552613D01*
X87056633Y-68562855D01*
X87061108Y-68579197D01*
X87061234Y-68582343D01*
X87062247Y-68583356D01*
X87063074Y-68586375D01*
X87092002Y-68636291D01*
X87095569Y-68646993D01*
X87100357Y-68650709D01*
X87101835Y-68653259D01*
X87105003Y-68654315D01*
X87114834Y-68661945D01*
X87160071Y-68681181D01*
X87166486Y-68687596D01*
X87182776Y-68690836D01*
X87185973Y-68692196D01*
X87187332Y-68691742D01*
X87190404Y-68692354D01*
X87232506Y-68691653D01*
X87233592Y-68692196D01*
X87235363Y-68691605D01*
X87416845Y-68688584D01*
X87424070Y-68692197D01*
X87435856Y-68688268D01*
X87476227Y-68687596D01*
X87510051Y-68653772D01*
X87510051Y-68606153D01*
X87513291Y-68589861D01*
X87514651Y-68586665D01*
X87514198Y-68585306D01*
X87514809Y-68582235D01*
X87511058Y-68469534D01*
X87514651Y-68458757D01*
X87510152Y-68442328D01*
X87510051Y-68439269D01*
X87509037Y-68438255D01*
X87508211Y-68435236D01*
X87479281Y-68385317D01*
X87475715Y-68374617D01*
X87470927Y-68370901D01*
X87469450Y-68368352D01*
X87466281Y-68367295D01*
X87456450Y-68359666D01*
X87411210Y-68340429D01*
X87404798Y-68334017D01*
X87388508Y-68330776D01*
X87385309Y-68329416D01*
X87383948Y-68329869D01*
X87380880Y-68329259D01*
X87337093Y-68332171D01*
X87328831Y-68329417D01*
X87312892Y-68333780D01*
X87309343Y-68334017D01*
X87308329Y-68335030D01*
X87305310Y-68335857D01*
X87255390Y-68364786D01*
X87244692Y-68368353D01*
X87240976Y-68373139D01*
X87238426Y-68374618D01*
X87237369Y-68377787D01*
X87229740Y-68387618D01*
X87210503Y-68432856D01*
X87204091Y-68439269D01*
X87200850Y-68455556D01*
X87199490Y-68458757D01*
X87199943Y-68460117D01*
X87199333Y-68463187D01*
X87202623Y-68562063D01*
X87200751Y-68566467D01*
X87189071Y-68561500D01*
X87181045Y-68547652D01*
X87178453Y-68482728D01*
X87205127Y-68419998D01*
X87190000Y-68374618D01*
X87147214Y-68353226D01*
X87101835Y-68368353D01*
X87086883Y-68387618D01*
X87067646Y-68432856D01*
X87061234Y-68439269D01*
X87057993Y-68455556D01*
X87056633Y-68458757D01*
X87057086Y-68460117D01*
X87056476Y-68463187D01*
X86803658Y-68463187D01*
X86803658Y-68105936D01*
X86894567Y-68105936D01*
X86894567Y-68153772D01*
X86928391Y-68187596D01*
X86952309Y-68192354D01*
X87059423Y-68191227D01*
X87061234Y-68272820D01*
X87095058Y-68306644D01*
X87142894Y-68306644D01*
X87176718Y-68272820D01*
X87181476Y-68248902D01*
X87180167Y-68189958D01*
X87358403Y-68188083D01*
X87382215Y-68198209D01*
X87390562Y-68212612D01*
X87394567Y-68272820D01*
X87428391Y-68306644D01*
X87476227Y-68306644D01*
X87510051Y-68272820D01*
X87514809Y-68248902D01*
X87511896Y-68205115D01*
X87514651Y-68196853D01*
X87510287Y-68180914D01*
X87510051Y-68177365D01*
X87509037Y-68176351D01*
X87508211Y-68173332D01*
X87479282Y-68123415D01*
X87475716Y-68112715D01*
X87470928Y-68108998D01*
X87469450Y-68106448D01*
X87466280Y-68105391D01*
X87456451Y-68097762D01*
X87411211Y-68078525D01*
X87404798Y-68072112D01*
X87388506Y-68068871D01*
X87385310Y-68067512D01*
X87383951Y-68067964D01*
X87380880Y-68067354D01*
X87177494Y-68069492D01*
X87176718Y-68034508D01*
X87142894Y-68000684D01*
X87095058Y-68000684D01*
X87061234Y-68034508D01*
X87056476Y-68058426D01*
X87056749Y-68070762D01*
X86928391Y-68072112D01*
X86894567Y-68105936D01*
X86803658Y-68105936D01*
X86803658Y-67748902D01*
X87056476Y-67748902D01*
X87060046Y-67838328D01*
X87056633Y-67848570D01*
X87061108Y-67864912D01*
X87061234Y-67868058D01*
X87062247Y-67869071D01*
X87063074Y-67872090D01*
X87092002Y-67922006D01*
X87095569Y-67932708D01*
X87100357Y-67936424D01*
X87101835Y-67938974D01*
X87105003Y-67940030D01*
X87114834Y-67947660D01*
X87160071Y-67966896D01*
X87166486Y-67973311D01*
X87182776Y-67976551D01*
X87185973Y-67977911D01*
X87187332Y-67977457D01*
X87190404Y-67978069D01*
X87239702Y-67974790D01*
X87250152Y-67976880D01*
X87254792Y-67973786D01*
X87261941Y-67973311D01*
X87274810Y-67960441D01*
X87289953Y-67950347D01*
X87293540Y-67941711D01*
X87295765Y-67939487D01*
X87295765Y-67936356D01*
X87299309Y-67927826D01*
X87333985Y-67736787D01*
X87359615Y-67736218D01*
X87382215Y-67745828D01*
X87390239Y-67759673D01*
X87392831Y-67824598D01*
X87366157Y-67887329D01*
X87381284Y-67932709D01*
X87424070Y-67954102D01*
X87469450Y-67938975D01*
X87484402Y-67919709D01*
X87503637Y-67874471D01*
X87510051Y-67868058D01*
X87513291Y-67851766D01*
X87514651Y-67848570D01*
X87514198Y-67847211D01*
X87514809Y-67844140D01*
X87511238Y-67754710D01*
X87514651Y-67744472D01*
X87510176Y-67728130D01*
X87510051Y-67724984D01*
X87509037Y-67723970D01*
X87508211Y-67720951D01*
X87479281Y-67671032D01*
X87475715Y-67660332D01*
X87470927Y-67656616D01*
X87469450Y-67654067D01*
X87466281Y-67653010D01*
X87456450Y-67645381D01*
X87411210Y-67626144D01*
X87404798Y-67619732D01*
X87388508Y-67616491D01*
X87385309Y-67615131D01*
X87383948Y-67615584D01*
X87380880Y-67614974D01*
X87278885Y-67617237D01*
X87273513Y-67616163D01*
X87271660Y-67617397D01*
X87197695Y-67619039D01*
X87185974Y-67615132D01*
X87169410Y-67619667D01*
X87166486Y-67619732D01*
X87165472Y-67620745D01*
X87162453Y-67621572D01*
X87112533Y-67650501D01*
X87101835Y-67654068D01*
X87098119Y-67658854D01*
X87095569Y-67660333D01*
X87094512Y-67663502D01*
X87086883Y-67673333D01*
X87067646Y-67718571D01*
X87061234Y-67724984D01*
X87057993Y-67741271D01*
X87056633Y-67744472D01*
X87057086Y-67745832D01*
X87056476Y-67748902D01*
X86803658Y-67748902D01*
X86803658Y-67201283D01*
X86889809Y-67201283D01*
X86893793Y-67360899D01*
X86889967Y-67372381D01*
X86894493Y-67388908D01*
X86894567Y-67391868D01*
X86895581Y-67392882D01*
X86896408Y-67395901D01*
X86918377Y-67433808D01*
X86918377Y-67439486D01*
X86931925Y-67459763D01*
X86934859Y-67462249D01*
X86935170Y-67462785D01*
X86935699Y-67462961D01*
X86951341Y-67476216D01*
X86952712Y-67480327D01*
X86971977Y-67495279D01*
X86975713Y-67496867D01*
X86976011Y-67497120D01*
X86976306Y-67497120D01*
X87017214Y-67514515D01*
X87023629Y-67520930D01*
X87039919Y-67524170D01*
X87043116Y-67525530D01*
X87044475Y-67525076D01*
X87047547Y-67525688D01*
X87091333Y-67522775D01*
X87099597Y-67525530D01*
X87115531Y-67521166D01*
X87119084Y-67520930D01*
X87120098Y-67519915D01*
X87123117Y-67519089D01*
X87161023Y-67497120D01*
X87166701Y-67497121D01*
X87177496Y-67489907D01*
X87189436Y-67500025D01*
X87190807Y-67504138D01*
X87210073Y-67519090D01*
X87213807Y-67520677D01*
X87214105Y-67520930D01*
X87214400Y-67520930D01*
X87255310Y-67538325D01*
X87261724Y-67544739D01*
X87278015Y-67547979D01*
X87281212Y-67549339D01*
X87282570Y-67548886D01*
X87285642Y-67549497D01*
X87352033Y-67546183D01*
X87361501Y-67549340D01*
X87377703Y-67544902D01*
X87380989Y-67544739D01*
X87382002Y-67543725D01*
X87385021Y-67542899D01*
X87422930Y-67520930D01*
X87428607Y-67520930D01*
X87448884Y-67507382D01*
X87451370Y-67504447D01*
X87451905Y-67504138D01*
X87452081Y-67503608D01*
X87465337Y-67487964D01*
X87469450Y-67486594D01*
X87484402Y-67467328D01*
X87485990Y-67463591D01*
X87486242Y-67463295D01*
X87486242Y-67463000D01*
X87503637Y-67422090D01*
X87510051Y-67415677D01*
X87513291Y-67399385D01*
X87514651Y-67396189D01*
X87514198Y-67394830D01*
X87514809Y-67391759D01*
X87510051Y-67177365D01*
X87476227Y-67143541D01*
X87452309Y-67138783D01*
X86928391Y-67143541D01*
X86894567Y-67177365D01*
X86889809Y-67201283D01*
X86803658Y-67201283D01*
X86803658Y-67076283D01*
X87624928Y-67076283D01*
X87624928Y-70369142D01*
G37*
G36*
X85446187Y-71180008D02*
G01*
X85444099Y-71179120D01*
X85436073Y-71165272D01*
X85433481Y-71100348D01*
X85442357Y-71079472D01*
X85455860Y-71071647D01*
X85465896Y-71071424D01*
X85446187Y-71180008D01*
G37*
G36*
X85410497Y-69250019D02*
G01*
X85398750Y-69277643D01*
X85388388Y-69289871D01*
X85363028Y-69304568D01*
X85321204Y-69306655D01*
X85296211Y-69296028D01*
X85283988Y-69285670D01*
X85269605Y-69260852D01*
X85266984Y-69142765D01*
X85408088Y-69141483D01*
X85410497Y-69250019D01*
G37*
G36*
X86423433Y-69175107D02*
G01*
X86435659Y-69185468D01*
X86450239Y-69210625D01*
X86452831Y-69275550D01*
X86450219Y-69281692D01*
X86241033Y-69284014D01*
X86238453Y-69219395D01*
X86249467Y-69193491D01*
X86259828Y-69181265D01*
X86284762Y-69166815D01*
X86396437Y-69163629D01*
X86423433Y-69175107D01*
G37*
G36*
X85618461Y-68675108D02*
G01*
X85630687Y-68685469D01*
X85645384Y-68710829D01*
X85647471Y-68752653D01*
X85636844Y-68777646D01*
X85626485Y-68789870D01*
X85601549Y-68804321D01*
X85489875Y-68807507D01*
X85462878Y-68796028D01*
X85450654Y-68785669D01*
X85435956Y-68760307D01*
X85433869Y-68718484D01*
X85444495Y-68693492D01*
X85454856Y-68681266D01*
X85479790Y-68666816D01*
X85591465Y-68663630D01*
X85618461Y-68675108D01*
G37*
G36*
X85446187Y-67941913D02*
G01*
X85444099Y-67941025D01*
X85436073Y-67927177D01*
X85433481Y-67862253D01*
X85442357Y-67841377D01*
X85455860Y-67833552D01*
X85465896Y-67833329D01*
X85446187Y-67941913D01*
G37*
G36*
X86803976Y-72229616D02*
G01*
X85082337Y-72229616D01*
X85082337Y-71866412D01*
X85149595Y-71866412D01*
X85149595Y-71914248D01*
X85183419Y-71948072D01*
X85207337Y-71952830D01*
X85313471Y-71951866D01*
X85313021Y-71954128D01*
X85311661Y-71957329D01*
X85312114Y-71958689D01*
X85311504Y-71961759D01*
X85314817Y-72028149D01*
X85311661Y-72037617D01*
X85316098Y-72053819D01*
X85316262Y-72057105D01*
X85317275Y-72058118D01*
X85318102Y-72061137D01*
X85347030Y-72111053D01*
X85350597Y-72121755D01*
X85355385Y-72125471D01*
X85356863Y-72128021D01*
X85360031Y-72129077D01*
X85369862Y-72136707D01*
X85415099Y-72155943D01*
X85421514Y-72162358D01*
X85437804Y-72165598D01*
X85441001Y-72166958D01*
X85442360Y-72166504D01*
X85445432Y-72167116D01*
X85731255Y-72162358D01*
X85765079Y-72128534D01*
X85765079Y-72080698D01*
X85731255Y-72046874D01*
X85707337Y-72042116D01*
X85467262Y-72046112D01*
X85444099Y-72036262D01*
X85435956Y-72022211D01*
X85433869Y-71980388D01*
X85444495Y-71955396D01*
X85448526Y-71950639D01*
X85731255Y-71948072D01*
X85765079Y-71914248D01*
X85765079Y-71866412D01*
X85731255Y-71832588D01*
X85707337Y-71827830D01*
X85183419Y-71832588D01*
X85149595Y-71866412D01*
X85082337Y-71866412D01*
X85082337Y-71533188D01*
X85311504Y-71533188D01*
X85315074Y-71622614D01*
X85311661Y-71632856D01*
X85316136Y-71649198D01*
X85316262Y-71652344D01*
X85317275Y-71653357D01*
X85318102Y-71656376D01*
X85356863Y-71723260D01*
X85402242Y-71738387D01*
X85445028Y-71716995D01*
X85460155Y-71671615D01*
X85453715Y-71648094D01*
X85436073Y-71617653D01*
X85433481Y-71552729D01*
X85444495Y-71526825D01*
X85454856Y-71514599D01*
X85479790Y-71500149D01*
X85591465Y-71496963D01*
X85618461Y-71508441D01*
X85630687Y-71518802D01*
X85645267Y-71543959D01*
X85647859Y-71608884D01*
X85621185Y-71671615D01*
X85636312Y-71716995D01*
X85679098Y-71738388D01*
X85724478Y-71723261D01*
X85739430Y-71703995D01*
X85758665Y-71658757D01*
X85765079Y-71652344D01*
X85768319Y-71636052D01*
X85769679Y-71632856D01*
X85769226Y-71631497D01*
X85769837Y-71628426D01*
X85766266Y-71538996D01*
X85769679Y-71528758D01*
X85765204Y-71512416D01*
X85765079Y-71509270D01*
X85764065Y-71508256D01*
X85763239Y-71505237D01*
X85741270Y-71467328D01*
X85741270Y-71461652D01*
X85727722Y-71441375D01*
X85724789Y-71438889D01*
X85724478Y-71438353D01*
X85723946Y-71438175D01*
X85708303Y-71424920D01*
X85706933Y-71420809D01*
X85687668Y-71405857D01*
X85683931Y-71404268D01*
X85683635Y-71404017D01*
X85683341Y-71404017D01*
X85642429Y-71386620D01*
X85636017Y-71380208D01*
X85619729Y-71376967D01*
X85616529Y-71375607D01*
X85615168Y-71376060D01*
X85612099Y-71375450D01*
X85475987Y-71379333D01*
X85464812Y-71375608D01*
X85448323Y-71380122D01*
X85445324Y-71380208D01*
X85444310Y-71381221D01*
X85441291Y-71382048D01*
X85403382Y-71404017D01*
X85397706Y-71404017D01*
X85377429Y-71417565D01*
X85374943Y-71420497D01*
X85374407Y-71420809D01*
X85374229Y-71421340D01*
X85360974Y-71436983D01*
X85356863Y-71438354D01*
X85341911Y-71457619D01*
X85340322Y-71461355D01*
X85340071Y-71461652D01*
X85340071Y-71461946D01*
X85322674Y-71502857D01*
X85316262Y-71509270D01*
X85313021Y-71525557D01*
X85311661Y-71528758D01*
X85312114Y-71530118D01*
X85311504Y-71533188D01*
X85082337Y-71533188D01*
X85082337Y-71080807D01*
X85311504Y-71080807D01*
X85315074Y-71170233D01*
X85311661Y-71180475D01*
X85316136Y-71196817D01*
X85316262Y-71199963D01*
X85317275Y-71200976D01*
X85318102Y-71203995D01*
X85347030Y-71253911D01*
X85350597Y-71264613D01*
X85355385Y-71268329D01*
X85356863Y-71270879D01*
X85360031Y-71271935D01*
X85369862Y-71279565D01*
X85415099Y-71298801D01*
X85421514Y-71305216D01*
X85437804Y-71308456D01*
X85441001Y-71309816D01*
X85442360Y-71309362D01*
X85445432Y-71309974D01*
X85494730Y-71306695D01*
X85505180Y-71308785D01*
X85509820Y-71305691D01*
X85516969Y-71305216D01*
X85529838Y-71292346D01*
X85544981Y-71282252D01*
X85548568Y-71273616D01*
X85550793Y-71271392D01*
X85550793Y-71268261D01*
X85554337Y-71259731D01*
X85589013Y-71068692D01*
X85614643Y-71068123D01*
X85637243Y-71077733D01*
X85645267Y-71091578D01*
X85647859Y-71156503D01*
X85621185Y-71219234D01*
X85636312Y-71264614D01*
X85679098Y-71286007D01*
X85724478Y-71270880D01*
X85739430Y-71251614D01*
X85758665Y-71206376D01*
X85765079Y-71199963D01*
X85768319Y-71183671D01*
X85769679Y-71180475D01*
X85769226Y-71179116D01*
X85769837Y-71176045D01*
X85766266Y-71086615D01*
X85769679Y-71076377D01*
X85765204Y-71060035D01*
X85765079Y-71056889D01*
X85764065Y-71055875D01*
X85763239Y-71052856D01*
X85734309Y-71002937D01*
X85730743Y-70992237D01*
X85725955Y-70988521D01*
X85724478Y-70985972D01*
X85721309Y-70984915D01*
X85711478Y-70977286D01*
X85666238Y-70958049D01*
X85659826Y-70951637D01*
X85643536Y-70948396D01*
X85640337Y-70947036D01*
X85638976Y-70947489D01*
X85635908Y-70946879D01*
X85533913Y-70949142D01*
X85528541Y-70948068D01*
X85526688Y-70949302D01*
X85452723Y-70950944D01*
X85441002Y-70947037D01*
X85424438Y-70951572D01*
X85421514Y-70951637D01*
X85420500Y-70952650D01*
X85417481Y-70953477D01*
X85367561Y-70982406D01*
X85356863Y-70985973D01*
X85353147Y-70990759D01*
X85350597Y-70992238D01*
X85349540Y-70995407D01*
X85341911Y-71005238D01*
X85322674Y-71050476D01*
X85316262Y-71056889D01*
X85313021Y-71073176D01*
X85311661Y-71076377D01*
X85312114Y-71077737D01*
X85311504Y-71080807D01*
X85082337Y-71080807D01*
X85082337Y-70580808D01*
X85144837Y-70580808D01*
X85149595Y-70890440D01*
X85183419Y-70924264D01*
X85231255Y-70924264D01*
X85265079Y-70890440D01*
X85269837Y-70866522D01*
X85268593Y-70785608D01*
X85731255Y-70781407D01*
X85765079Y-70747583D01*
X85765079Y-70699747D01*
X85731255Y-70665923D01*
X85707337Y-70661165D01*
X85266742Y-70665166D01*
X85266542Y-70652126D01*
X85954567Y-70652126D01*
X85954567Y-70699962D01*
X85988391Y-70733786D01*
X86012309Y-70738544D01*
X86418403Y-70734273D01*
X86442215Y-70744399D01*
X86471359Y-70794688D01*
X86516738Y-70809815D01*
X86559524Y-70788423D01*
X86574651Y-70743043D01*
X86568211Y-70719522D01*
X86539282Y-70669605D01*
X86535716Y-70658905D01*
X86530928Y-70655188D01*
X86529450Y-70652638D01*
X86526280Y-70651581D01*
X86516451Y-70643952D01*
X86471211Y-70624715D01*
X86464798Y-70618302D01*
X86448506Y-70615061D01*
X86445310Y-70613702D01*
X86443951Y-70614154D01*
X86440880Y-70613544D01*
X85988391Y-70618302D01*
X85954567Y-70652126D01*
X85266542Y-70652126D01*
X85265079Y-70556890D01*
X85231255Y-70523066D01*
X85183419Y-70523066D01*
X85149595Y-70556890D01*
X85144837Y-70580808D01*
X85082337Y-70580808D01*
X85082337Y-70437950D01*
X85311504Y-70437950D01*
X85316262Y-70509487D01*
X85350086Y-70543311D01*
X85397922Y-70543311D01*
X85431746Y-70509487D01*
X85436504Y-70485569D01*
X85434920Y-70461758D01*
X86116476Y-70461758D01*
X86121234Y-70533295D01*
X86155058Y-70567119D01*
X86202894Y-70567119D01*
X86236718Y-70533295D01*
X86241476Y-70509377D01*
X86239452Y-70478950D01*
X86249467Y-70455395D01*
X86259828Y-70443169D01*
X86286719Y-70427585D01*
X86536227Y-70424262D01*
X86570051Y-70390438D01*
X86570051Y-70342602D01*
X86536227Y-70308778D01*
X86512309Y-70304020D01*
X86278645Y-70307132D01*
X86269783Y-70304178D01*
X86257989Y-70307407D01*
X86155058Y-70308778D01*
X86121234Y-70342602D01*
X86121234Y-70390438D01*
X86137962Y-70407166D01*
X86127646Y-70431427D01*
X86121234Y-70437840D01*
X86117993Y-70454127D01*
X86116633Y-70457328D01*
X86117086Y-70458688D01*
X86116476Y-70461758D01*
X85434920Y-70461758D01*
X85434480Y-70455142D01*
X85444495Y-70431587D01*
X85454856Y-70419361D01*
X85481747Y-70403777D01*
X85731255Y-70400454D01*
X85765079Y-70366630D01*
X85765079Y-70318794D01*
X85731255Y-70284970D01*
X85707337Y-70280212D01*
X85473673Y-70283324D01*
X85464811Y-70280370D01*
X85453017Y-70283599D01*
X85350086Y-70284970D01*
X85316262Y-70318794D01*
X85316262Y-70366630D01*
X85332990Y-70383358D01*
X85322674Y-70407619D01*
X85316262Y-70414032D01*
X85313021Y-70430319D01*
X85311661Y-70433520D01*
X85312114Y-70434880D01*
X85311504Y-70437950D01*
X85082337Y-70437950D01*
X85082337Y-70128426D01*
X85311504Y-70128426D01*
X85316262Y-70199963D01*
X85350086Y-70233787D01*
X85397922Y-70233787D01*
X85431746Y-70199963D01*
X85436504Y-70176045D01*
X85434480Y-70145618D01*
X85444495Y-70122063D01*
X85454856Y-70109837D01*
X85481747Y-70094253D01*
X85731255Y-70090930D01*
X85765079Y-70057106D01*
X85765079Y-70056888D01*
X85954567Y-70056888D01*
X85954567Y-70104724D01*
X85988391Y-70138548D01*
X86012309Y-70143306D01*
X86119423Y-70142179D01*
X86121234Y-70223772D01*
X86155058Y-70257596D01*
X86202894Y-70257596D01*
X86236718Y-70223772D01*
X86241476Y-70199854D01*
X86240167Y-70140910D01*
X86418403Y-70139035D01*
X86442215Y-70149161D01*
X86450562Y-70163564D01*
X86454567Y-70223772D01*
X86488391Y-70257596D01*
X86536227Y-70257596D01*
X86570051Y-70223772D01*
X86574809Y-70199854D01*
X86571896Y-70156067D01*
X86574651Y-70147805D01*
X86570287Y-70131866D01*
X86570051Y-70128317D01*
X86569037Y-70127303D01*
X86568211Y-70124284D01*
X86539282Y-70074367D01*
X86535716Y-70063667D01*
X86530928Y-70059950D01*
X86529450Y-70057400D01*
X86526280Y-70056343D01*
X86516451Y-70048714D01*
X86471211Y-70029477D01*
X86464798Y-70023064D01*
X86448506Y-70019823D01*
X86445310Y-70018464D01*
X86443951Y-70018916D01*
X86440880Y-70018306D01*
X86237494Y-70020444D01*
X86236718Y-69985460D01*
X86202894Y-69951636D01*
X86155058Y-69951636D01*
X86121234Y-69985460D01*
X86116476Y-70009378D01*
X86116749Y-70021714D01*
X85988391Y-70023064D01*
X85954567Y-70056888D01*
X85765079Y-70056888D01*
X85765079Y-70009270D01*
X85731255Y-69975446D01*
X85707337Y-69970688D01*
X85473673Y-69973800D01*
X85464811Y-69970846D01*
X85453017Y-69974075D01*
X85350086Y-69975446D01*
X85316262Y-70009270D01*
X85316262Y-70057106D01*
X85332990Y-70073834D01*
X85322674Y-70098095D01*
X85316262Y-70104508D01*
X85313021Y-70120795D01*
X85311661Y-70123996D01*
X85312114Y-70125356D01*
X85311504Y-70128426D01*
X85082337Y-70128426D01*
X85082337Y-69556889D01*
X85316262Y-69556889D01*
X85316262Y-69604725D01*
X85350086Y-69638549D01*
X85374004Y-69643307D01*
X85614075Y-69639310D01*
X85637243Y-69649162D01*
X85645384Y-69663210D01*
X85647471Y-69705034D01*
X85636844Y-69730027D01*
X85633840Y-69733571D01*
X85350086Y-69737351D01*
X85316262Y-69771175D01*
X85316262Y-69819011D01*
X85350086Y-69852835D01*
X85374004Y-69857593D01*
X85731255Y-69852835D01*
X85765079Y-69819011D01*
X85765079Y-69771175D01*
X85755453Y-69761549D01*
X85758665Y-69753995D01*
X85765079Y-69747582D01*
X85768319Y-69731290D01*
X85769679Y-69728094D01*
X85769226Y-69726735D01*
X85769837Y-69723664D01*
X85769837Y-69723663D01*
X85949809Y-69723663D01*
X85950077Y-69727699D01*
X85949967Y-69728093D01*
X85950124Y-69728408D01*
X85952362Y-69762059D01*
X85949967Y-69766851D01*
X85953016Y-69791046D01*
X85954554Y-69795017D01*
X85954567Y-69795200D01*
X85954662Y-69795295D01*
X85978377Y-69856495D01*
X85978377Y-69866628D01*
X85987724Y-69880618D01*
X85988904Y-69883662D01*
X85990186Y-69884303D01*
X85991925Y-69886905D01*
X86036011Y-69924262D01*
X86083845Y-69924262D01*
X86117670Y-69890437D01*
X86117670Y-69842603D01*
X86104122Y-69822326D01*
X86090795Y-69811033D01*
X86074688Y-69769465D01*
X86072697Y-69739529D01*
X86086837Y-69689186D01*
X86113733Y-69659332D01*
X86144431Y-69641541D01*
X86146515Y-69641440D01*
X86223690Y-69618919D01*
X86226595Y-69619497D01*
X86281061Y-69616778D01*
X86282865Y-69617631D01*
X86362054Y-69634180D01*
X86365310Y-69636707D01*
X86399289Y-69651156D01*
X86432843Y-69681384D01*
X86449929Y-69725478D01*
X86451920Y-69755416D01*
X86437589Y-69806443D01*
X86406948Y-69842602D01*
X86406947Y-69890436D01*
X86440772Y-69924262D01*
X86488606Y-69924263D01*
X86508883Y-69910715D01*
X86528936Y-69887050D01*
X86535716Y-69883661D01*
X86543745Y-69869574D01*
X86546242Y-69866629D01*
X86546242Y-69865195D01*
X86547793Y-69862475D01*
X86565375Y-69799875D01*
X86570051Y-69795200D01*
X86574809Y-69771282D01*
X86574540Y-69767246D01*
X86574652Y-69766850D01*
X86574493Y-69766532D01*
X86572255Y-69732888D01*
X86574652Y-69728095D01*
X86571602Y-69703899D01*
X86570063Y-69699927D01*
X86570051Y-69699745D01*
X86569955Y-69699649D01*
X86546242Y-69638450D01*
X86546242Y-69628317D01*
X86536894Y-69614327D01*
X86535716Y-69611285D01*
X86534433Y-69610643D01*
X86532694Y-69608040D01*
X86490094Y-69569663D01*
X86488096Y-69563667D01*
X86468831Y-69548715D01*
X86465063Y-69547112D01*
X86464797Y-69546873D01*
X86464499Y-69546873D01*
X86431929Y-69533023D01*
X86430469Y-69530589D01*
X86408419Y-69520172D01*
X86325536Y-69502850D01*
X86321941Y-69499255D01*
X86298023Y-69494497D01*
X86239525Y-69497416D01*
X86235795Y-69495178D01*
X86211437Y-69496363D01*
X86131021Y-69519829D01*
X86126926Y-69518464D01*
X86103406Y-69524904D01*
X86065498Y-69546874D01*
X86059821Y-69546874D01*
X86039544Y-69560422D01*
X86036728Y-69563547D01*
X86036522Y-69563667D01*
X86036464Y-69563840D01*
X85997672Y-69606899D01*
X85988904Y-69611284D01*
X85980599Y-69625851D01*
X85978377Y-69628318D01*
X85978377Y-69629749D01*
X85976826Y-69632470D01*
X85959242Y-69695069D01*
X85954567Y-69699745D01*
X85949809Y-69723663D01*
X85769837Y-69723663D01*
X85766523Y-69657271D01*
X85769679Y-69647806D01*
X85765242Y-69631604D01*
X85765079Y-69628318D01*
X85764065Y-69627304D01*
X85763239Y-69624285D01*
X85734310Y-69574368D01*
X85730744Y-69563668D01*
X85725956Y-69559951D01*
X85724478Y-69557401D01*
X85721308Y-69556344D01*
X85711479Y-69548715D01*
X85666239Y-69529478D01*
X85659826Y-69523065D01*
X85643534Y-69519824D01*
X85640338Y-69518465D01*
X85638979Y-69518917D01*
X85635908Y-69518307D01*
X85350086Y-69523065D01*
X85316262Y-69556889D01*
X85082337Y-69556889D01*
X85082337Y-69080807D01*
X85144837Y-69080807D01*
X85148902Y-69263991D01*
X85144995Y-69275714D01*
X85149530Y-69292274D01*
X85149595Y-69295201D01*
X85150609Y-69296215D01*
X85151436Y-69299234D01*
X85173404Y-69337140D01*
X85173404Y-69342818D01*
X85186952Y-69363095D01*
X85189887Y-69365582D01*
X85190198Y-69366118D01*
X85190727Y-69366294D01*
X85206369Y-69379549D01*
X85207740Y-69383662D01*
X85227006Y-69398614D01*
X85230740Y-69400201D01*
X85231038Y-69400454D01*
X85231333Y-69400454D01*
X85272243Y-69417849D01*
X85278657Y-69424263D01*
X85294948Y-69427503D01*
X85298145Y-69428863D01*
X85299503Y-69428410D01*
X85302575Y-69429021D01*
X85368966Y-69425707D01*
X85378434Y-69428864D01*
X85394636Y-69424426D01*
X85397922Y-69424263D01*
X85398935Y-69423249D01*
X85401954Y-69422423D01*
X85439862Y-69400454D01*
X85445541Y-69400454D01*
X85465818Y-69386905D01*
X85468303Y-69383971D01*
X85468838Y-69383662D01*
X85469014Y-69383132D01*
X85482270Y-69367487D01*
X85486381Y-69366118D01*
X85501333Y-69346853D01*
X85502921Y-69343116D01*
X85503175Y-69342818D01*
X85503174Y-69342521D01*
X85520569Y-69301615D01*
X85526984Y-69295201D01*
X85530224Y-69278910D01*
X85531584Y-69275714D01*
X85531130Y-69274354D01*
X85531742Y-69271283D01*
X85530157Y-69199854D01*
X86116476Y-69199854D01*
X86120046Y-69289280D01*
X86116633Y-69299522D01*
X86121108Y-69315864D01*
X86121234Y-69319009D01*
X86121234Y-69366629D01*
X86155058Y-69400453D01*
X86178976Y-69405211D01*
X86206762Y-69404902D01*
X86207214Y-69405053D01*
X86207531Y-69404894D01*
X86477751Y-69401894D01*
X86484070Y-69405054D01*
X86494091Y-69401713D01*
X86575441Y-69400810D01*
X86588169Y-69405053D01*
X86604852Y-69400484D01*
X86607656Y-69400453D01*
X86608670Y-69399438D01*
X86611689Y-69398612D01*
X86649597Y-69376643D01*
X86655274Y-69376643D01*
X86675551Y-69363095D01*
X86678037Y-69360160D01*
X86678573Y-69359850D01*
X86678749Y-69359320D01*
X86692004Y-69343678D01*
X86696115Y-69342308D01*
X86711067Y-69323043D01*
X86712655Y-69319306D01*
X86712908Y-69319009D01*
X86712908Y-69318713D01*
X86730303Y-69277805D01*
X86736718Y-69271391D01*
X86739958Y-69255100D01*
X86741318Y-69251904D01*
X86740864Y-69250544D01*
X86741476Y-69247473D01*
X86738162Y-69181078D01*
X86741318Y-69171613D01*
X86736881Y-69155411D01*
X86736718Y-69152126D01*
X86735704Y-69151112D01*
X86734878Y-69148093D01*
X86696115Y-69081209D01*
X86650735Y-69066083D01*
X86607950Y-69087476D01*
X86592824Y-69132856D01*
X86599265Y-69156376D01*
X86617023Y-69187018D01*
X86619110Y-69228844D01*
X86608484Y-69253833D01*
X86598124Y-69266060D01*
X86574203Y-69279923D01*
X86571238Y-69205662D01*
X86574651Y-69195424D01*
X86570176Y-69179082D01*
X86570051Y-69175936D01*
X86569037Y-69174922D01*
X86568211Y-69171903D01*
X86546242Y-69133994D01*
X86546242Y-69128318D01*
X86532694Y-69108041D01*
X86529761Y-69105555D01*
X86529450Y-69105019D01*
X86528918Y-69104841D01*
X86513275Y-69091586D01*
X86511905Y-69087475D01*
X86492640Y-69072523D01*
X86488903Y-69070934D01*
X86488607Y-69070683D01*
X86488313Y-69070683D01*
X86447401Y-69053286D01*
X86440989Y-69046874D01*
X86424701Y-69043633D01*
X86421501Y-69042273D01*
X86420140Y-69042726D01*
X86417071Y-69042116D01*
X86280959Y-69045999D01*
X86269784Y-69042274D01*
X86253295Y-69046788D01*
X86250296Y-69046874D01*
X86249282Y-69047887D01*
X86246263Y-69048714D01*
X86208354Y-69070683D01*
X86202678Y-69070683D01*
X86182401Y-69084231D01*
X86179915Y-69087163D01*
X86179379Y-69087475D01*
X86179201Y-69088006D01*
X86165946Y-69103649D01*
X86161835Y-69105020D01*
X86146883Y-69124285D01*
X86145294Y-69128021D01*
X86145043Y-69128318D01*
X86145043Y-69128612D01*
X86127646Y-69169523D01*
X86121234Y-69175936D01*
X86117993Y-69192223D01*
X86116633Y-69195424D01*
X86117086Y-69196784D01*
X86116476Y-69199854D01*
X85530157Y-69199854D01*
X85528837Y-69140387D01*
X85731255Y-69138549D01*
X85765079Y-69104725D01*
X85765079Y-69056889D01*
X85731255Y-69023065D01*
X85707337Y-69018307D01*
X85183419Y-69023065D01*
X85149595Y-69056889D01*
X85144837Y-69080807D01*
X85082337Y-69080807D01*
X85082337Y-68699855D01*
X85311504Y-68699855D01*
X85314817Y-68766245D01*
X85311661Y-68775713D01*
X85316098Y-68791915D01*
X85316262Y-68795201D01*
X85317275Y-68796214D01*
X85318102Y-68799233D01*
X85340071Y-68837141D01*
X85340071Y-68842819D01*
X85353619Y-68863096D01*
X85356553Y-68865582D01*
X85356863Y-68866117D01*
X85357392Y-68866293D01*
X85373036Y-68879549D01*
X85374407Y-68883662D01*
X85393673Y-68898614D01*
X85397409Y-68900202D01*
X85397706Y-68900454D01*
X85398000Y-68900454D01*
X85438910Y-68917849D01*
X85445324Y-68924263D01*
X85461615Y-68927503D01*
X85464812Y-68928863D01*
X85466170Y-68928410D01*
X85469242Y-68929021D01*
X85605350Y-68925137D01*
X85616529Y-68928864D01*
X85633017Y-68924348D01*
X85636017Y-68924263D01*
X85637030Y-68923249D01*
X85640049Y-68922423D01*
X85677958Y-68900454D01*
X85683635Y-68900454D01*
X85703912Y-68886906D01*
X85706398Y-68883971D01*
X85706933Y-68883662D01*
X85707109Y-68883132D01*
X85720365Y-68867488D01*
X85724478Y-68866118D01*
X85739430Y-68846852D01*
X85741018Y-68843115D01*
X85741270Y-68842819D01*
X85741270Y-68842524D01*
X85758665Y-68801614D01*
X85765079Y-68795201D01*
X85768319Y-68778909D01*
X85769679Y-68775713D01*
X85769226Y-68774354D01*
X85769837Y-68771283D01*
X85768649Y-68747473D01*
X86116476Y-68747473D01*
X86119789Y-68813863D01*
X86116633Y-68823331D01*
X86121070Y-68839533D01*
X86121234Y-68842819D01*
X86122247Y-68843832D01*
X86123074Y-68846851D01*
X86152002Y-68896767D01*
X86155569Y-68907469D01*
X86160357Y-68911185D01*
X86161835Y-68913735D01*
X86165003Y-68914791D01*
X86174834Y-68922421D01*
X86220071Y-68941657D01*
X86226486Y-68948072D01*
X86242776Y-68951312D01*
X86245973Y-68952672D01*
X86247332Y-68952218D01*
X86250404Y-68952830D01*
X86536227Y-68948072D01*
X86570051Y-68914248D01*
X86570051Y-68866412D01*
X86536227Y-68832588D01*
X86512309Y-68827830D01*
X86272234Y-68831826D01*
X86249071Y-68821976D01*
X86240928Y-68807925D01*
X86238841Y-68766102D01*
X86249467Y-68741110D01*
X86252472Y-68737565D01*
X86536227Y-68733786D01*
X86570051Y-68699962D01*
X86570051Y-68652126D01*
X86536227Y-68618302D01*
X86512309Y-68613544D01*
X86155058Y-68618302D01*
X86121234Y-68652126D01*
X86121234Y-68699962D01*
X86130859Y-68709587D01*
X86127646Y-68717142D01*
X86121234Y-68723555D01*
X86117993Y-68739842D01*
X86116633Y-68743043D01*
X86117086Y-68744403D01*
X86116476Y-68747473D01*
X85768649Y-68747473D01*
X85766523Y-68704890D01*
X85769679Y-68695425D01*
X85765242Y-68679223D01*
X85765079Y-68675937D01*
X85764065Y-68674923D01*
X85763239Y-68671904D01*
X85741270Y-68633995D01*
X85741270Y-68628319D01*
X85727722Y-68608042D01*
X85724789Y-68605556D01*
X85724478Y-68605020D01*
X85723946Y-68604842D01*
X85708303Y-68591587D01*
X85706933Y-68587476D01*
X85687668Y-68572524D01*
X85683931Y-68570935D01*
X85683635Y-68570684D01*
X85683341Y-68570684D01*
X85642429Y-68553287D01*
X85636017Y-68546875D01*
X85619729Y-68543634D01*
X85616529Y-68542274D01*
X85615168Y-68542727D01*
X85612099Y-68542117D01*
X85475987Y-68546000D01*
X85464812Y-68542275D01*
X85448323Y-68546789D01*
X85445324Y-68546875D01*
X85444310Y-68547888D01*
X85441291Y-68548715D01*
X85403382Y-68570684D01*
X85397706Y-68570684D01*
X85377429Y-68584232D01*
X85374943Y-68587164D01*
X85374407Y-68587476D01*
X85374229Y-68588007D01*
X85360974Y-68603650D01*
X85356863Y-68605021D01*
X85341911Y-68624286D01*
X85340322Y-68628022D01*
X85340071Y-68628319D01*
X85340071Y-68628613D01*
X85322674Y-68669524D01*
X85316262Y-68675937D01*
X85313021Y-68692224D01*
X85311661Y-68695425D01*
X85312114Y-68696785D01*
X85311504Y-68699855D01*
X85082337Y-68699855D01*
X85082337Y-68199746D01*
X85149595Y-68199746D01*
X85149595Y-68247582D01*
X85183419Y-68281406D01*
X85207337Y-68286164D01*
X85418858Y-68284243D01*
X85316262Y-68390223D01*
X85316262Y-68438057D01*
X85350087Y-68471882D01*
X85397921Y-68471882D01*
X85418198Y-68458334D01*
X85521453Y-68351673D01*
X85691826Y-68474684D01*
X85739180Y-68467920D01*
X85743721Y-68461865D01*
X85954566Y-68461865D01*
X85954567Y-68461866D01*
X85954567Y-68461867D01*
X85954569Y-68461869D01*
X85968115Y-68482143D01*
X86012202Y-68519501D01*
X86012203Y-68519502D01*
X86060037Y-68519501D01*
X86080314Y-68505952D01*
X86117665Y-68461871D01*
X86117670Y-68461867D01*
X86117670Y-68461866D01*
X86117671Y-68461865D01*
X86117670Y-68414031D01*
X86121234Y-68414031D01*
X86121234Y-68461867D01*
X86155058Y-68495691D01*
X86178976Y-68500449D01*
X86536227Y-68495691D01*
X86570051Y-68461867D01*
X86570051Y-68414031D01*
X86536227Y-68380207D01*
X86512309Y-68375449D01*
X86155058Y-68380207D01*
X86121234Y-68414031D01*
X86117670Y-68414031D01*
X86117670Y-68414030D01*
X86117665Y-68414025D01*
X86104122Y-68393755D01*
X86060049Y-68356409D01*
X86060038Y-68356398D01*
X86012203Y-68356397D01*
X85991926Y-68369945D01*
X85954567Y-68414031D01*
X85954566Y-68461865D01*
X85743721Y-68461865D01*
X85767881Y-68429651D01*
X85761117Y-68382297D01*
X85744837Y-68364140D01*
X85631502Y-68282311D01*
X85731255Y-68281406D01*
X85765079Y-68247582D01*
X85765079Y-68199746D01*
X85731255Y-68165922D01*
X85707337Y-68161164D01*
X85183419Y-68165922D01*
X85149595Y-68199746D01*
X85082337Y-68199746D01*
X85082337Y-68128317D01*
X85954567Y-68128317D01*
X85954567Y-68176153D01*
X85988391Y-68209977D01*
X86012309Y-68214735D01*
X86119423Y-68213608D01*
X86121234Y-68295201D01*
X86155058Y-68329025D01*
X86202894Y-68329025D01*
X86236718Y-68295201D01*
X86241476Y-68271283D01*
X86240167Y-68212339D01*
X86418403Y-68210464D01*
X86442215Y-68220590D01*
X86450562Y-68234993D01*
X86454567Y-68295201D01*
X86488391Y-68329025D01*
X86536227Y-68329025D01*
X86570051Y-68295201D01*
X86574809Y-68271283D01*
X86571896Y-68227496D01*
X86574651Y-68219234D01*
X86570287Y-68203295D01*
X86570051Y-68199746D01*
X86569037Y-68198732D01*
X86568211Y-68195713D01*
X86539282Y-68145796D01*
X86535716Y-68135096D01*
X86530928Y-68131379D01*
X86529450Y-68128829D01*
X86526280Y-68127772D01*
X86516451Y-68120143D01*
X86471211Y-68100906D01*
X86464798Y-68094493D01*
X86448506Y-68091252D01*
X86445310Y-68089893D01*
X86443951Y-68090345D01*
X86440880Y-68089735D01*
X86237494Y-68091873D01*
X86236718Y-68056889D01*
X86202894Y-68023065D01*
X86155058Y-68023065D01*
X86121234Y-68056889D01*
X86116476Y-68080807D01*
X86116749Y-68093143D01*
X85988391Y-68094493D01*
X85954567Y-68128317D01*
X85082337Y-68128317D01*
X85082337Y-67842712D01*
X85311504Y-67842712D01*
X85315074Y-67932138D01*
X85311661Y-67942380D01*
X85316136Y-67958722D01*
X85316262Y-67961868D01*
X85317275Y-67962881D01*
X85318102Y-67965900D01*
X85347030Y-68015816D01*
X85350597Y-68026518D01*
X85355385Y-68030234D01*
X85356863Y-68032784D01*
X85360031Y-68033840D01*
X85369862Y-68041470D01*
X85415099Y-68060706D01*
X85421514Y-68067121D01*
X85437804Y-68070361D01*
X85441001Y-68071721D01*
X85442360Y-68071267D01*
X85445432Y-68071879D01*
X85494730Y-68068600D01*
X85505180Y-68070690D01*
X85509820Y-68067596D01*
X85516969Y-68067121D01*
X85529838Y-68054251D01*
X85544981Y-68044157D01*
X85548568Y-68035521D01*
X85550793Y-68033297D01*
X85550793Y-68030166D01*
X85554337Y-68021636D01*
X85589013Y-67830597D01*
X85614643Y-67830028D01*
X85637243Y-67839638D01*
X85645267Y-67853483D01*
X85647859Y-67918408D01*
X85621185Y-67981139D01*
X85636312Y-68026519D01*
X85679098Y-68047912D01*
X85724478Y-68032785D01*
X85739430Y-68013519D01*
X85758665Y-67968281D01*
X85765079Y-67961868D01*
X85768319Y-67945576D01*
X85769679Y-67942380D01*
X85769226Y-67941021D01*
X85769837Y-67937950D01*
X85766980Y-67866412D01*
X85954567Y-67866412D01*
X85954567Y-67914248D01*
X85988391Y-67948072D01*
X86012309Y-67952830D01*
X86418403Y-67948559D01*
X86442215Y-67958685D01*
X86471359Y-68008974D01*
X86516738Y-68024101D01*
X86559524Y-68002709D01*
X86574651Y-67957329D01*
X86568211Y-67933808D01*
X86539282Y-67883891D01*
X86535716Y-67873191D01*
X86530928Y-67869474D01*
X86529450Y-67866924D01*
X86526280Y-67865867D01*
X86516451Y-67858238D01*
X86471211Y-67839001D01*
X86464798Y-67832588D01*
X86448506Y-67829347D01*
X86445310Y-67827988D01*
X86443951Y-67828440D01*
X86440880Y-67827830D01*
X85988391Y-67832588D01*
X85954567Y-67866412D01*
X85766980Y-67866412D01*
X85766266Y-67848520D01*
X85769679Y-67838282D01*
X85765204Y-67821940D01*
X85765079Y-67818794D01*
X85764065Y-67817780D01*
X85763239Y-67814761D01*
X85734309Y-67764842D01*
X85730743Y-67754142D01*
X85725955Y-67750426D01*
X85724478Y-67747877D01*
X85721309Y-67746820D01*
X85711478Y-67739191D01*
X85666238Y-67719954D01*
X85659826Y-67713542D01*
X85643536Y-67710301D01*
X85640337Y-67708941D01*
X85638976Y-67709394D01*
X85635908Y-67708784D01*
X85533913Y-67711047D01*
X85528541Y-67709973D01*
X85526688Y-67711207D01*
X85452723Y-67712849D01*
X85441002Y-67708942D01*
X85424438Y-67713477D01*
X85421514Y-67713542D01*
X85420500Y-67714555D01*
X85417481Y-67715382D01*
X85367561Y-67744311D01*
X85356863Y-67747878D01*
X85353147Y-67752664D01*
X85350597Y-67754143D01*
X85349540Y-67757312D01*
X85341911Y-67767143D01*
X85322674Y-67812381D01*
X85316262Y-67818794D01*
X85313021Y-67835081D01*
X85311661Y-67838282D01*
X85312114Y-67839642D01*
X85311504Y-67842712D01*
X85082337Y-67842712D01*
X85082337Y-67676151D01*
X85954566Y-67676151D01*
X85954567Y-67676152D01*
X85954567Y-67676153D01*
X85954569Y-67676155D01*
X85968115Y-67696429D01*
X86012202Y-67733787D01*
X86012203Y-67733788D01*
X86060037Y-67733787D01*
X86080314Y-67720238D01*
X86117665Y-67676157D01*
X86117670Y-67676153D01*
X86117670Y-67676152D01*
X86117671Y-67676151D01*
X86117670Y-67628317D01*
X86121234Y-67628317D01*
X86121234Y-67676153D01*
X86155058Y-67709977D01*
X86178976Y-67714735D01*
X86536227Y-67709977D01*
X86570051Y-67676153D01*
X86570051Y-67628317D01*
X86536227Y-67594493D01*
X86512309Y-67589735D01*
X86155058Y-67594493D01*
X86121234Y-67628317D01*
X86117670Y-67628317D01*
X86117670Y-67628316D01*
X86117665Y-67628311D01*
X86104122Y-67608041D01*
X86060049Y-67570695D01*
X86060038Y-67570684D01*
X86012203Y-67570683D01*
X85991926Y-67584231D01*
X85954567Y-67628317D01*
X85954566Y-67676151D01*
X85082337Y-67676151D01*
X85082337Y-67263402D01*
X85145336Y-67263402D01*
X85149595Y-67279018D01*
X85149595Y-67295201D01*
X85155663Y-67301269D01*
X85157922Y-67309550D01*
X85176328Y-67325548D01*
X85481171Y-67496550D01*
X85183419Y-67499255D01*
X85149595Y-67533079D01*
X85149595Y-67580915D01*
X85183419Y-67614739D01*
X85207337Y-67619497D01*
X85692490Y-67615091D01*
X85699455Y-67618998D01*
X85714512Y-67614891D01*
X85731255Y-67614739D01*
X85737324Y-67608669D01*
X85745604Y-67606411D01*
X85753631Y-67592362D01*
X85765079Y-67580915D01*
X85765079Y-67572329D01*
X85769337Y-67564878D01*
X85765079Y-67549265D01*
X85765079Y-67533079D01*
X85759009Y-67527009D01*
X85756751Y-67518729D01*
X85738345Y-67502732D01*
X85433501Y-67331729D01*
X85731255Y-67329025D01*
X85765079Y-67295201D01*
X85765079Y-67247365D01*
X85731255Y-67213541D01*
X85707337Y-67208783D01*
X85222182Y-67213188D01*
X85215218Y-67209282D01*
X85200159Y-67213388D01*
X85183419Y-67213541D01*
X85177350Y-67219609D01*
X85169070Y-67221868D01*
X85161040Y-67235919D01*
X85149595Y-67247365D01*
X85149595Y-67255948D01*
X85145336Y-67263402D01*
X85082337Y-67263402D01*
X85082337Y-67199855D01*
X85949809Y-67199855D01*
X85954567Y-67509487D01*
X85988391Y-67543311D01*
X86036227Y-67543311D01*
X86070051Y-67509487D01*
X86074809Y-67485569D01*
X86073565Y-67404655D01*
X86536227Y-67400454D01*
X86570051Y-67366630D01*
X86570051Y-67318794D01*
X86536227Y-67284970D01*
X86512309Y-67280212D01*
X86071714Y-67284213D01*
X86070051Y-67175937D01*
X86036227Y-67142113D01*
X85988391Y-67142113D01*
X85954567Y-67175937D01*
X85949809Y-67199855D01*
X85082337Y-67199855D01*
X85082337Y-67079613D01*
X86803976Y-67079613D01*
X86803976Y-72229616D01*
G37*
D11*
%TO.C,IC3*%
X96925000Y-60362500D02*
G75*
G02*
X96675000Y-60362500I-125000J0D01*
G01*
X96675000Y-60362500D02*
G75*
G02*
X96925000Y-60362500I125000J0D01*
G01*
D12*
%TO.C,IC2*%
X94655000Y-66575000D02*
X94655000Y-68100000D01*
D11*
%TO.C,IC1*%
X96930000Y-66463000D02*
G75*
G02*
X96680000Y-66463000I-125000J0D01*
G01*
X96680000Y-66463000D02*
G75*
G02*
X96930000Y-66463000I125000J0D01*
G01*
D12*
%TO.C,C12*%
X85975000Y-62275000D02*
X85975000Y-66375000D01*
X88825000Y-66375000D02*
X88825000Y-62875000D01*
D13*
%TO.C,C10*%
X98090580Y-64990000D02*
X97809420Y-64990000D01*
X98090580Y-66010000D02*
X97809420Y-66010000D01*
%TO.C,R4*%
X90977500Y-69587742D02*
X90977500Y-70062258D01*
X92022500Y-69587742D02*
X92022500Y-70062258D01*
%TO.C,C9*%
X97809420Y-69640000D02*
X98090580Y-69640000D01*
X97809420Y-70660000D02*
X98090580Y-70660000D01*
%TO.C,D2*%
X95340000Y-59337500D02*
X95340000Y-61622500D01*
X95340000Y-61622500D02*
X96810000Y-61622500D01*
X96810000Y-61622500D02*
X96810000Y-59337500D01*
%TO.C,R1*%
X93902500Y-69587742D02*
X93902500Y-70062258D01*
X94947500Y-69587742D02*
X94947500Y-70062258D01*
%TO.C,C7*%
X89540000Y-69965580D02*
X89540000Y-69684420D01*
X90560000Y-69965580D02*
X90560000Y-69684420D01*
%TO.C,R9*%
X91362936Y-58170000D02*
X92817064Y-58170000D01*
X91362936Y-59990000D02*
X92817064Y-59990000D01*
%TO.C,C13*%
X98090580Y-58877500D02*
X97809420Y-58877500D01*
X98090580Y-59897500D02*
X97809420Y-59897500D01*
%TO.C,R10*%
X95577500Y-63050242D02*
X95577500Y-63524758D01*
X96622500Y-63050242D02*
X96622500Y-63524758D01*
%TO.C,R8*%
X95577500Y-69162742D02*
X95577500Y-69637258D01*
X96622500Y-69162742D02*
X96622500Y-69637258D01*
%TO.C,D1*%
X95340000Y-65450000D02*
X95340000Y-67735000D01*
X95340000Y-67735000D02*
X96810000Y-67735000D01*
X96810000Y-67735000D02*
X96810000Y-65450000D01*
%TO.C,C11*%
X97809420Y-63527500D02*
X98090580Y-63527500D01*
X97809420Y-64547500D02*
X98090580Y-64547500D01*
%TO.C,C2*%
X92440000Y-69965580D02*
X92440000Y-69684420D01*
X93460000Y-69965580D02*
X93460000Y-69684420D01*
%TD*%
M02*
