G04 EasyEDA Pro v1.9.28, 2023-01-14 19:19:00*
G04 Gerber Generator version 0.3*%TF.GenerationSoftware,KiCad,Pcbnew,8.0.3*%
%TF.CreationDate,2024-11-10T00:39:18+08:00*%
%TF.ProjectId,NekoPurrTech_TiltingCtrl,4e656b6f-5075-4727-9254-6563685f5469,rev?*%
%TF.SameCoordinates,Original*%
%TF.FileFunction,Copper,L1,Top*%
%TF.FilePolarity,Positive*%
%FSLAX46Y46*%
G04 Gerber Fmt 4.6, Leading zero omitted, Abs format (unit mm)*
G04 Created by KiCad (PCBNEW 8.0.3) date 2024-11-10 00:39:18*
%MOMM*%
%LPD*%
G01*
G04 APERTURE LIST*
G04 Aperture macros list*
%AMRoundRect*
0 Rectangle with rounded corners*
0 $1 Rounding radius*
0 $2 $3 $4 $5 $6 $7 $8 $9 X,Y pos of 4 corners*
0 Add a 4 corners polygon primitive as box body*
4,1,4,$2,$3,$4,$5,$6,$7,$8,$9,$2,$3,0*
0 Add four circle primitives for the rounded corners*
1,1,$1+$1,$2,$3*
1,1,$1+$1,$4,$5*
1,1,$1+$1,$6,$7*
1,1,$1+$1,$8,$9*
0 Add four rect primitives between the rounded corners*
20,1,$1+$1,$2,$3,$4,$5,0*
20,1,$1+$1,$4,$5,$6,$7,0*
20,1,$1+$1,$6,$7,$8,$9,0*
20,1,$1+$1,$8,$9,$2,$3,0*%
G04 Aperture macros list end*
%TA.AperFunction,SMDPad,CuDef*%
%ADD10R,2.100000X0.400000*%
%TD*%
%TA.AperFunction,SMDPad,CuDef*%
%ADD11RoundRect,0.200000X0.200000X0.275000X-0.200000X0.275000X-0.200000X-0.275000X0.200000X-0.275000X0*%
%TD*%
%TA.AperFunction,SMDPad,CuDef*%
%ADD12RoundRect,0.225000X-0.250000X0.225000X-0.250000X-0.225000X0.250000X-0.225000X0.250000X0.225000X0*%
%TD*%
%TA.AperFunction,SMDPad,CuDef*%
%ADD13RoundRect,0.250000X0.250000X-0.250000X0.250000X0.250000X-0.250000X0.250000X-0.250000X-0.250000X0*%
%TD*%
%TA.AperFunction,ComponentPad*%
%ADD14R,1.700000X1.700000*%
%TD*%
%TA.AperFunction,ComponentPad*%
%ADD15O,1.700000X1.700000*%
%TD*%
%TA.AperFunction,SMDPad,CuDef*%
%ADD16RoundRect,0.200000X0.275000X-0.200000X0.275000X0.200000X-0.275000X0.200000X-0.275000X-0.200000X0*%
%TD*%
%TA.AperFunction,SMDPad,CuDef*%
%ADD17RoundRect,0.218750X0.218750X0.256250X-0.218750X0.256250X-0.218750X-0.256250X0.218750X-0.256250X0*%
%TD*%
%TA.AperFunction,SMDPad,CuDef*%
%ADD18R,2.300000X1.800000*%
%TD*%
%TA.AperFunction,SMDPad,CuDef*%
%ADD19RoundRect,0.225000X0.225000X0.250000X-0.225000X0.250000X-0.225000X-0.250000X0.225000X-0.250000X0*%
%TD*%
%TA.AperFunction,SMDPad,CuDef*%
%ADD20RoundRect,0.100000X-0.637500X-0.100000X0.637500X-0.100000X0.637500X0.100000X-0.637500X0.100000X0*%
%TD*%
%TA.AperFunction,SMDPad,CuDef*%
%ADD21RoundRect,0.225000X-0.225000X-0.250000X0.225000X-0.250000X0.225000X0.250000X-0.225000X0.250000X0*%
%TD*%
%TA.AperFunction,ViaPad*%
%ADD22C,0.450000*%
%TD*%
%TA.AperFunction,Conductor*%
%ADD23C,0.150000*%
%TD*%
%TA.AperFunction,Conductor*%
%ADD24C,0.200000*%
%TD*%
%TA.AperFunction,Conductor*%
%ADD25C,0.300000*%
%TD*%
G04 APERTURE END LIST*
D10*
%TO.P,R6,1,1*%
%TO.N,/OSCH_OUT*%
X86610000Y-66270000D03*
%TO.P,R6,2,2*%
%TO.N,GND*%
X86610000Y-65070000D03*
%TO.P,R6,3,3*%
%TO.N,/OSCH_IN*%
X86610000Y-63870000D03*
%TD*%
D11*
%TO.P,R12,1*%
%TO.N,+3.3V_ENC*%
X87815000Y-62540000D03*
%TO.P,R12,2*%
%TO.N,/Klicky*%
X86165000Y-62540000D03*
%TD*%
D12*
%TO.P,C8,1*%
%TO.N,/FMU_PWM_OUT*%
X90050000Y-68800000D03*
%TO.P,C8,2*%
%TO.N,GND*%
X90050000Y-70350000D03*
%TD*%
D13*
%TO.P,J4,1,Pin_1*%
%TO.N,+3.3V_MCU*%
X99690000Y-64440000D03*
%TO.P,J4,2,Pin_2*%
%TO.N,/Dbg_TX*%
X99690000Y-63240000D03*
%TO.P,J4,3,Pin_3*%
%TO.N,/Dbg_RX*%
X99690000Y-62040000D03*
%TO.P,J4,4,Pin_4*%
%TO.N,/SWDIO*%
X99690000Y-60840000D03*
%TO.P,J4,5,Pin_5*%
%TO.N,/SWCLK*%
X99690000Y-59640000D03*
%TO.P,J4,6,Pin_6*%
%TO.N,GND*%
X99690000Y-58440000D03*
%TD*%
D12*
%TO.P,C4,1*%
%TO.N,+3.3V_MCU*%
X87740000Y-67615000D03*
%TO.P,C4,2*%
%TO.N,GND*%
X87740000Y-69165000D03*
%TD*%
D11*
%TO.P,R7,1*%
%TO.N,GND*%
X92530000Y-59850000D03*
%TO.P,R7,2*%
%TO.N,/BOOT0*%
X90880000Y-59850000D03*
%TD*%
D14*
%TO.P,J5,1,Pin_1*%
%TO.N,/Klicky*%
X88885000Y-59000000D03*
D15*
%TO.P,J5,2,Pin_2*%
%TO.N,GND*%
X86345000Y-59000000D03*
%TD*%
D16*
%TO.P,R5,1*%
%TO.N,Net-(C3-Pad1)*%
X91500000Y-70400000D03*
%TO.P,R5,2*%
%TO.N,/FMU_PWM_OUT*%
X91500000Y-68750000D03*
%TD*%
D17*
%TO.P,D3,1,K*%
%TO.N,Net-(D3-K)*%
X92490000Y-58380000D03*
%TO.P,D3,2,A*%
%TO.N,+3.3V_MCU*%
X90915000Y-58380000D03*
%TD*%
D18*
%TO.P,C1,1*%
%TO.N,VCC*%
X98500000Y-69900000D03*
%TO.P,C1,2*%
%TO.N,GND*%
X98500000Y-67000000D03*
%TD*%
D19*
%TO.P,C14,1*%
%TO.N,/Klicky*%
X87765000Y-61080000D03*
%TO.P,C14,2*%
%TO.N,GND*%
X86215000Y-61080000D03*
%TD*%
D16*
%TO.P,R3,1*%
%TO.N,/NRST*%
X86240000Y-69215000D03*
%TO.P,R3,2*%
%TO.N,+3.3V_MCU*%
X86240000Y-67565000D03*
%TD*%
D11*
%TO.P,R11,1*%
%TO.N,/LED*%
X95615000Y-58380000D03*
%TO.P,R11,2*%
%TO.N,Net-(D3-K)*%
X93965000Y-58380000D03*
%TD*%
D20*
%TO.P,U1,1,BOOT0*%
%TO.N,/BOOT0*%
X89901500Y-61375000D03*
%TO.P,U1,2,PF0*%
%TO.N,/OSCH_IN*%
X89901500Y-62025000D03*
%TO.P,U1,3,PF1*%
%TO.N,/OSCH_OUT*%
X89901500Y-62675000D03*
%TO.P,U1,4,NRST*%
%TO.N,/NRST*%
X89901500Y-63325000D03*
%TO.P,U1,5,VDDA*%
%TO.N,+3.3V_MCU*%
X89901500Y-63975000D03*
%TO.P,U1,6,PA0*%
%TO.N,/Klicky*%
X89901500Y-64625000D03*
%TO.P,U1,7,PA1*%
%TO.N,unconnected-(U1-PA1-Pad7)*%
X89901500Y-65275000D03*
%TO.P,U1,8,PA2*%
%TO.N,/Dbg_TX*%
X89901500Y-65925000D03*
%TO.P,U1,9,PA3*%
%TO.N,/Dbg_RX*%
X89901500Y-66575000D03*
%TO.P,U1,10,PA4*%
%TO.N,/IN1*%
X89901500Y-67225000D03*
%TO.P,U1,11,PA5*%
%TO.N,/IN2*%
X95626500Y-67225000D03*
%TO.P,U1,12,PA6*%
%TO.N,/ENC_A*%
X95626500Y-66575000D03*
%TO.P,U1,13,PA7*%
%TO.N,/ENC_B*%
X95626500Y-65925000D03*
%TO.P,U1,14,PB1*%
%TO.N,/LED*%
X95626500Y-65275000D03*
%TO.P,U1,15,VSS*%
%TO.N,GND*%
X95626500Y-64625000D03*
%TO.P,U1,16,VDD*%
%TO.N,+3.3V_MCU*%
X95626500Y-63975000D03*
%TO.P,U1,17,PA9*%
%TO.N,/Motor_PWM*%
X95626500Y-63325000D03*
%TO.P,U1,18,PA10*%
%TO.N,/FMU_PWM_OUT*%
X95626500Y-62675000D03*
%TO.P,U1,19,PA13*%
%TO.N,/SWDIO*%
X95626500Y-62025000D03*
%TO.P,U1,20,PA14*%
%TO.N,/SWCLK*%
X95626500Y-61375000D03*
%TD*%
D16*
%TO.P,R2,1*%
%TO.N,/FMU_PWM*%
X94425000Y-70400000D03*
%TO.P,R2,2*%
%TO.N,Net-(C3-Pad1)*%
X94425000Y-68750000D03*
%TD*%
D14*
%TO.P,J3,1,Pin_1*%
%TO.N,/Motor+*%
X86350000Y-56300000D03*
D15*
%TO.P,J3,2,Pin_2*%
%TO.N,GND*%
X88890000Y-56300000D03*
%TO.P,J3,3,Pin_3*%
%TO.N,/ENC_A*%
X91430000Y-56300000D03*
%TO.P,J3,4,Pin_4*%
%TO.N,/ENC_B*%
X93970000Y-56300000D03*
%TO.P,J3,5,Pin_5*%
%TO.N,+3.3V_ENC*%
X96510000Y-56300000D03*
%TO.P,J3,6,Pin_6*%
%TO.N,/Motor-*%
X99050000Y-56300000D03*
%TD*%
D14*
%TO.P,J2,1,Pin_1*%
%TO.N,/FMU_PWM*%
X91580000Y-73600000D03*
D15*
%TO.P,J2,2,Pin_2*%
%TO.N,unconnected-(J2-Pin_2-Pad2)*%
X89040000Y-73600000D03*
%TO.P,J2,3,Pin_3*%
%TO.N,GND*%
X86500000Y-73600000D03*
%TD*%
D12*
%TO.P,C3,1*%
%TO.N,Net-(C3-Pad1)*%
X92950000Y-68800000D03*
%TO.P,C3,2*%
%TO.N,GND*%
X92950000Y-70350000D03*
%TD*%
%TO.P,C6,1*%
%TO.N,+3.3V_MCU*%
X97700000Y-62600000D03*
%TO.P,C6,2*%
%TO.N,GND*%
X97700000Y-64150000D03*
%TD*%
D21*
%TO.P,C5,1*%
%TO.N,/NRST*%
X86215000Y-70615000D03*
%TO.P,C5,2*%
%TO.N,GND*%
X87765000Y-70615000D03*
%TD*%
D14*
%TO.P,J1,1,Pin_1*%
%TO.N,VCC*%
X99025000Y-73600000D03*
D15*
%TO.P,J1,2,Pin_2*%
%TO.N,GND*%
X96485000Y-73600000D03*
%TD*%
D22*
%TO.N,VCC*%
X98050000Y-70475000D03*
X98050000Y-70125000D03*
X98050000Y-69775000D03*
%TO.N,/IN1*%
X90870002Y-67225000D03*
%TO.N,GND*%
X96480000Y-70970000D03*
X92360000Y-70500000D03*
X89290000Y-69790000D03*
X90790000Y-69820000D03*
X94167562Y-63804687D03*
X92370000Y-64830000D03*
X96890000Y-70970000D03*
X93650000Y-69830000D03*
X99210000Y-66890000D03*
X92960000Y-69940000D03*
X96070000Y-70970000D03*
X86520000Y-65500000D03*
X99210000Y-66480000D03*
X87010000Y-65500000D03*
X94169232Y-64472822D03*
X92370000Y-64380000D03*
X95600000Y-60150000D03*
X92370000Y-63930000D03*
X95660000Y-70970000D03*
X97100000Y-64030000D03*
%TO.N,/IN2*%
X93123000Y-67337000D03*
%TO.N,+3.3V_MCU*%
X99325000Y-64780027D03*
X96723309Y-64847773D03*
%TO.N,+3.3V_ENC*%
X96600000Y-58920000D03*
%TO.N,/Dbg_RX*%
X99690000Y-62040000D03*
X90969070Y-66229057D03*
X93670000Y-64140000D03*
X95190000Y-60710000D03*
%TO.N,/Motor_PWM*%
X94680000Y-63325000D03*
%TO.N,/Dbg_TX*%
X89025000Y-65940000D03*
X96889820Y-68106932D03*
%TO.N,/FMU_PWM_OUT*%
X94680002Y-62675000D03*
X89262746Y-68332107D03*
%TO.N,/Klicky*%
X89050000Y-64580000D03*
X87460000Y-64494998D03*
%TD*%
D23*
%TO.N,/IN1*%
X90870002Y-67225000D02*
X89901500Y-67225000D01*
%TO.N,/IN2*%
X94395000Y-67225000D02*
X95626500Y-67225000D01*
X94283000Y-67337000D02*
X94395000Y-67225000D01*
X93123000Y-67337000D02*
X94283000Y-67337000D01*
D24*
%TO.N,+3.3V_MCU*%
X91335000Y-63975000D02*
X91565000Y-63745000D01*
X91385000Y-58854620D02*
X91385000Y-58850000D01*
X86290000Y-67615000D02*
X86240000Y-67565000D01*
X89901500Y-63975000D02*
X88875000Y-63975000D01*
X88550000Y-66805000D02*
X87740000Y-67615000D01*
X91565000Y-59034620D02*
X91385000Y-58854620D01*
X91335000Y-63975000D02*
X89901500Y-63975000D01*
X99325000Y-64585000D02*
X99460000Y-64450000D01*
X96690000Y-67635000D02*
X96425000Y-67900000D01*
X91385000Y-58850000D02*
X90915000Y-58380000D01*
X96690000Y-64881082D02*
X96690000Y-67635000D01*
X96325000Y-63975000D02*
X95626500Y-63975000D01*
X88875000Y-63975000D02*
X88550000Y-64300000D01*
X96723309Y-64415853D02*
X96282456Y-63975000D01*
X91570000Y-67645000D02*
X91570000Y-64210000D01*
X97700000Y-62600000D02*
X96325000Y-63975000D01*
X87740000Y-67615000D02*
X86290000Y-67615000D01*
X91570000Y-64210000D02*
X91335000Y-63975000D01*
X96723309Y-64847773D02*
X96690000Y-64881082D01*
X88550000Y-64300000D02*
X88550000Y-66805000D01*
X96282456Y-63975000D02*
X95626500Y-63975000D01*
X91825000Y-67900000D02*
X91570000Y-67645000D01*
X96723309Y-64847773D02*
X96723309Y-64415853D01*
X91565000Y-63745000D02*
X91565000Y-59034620D01*
X99325000Y-64780027D02*
X99325000Y-64585000D01*
X96425000Y-67900000D02*
X91825000Y-67900000D01*
D23*
%TO.N,+3.3V_ENC*%
X87815000Y-62261610D02*
X90050000Y-60026610D01*
X90050000Y-60026610D02*
X90050000Y-56010000D01*
X87815000Y-62540000D02*
X87815000Y-62261610D01*
D25*
X96600000Y-58920000D02*
X96510000Y-58830000D01*
D23*
X90050000Y-56010000D02*
X90835000Y-55225000D01*
X90835000Y-55225000D02*
X95435000Y-55225000D01*
X95435000Y-55225000D02*
X96510000Y-56300000D01*
D25*
X96510000Y-58830000D02*
X96510000Y-56300000D01*
D23*
%TO.N,/OSCH_IN*%
X89175000Y-62025000D02*
X89901500Y-62025000D01*
X87566582Y-63870000D02*
X88940000Y-62496582D01*
X88940000Y-62496582D02*
X88940000Y-62260000D01*
X88940000Y-62260000D02*
X89175000Y-62025000D01*
X86610000Y-63870000D02*
X87566582Y-63870000D01*
%TO.N,/OSCH_OUT*%
X87910000Y-63950846D02*
X89185846Y-62675000D01*
X86610000Y-66270000D02*
X87460000Y-66270000D01*
X89185846Y-62675000D02*
X89901500Y-62675000D01*
X87460000Y-66270000D02*
X87910000Y-65820000D01*
X87910000Y-65820000D02*
X87910000Y-63950846D01*
%TO.N,/Dbg_RX*%
X90969070Y-66470930D02*
X90865000Y-66575000D01*
X93450000Y-60969264D02*
X93450000Y-63920000D01*
X93450000Y-63920000D02*
X93670000Y-64140000D01*
X90865000Y-66575000D02*
X89901500Y-66575000D01*
X99470000Y-62040000D02*
X99460000Y-62050000D01*
X90969070Y-66229057D02*
X90969070Y-66470930D01*
X99690000Y-62040000D02*
X99470000Y-62040000D01*
X93709264Y-60710000D02*
X93450000Y-60969264D01*
X95190000Y-60710000D02*
X93709264Y-60710000D01*
%TO.N,/ENC_A*%
X91895000Y-66355000D02*
X92115000Y-66575000D01*
X91710000Y-58720000D02*
X91895000Y-58905000D01*
X91895000Y-58905000D02*
X91895000Y-66355000D01*
X91710000Y-56580000D02*
X91710000Y-58720000D01*
X92115000Y-66575000D02*
X95626500Y-66575000D01*
X91430000Y-56300000D02*
X91710000Y-56580000D01*
%TO.N,/ENC_B*%
X94790000Y-57120000D02*
X94790000Y-58780736D01*
X93970000Y-56300000D02*
X94790000Y-57120000D01*
X94790000Y-58780736D02*
X92850000Y-60720736D01*
X92995000Y-65925000D02*
X95626500Y-65925000D01*
X92850000Y-60720736D02*
X92850000Y-65780000D01*
X92850000Y-65780000D02*
X92995000Y-65925000D01*
%TO.N,/NRST*%
X86240000Y-69215000D02*
X85540000Y-68515000D01*
X88225000Y-66355000D02*
X88225000Y-64135381D01*
X88225000Y-64135381D02*
X89035381Y-63325000D01*
X89035381Y-63325000D02*
X89901500Y-63325000D01*
X86240000Y-69215000D02*
X86240000Y-70590000D01*
X87820000Y-66760000D02*
X88225000Y-66355000D01*
X85540000Y-68515000D02*
X85540000Y-67183418D01*
X85963418Y-66760000D02*
X87820000Y-66760000D01*
X86240000Y-70590000D02*
X86215000Y-70615000D01*
X85540000Y-67183418D02*
X85963418Y-66760000D01*
%TO.N,/Motor_PWM*%
X94680000Y-63325000D02*
X94680000Y-63470505D01*
X94680000Y-63325000D02*
X95626500Y-63325000D01*
%TO.N,/Dbg_TX*%
X98580000Y-63400000D02*
X98730000Y-63250000D01*
X89025000Y-65940000D02*
X89886500Y-65940000D01*
X98120000Y-65100000D02*
X98580000Y-64640000D01*
X97015000Y-65445000D02*
X97360000Y-65100000D01*
X89886500Y-65940000D02*
X89901500Y-65925000D01*
X97015000Y-67981752D02*
X97015000Y-65445000D01*
X98730000Y-63250000D02*
X99460000Y-63250000D01*
X98580000Y-64640000D02*
X98580000Y-63400000D01*
X97360000Y-65100000D02*
X98120000Y-65100000D01*
X96889820Y-68106932D02*
X97015000Y-67981752D01*
%TO.N,/BOOT0*%
X89901500Y-61375000D02*
X89901500Y-60908500D01*
X90880000Y-59930000D02*
X90880000Y-59850000D01*
X89901500Y-60908500D02*
X90880000Y-59930000D01*
%TO.N,/SWCLK*%
X98390000Y-59650000D02*
X99460000Y-59650000D01*
X96665000Y-61375000D02*
X98390000Y-59650000D01*
X95626500Y-61375000D02*
X96665000Y-61375000D01*
%TO.N,/SWDIO*%
X97930000Y-60850000D02*
X99460000Y-60850000D01*
X95626500Y-62025000D02*
X96755000Y-62025000D01*
X96755000Y-62025000D02*
X97930000Y-60850000D01*
%TO.N,/FMU_PWM_OUT*%
X94680002Y-62675000D02*
X95626500Y-62675000D01*
X89262746Y-68332107D02*
X89582107Y-68332107D01*
X89582107Y-68332107D02*
X90050000Y-68800000D01*
X90050000Y-68800000D02*
X91450000Y-68800000D01*
X91450000Y-68800000D02*
X91500000Y-68750000D01*
%TO.N,Net-(C3-Pad1)*%
X94425000Y-68750000D02*
X93000000Y-68750000D01*
X91500000Y-70250000D02*
X92950000Y-68800000D01*
X93000000Y-68750000D02*
X92950000Y-68800000D01*
X91500000Y-70400000D02*
X91500000Y-70250000D01*
%TO.N,/FMU_PWM*%
X94160000Y-73600000D02*
X94425000Y-73335000D01*
X94425000Y-73335000D02*
X94425000Y-70400000D01*
X91580000Y-73600000D02*
X94160000Y-73600000D01*
%TO.N,Net-(D3-K)*%
X93965000Y-58380000D02*
X92490000Y-58380000D01*
%TO.N,/LED*%
X95626500Y-65275000D02*
X93335000Y-65275000D01*
X93150000Y-60845000D02*
X95615000Y-58380000D01*
X93335000Y-65275000D02*
X93150000Y-65090000D01*
X93150000Y-65090000D02*
X93150000Y-60845000D01*
%TO.N,/Klicky*%
X85460000Y-62540000D02*
X85335000Y-62665000D01*
X86165000Y-62540000D02*
X86250000Y-62540000D01*
X86250000Y-62540000D02*
X87710000Y-61080000D01*
X86165000Y-62540000D02*
X85460000Y-62540000D01*
X85534998Y-64494998D02*
X87460000Y-64494998D01*
X87765000Y-60120000D02*
X88885000Y-59000000D01*
X87710000Y-61080000D02*
X87765000Y-61080000D01*
X89050000Y-64580000D02*
X89856500Y-64580000D01*
X89856500Y-64580000D02*
X89901500Y-64625000D01*
X85335000Y-64295000D02*
X85534998Y-64494998D01*
X85335000Y-62665000D02*
X85335000Y-64295000D01*
X87765000Y-61080000D02*
X87765000Y-60120000D01*
%TD*%
%TA.AperFunction,Conductor*%
%TO.N,GND*%
G36*
X99021336Y-63497174D02*
G01*
X99042099Y-63537925D01*
X99054353Y-63615304D01*
X99054354Y-63615306D01*
X99111950Y-63728342D01*
X99171282Y-63787674D01*
X99192956Y-63840000D01*
X99171282Y-63892326D01*
X99111951Y-63951656D01*
X99054353Y-64064698D01*
X99039500Y-64158480D01*
X99039500Y-64503836D01*
X99019900Y-64551160D01*
X99020850Y-64551850D01*
X99017978Y-64555802D01*
X99017832Y-64556156D01*
X99017428Y-64556559D01*
X99017424Y-64556564D01*
X98963427Y-64662540D01*
X98963426Y-64662544D01*
X98944819Y-64780027D01*
X98963426Y-64897509D01*
X98963426Y-64897510D01*
X98981999Y-64933960D01*
X99017427Y-65003492D01*
X99101535Y-65087600D01*
X99207518Y-65141601D01*
X99325000Y-65160208D01*
X99442482Y-65141601D01*
X99526943Y-65098565D01*
X99560539Y-65090499D01*
X99971519Y-65090499D01*
X100065304Y-65075646D01*
X100065306Y-65075645D01*
X100073955Y-65071238D01*
X100178342Y-65018050D01*
X100243174Y-64953218D01*
X100295500Y-64931544D01*
X100347826Y-64953218D01*
X100369500Y-65005544D01*
X100369500Y-74835500D01*
X100347826Y-74887826D01*
X100295500Y-74909500D01*
X85164500Y-74909500D01*
X85112174Y-74887826D01*
X85090500Y-74835500D01*
X85090500Y-73600000D01*
X88034659Y-73600000D01*
X88053976Y-73796133D01*
X88111187Y-73984731D01*
X88198776Y-74148597D01*
X88204090Y-74158538D01*
X88329117Y-74310883D01*
X88481462Y-74435910D01*
X88535547Y-74464819D01*
X88655268Y-74528812D01*
X88655270Y-74528812D01*
X88655273Y-74528814D01*
X88843868Y-74586024D01*
X89040000Y-74605341D01*
X89236132Y-74586024D01*
X89424727Y-74528814D01*
X89598538Y-74435910D01*
X89750883Y-74310883D01*
X89875910Y-74158538D01*
X89968814Y-73984727D01*
X90026024Y-73796132D01*
X90045341Y-73600000D01*
X90026024Y-73403868D01*
X89968814Y-73215273D01*
X89968812Y-73215270D01*
X89968812Y-73215268D01*
X89917048Y-73118426D01*
X89875910Y-73041462D01*
X89750883Y-72889117D01*
X89598538Y-72764090D01*
X89588597Y-72758776D01*
X89544452Y-72735180D01*
X90579500Y-72735180D01*
X90579500Y-74464819D01*
X90588233Y-74508722D01*
X90601656Y-74528812D01*
X90621496Y-74558504D01*
X90671278Y-74591767D01*
X90715180Y-74600500D01*
X90715181Y-74600500D01*
X92444819Y-74600500D01*
X92444820Y-74600500D01*
X92488722Y-74591767D01*
X92538504Y-74558504D01*
X92571767Y-74508722D01*
X92580500Y-74464820D01*
X92580500Y-73899500D01*
X92602174Y-73847174D01*
X92654500Y-73825500D01*
X94106525Y-73825500D01*
X94106533Y-73825501D01*
X94115145Y-73825501D01*
X94204854Y-73825501D01*
X94204855Y-73825501D01*
X94263460Y-73801225D01*
X94287736Y-73791170D01*
X94351170Y-73727736D01*
X94351170Y-73727735D01*
X94361575Y-73717330D01*
X94361577Y-73717327D01*
X94542327Y-73536577D01*
X94542330Y-73536575D01*
X94552735Y-73526170D01*
X94552736Y-73526170D01*
X94616170Y-73462736D01*
X94637908Y-73410256D01*
X94650501Y-73379854D01*
X94650501Y-73290145D01*
X94650501Y-73284187D01*
X94650500Y-73284173D01*
X94650500Y-72735180D01*
X98024500Y-72735180D01*
X98024500Y-74464819D01*
X98033233Y-74508722D01*
X98046656Y-74528812D01*
X98066496Y-74558504D01*
X98116278Y-74591767D01*
X98160180Y-74600500D01*
X98160181Y-74600500D01*
X99889819Y-74600500D01*
X99889820Y-74600500D01*
X99933722Y-74591767D01*
X99983504Y-74558504D01*
X100016767Y-74508722D01*
X100025500Y-74464820D01*
X100025500Y-72735180D01*
X100016767Y-72691278D01*
X99983504Y-72641496D01*
X99933722Y-72608233D01*
X99889820Y-72599500D01*
X98160180Y-72599500D01*
X98138229Y-72603866D01*
X98116277Y-72608233D01*
X98066496Y-72641495D01*
X98066495Y-72641496D01*
X98033233Y-72691277D01*
X98024500Y-72735180D01*
X94650500Y-72735180D01*
X94650500Y-71024500D01*
X94672174Y-70972174D01*
X94724500Y-70950500D01*
X94733254Y-70950500D01*
X94733260Y-70950500D01*
X94801393Y-70940573D01*
X94906483Y-70889198D01*
X94989198Y-70806483D01*
X95040573Y-70701393D01*
X95050500Y-70633260D01*
X95050500Y-70166740D01*
X95040573Y-70098607D01*
X94989198Y-69993517D01*
X94906483Y-69910802D01*
X94906482Y-69910801D01*
X94801394Y-69859427D01*
X94733264Y-69849500D01*
X94733260Y-69849500D01*
X94116740Y-69849500D01*
X94116735Y-69849500D01*
X94048606Y-69859427D01*
X94048605Y-69859427D01*
X93943517Y-69910801D01*
X93860801Y-69993517D01*
X93809427Y-70098605D01*
X93809427Y-70098606D01*
X93799500Y-70166735D01*
X93799500Y-70633264D01*
X93809427Y-70701393D01*
X93809427Y-70701394D01*
X93860801Y-70806482D01*
X93860802Y-70806483D01*
X93943517Y-70889198D01*
X94048607Y-70940573D01*
X94116740Y-70950500D01*
X94125500Y-70950500D01*
X94177826Y-70972174D01*
X94199500Y-71024500D01*
X94199500Y-73210943D01*
X94177826Y-73263269D01*
X94088269Y-73352826D01*
X94035943Y-73374500D01*
X92654500Y-73374500D01*
X92602174Y-73352826D01*
X92580500Y-73300500D01*
X92580500Y-72735180D01*
X92571767Y-72691278D01*
X92538504Y-72641496D01*
X92488722Y-72608233D01*
X92444820Y-72599500D01*
X90715180Y-72599500D01*
X90693229Y-72603866D01*
X90671277Y-72608233D01*
X90621496Y-72641495D01*
X90621495Y-72641496D01*
X90588233Y-72691277D01*
X90579500Y-72735180D01*
X89544452Y-72735180D01*
X89424731Y-72671187D01*
X89236133Y-72613976D01*
X89040000Y-72594659D01*
X88843866Y-72613976D01*
X88655268Y-72671187D01*
X88481463Y-72764089D01*
X88329117Y-72889117D01*
X88204089Y-73041463D01*
X88111187Y-73215268D01*
X88053976Y-73403866D01*
X88034659Y-73600000D01*
X85090500Y-73600000D01*
X85090500Y-64548058D01*
X85112174Y-64495732D01*
X85164500Y-64474058D01*
X85216826Y-64495732D01*
X85217671Y-64496577D01*
X85217673Y-64496578D01*
X85339607Y-64618512D01*
X85339610Y-64618516D01*
X85343828Y-64622734D01*
X85407262Y-64686168D01*
X85425256Y-64693621D01*
X85425257Y-64693622D01*
X85425258Y-64693622D01*
X85490143Y-64720499D01*
X85588465Y-64720499D01*
X85588473Y-64720498D01*
X87123810Y-64720498D01*
X87176136Y-64742172D01*
X87236535Y-64802571D01*
X87342518Y-64856572D01*
X87460000Y-64875179D01*
X87577482Y-64856572D01*
X87577487Y-64856569D01*
X87583023Y-64854772D01*
X87583534Y-64856345D01*
X87633366Y-64852423D01*
X87676434Y-64889205D01*
X87684500Y-64922801D01*
X87684500Y-65695943D01*
X87662826Y-65748269D01*
X87513269Y-65897826D01*
X87460943Y-65919500D01*
X85545180Y-65919500D01*
X85531994Y-65922123D01*
X85501277Y-65928233D01*
X85451496Y-65961495D01*
X85451495Y-65961496D01*
X85418233Y-66011277D01*
X85418233Y-66011278D01*
X85409500Y-66055180D01*
X85409500Y-66484820D01*
X85418233Y-66528722D01*
X85451496Y-66578504D01*
X85501278Y-66611767D01*
X85545180Y-66620500D01*
X85605360Y-66620500D01*
X85657686Y-66642174D01*
X85679360Y-66694500D01*
X85657686Y-66746826D01*
X85348829Y-67055682D01*
X85344631Y-67065819D01*
X85314499Y-67138562D01*
X85314499Y-67236884D01*
X85314500Y-67236893D01*
X85314500Y-68464173D01*
X85314499Y-68464187D01*
X85314499Y-68559855D01*
X85327656Y-68591620D01*
X85327658Y-68591622D01*
X85348829Y-68642735D01*
X85422671Y-68716577D01*
X85422673Y-68716578D01*
X85597571Y-68891476D01*
X85619245Y-68943802D01*
X85618472Y-68954468D01*
X85614501Y-68981727D01*
X85614500Y-68981746D01*
X85614500Y-69448264D01*
X85624427Y-69516393D01*
X85624427Y-69516394D01*
X85675801Y-69621482D01*
X85675802Y-69621483D01*
X85758517Y-69704198D01*
X85863607Y-69755573D01*
X85931740Y-69765500D01*
X85940500Y-69765500D01*
X85992826Y-69787174D01*
X86014500Y-69839500D01*
X86014500Y-69916738D01*
X85992826Y-69969064D01*
X85951170Y-69989965D01*
X85881373Y-70000134D01*
X85768789Y-70055173D01*
X85680173Y-70143789D01*
X85625134Y-70256373D01*
X85625134Y-70256374D01*
X85614500Y-70329359D01*
X85614500Y-70900640D01*
X85625134Y-70973625D01*
X85625134Y-70973626D01*
X85680173Y-71086210D01*
X85680174Y-71086211D01*
X85768789Y-71174826D01*
X85881375Y-71229866D01*
X85954364Y-71240500D01*
X85954370Y-71240500D01*
X86475630Y-71240500D01*
X86475636Y-71240500D01*
X86548625Y-71229866D01*
X86661211Y-71174826D01*
X86749826Y-71086211D01*
X86804866Y-70973625D01*
X86815500Y-70900636D01*
X86815500Y-70329364D01*
X86804866Y-70256375D01*
X86749826Y-70143789D01*
X86661211Y-70055174D01*
X86661210Y-70055173D01*
X86548626Y-70000134D01*
X86528830Y-69997250D01*
X86480176Y-69968257D01*
X86465500Y-69924023D01*
X86465500Y-69839500D01*
X86487174Y-69787174D01*
X86539500Y-69765500D01*
X86548254Y-69765500D01*
X86548260Y-69765500D01*
X86616393Y-69755573D01*
X86721483Y-69704198D01*
X86804198Y-69621483D01*
X86855573Y-69516393D01*
X86865500Y-69448260D01*
X86865500Y-68981740D01*
X86855573Y-68913607D01*
X86804198Y-68808517D01*
X86721483Y-68725802D01*
X86721482Y-68725801D01*
X86616394Y-68674427D01*
X86548264Y-68664500D01*
X86548260Y-68664500D01*
X86039057Y-68664500D01*
X85986731Y-68642826D01*
X85787174Y-68443268D01*
X85765500Y-68390942D01*
X85765500Y-68175576D01*
X85787174Y-68123250D01*
X85839500Y-68101576D01*
X85861346Y-68104874D01*
X85863603Y-68105571D01*
X85863607Y-68105573D01*
X85931740Y-68115500D01*
X85931746Y-68115500D01*
X86548254Y-68115500D01*
X86548260Y-68115500D01*
X86616393Y-68105573D01*
X86721483Y-68054198D01*
X86804198Y-67971483D01*
X86835722Y-67906998D01*
X86878175Y-67869510D01*
X86902203Y-67865500D01*
X87049023Y-67865500D01*
X87101349Y-67887174D01*
X87122250Y-67928830D01*
X87125134Y-67948625D01*
X87125134Y-67948626D01*
X87180173Y-68061210D01*
X87180174Y-68061211D01*
X87268789Y-68149826D01*
X87381375Y-68204866D01*
X87454364Y-68215500D01*
X87454370Y-68215500D01*
X88025630Y-68215500D01*
X88025636Y-68215500D01*
X88098625Y-68204866D01*
X88211211Y-68149826D01*
X88299826Y-68061211D01*
X88354866Y-67948625D01*
X88365500Y-67875636D01*
X88365500Y-67374412D01*
X88387174Y-67322086D01*
X88550743Y-67158517D01*
X88762364Y-66946897D01*
X88800500Y-66854828D01*
X88800500Y-66755172D01*
X88800500Y-66367803D01*
X88822174Y-66315477D01*
X88874500Y-66293803D01*
X88901788Y-66300354D01*
X88901977Y-66299774D01*
X88907517Y-66301574D01*
X88929151Y-66305000D01*
X88962930Y-66310350D01*
X89011222Y-66339942D01*
X89024444Y-66395014D01*
X89023933Y-66397875D01*
X89013500Y-66450326D01*
X89013500Y-66699674D01*
X89025569Y-66760350D01*
X89028034Y-66772740D01*
X89085595Y-66858888D01*
X89096644Y-66914437D01*
X89085595Y-66941112D01*
X89028034Y-67027259D01*
X89013500Y-67100327D01*
X89013500Y-67349672D01*
X89028034Y-67422740D01*
X89045222Y-67448465D01*
X89083399Y-67505601D01*
X89166260Y-67560966D01*
X89239326Y-67575500D01*
X89239328Y-67575500D01*
X90563672Y-67575500D01*
X90563674Y-67575500D01*
X90636740Y-67560966D01*
X90636746Y-67560961D01*
X90641361Y-67559051D01*
X90697999Y-67559051D01*
X90703276Y-67561484D01*
X90752515Y-67586572D01*
X90752517Y-67586572D01*
X90752520Y-67586574D01*
X90870002Y-67605181D01*
X90987484Y-67586574D01*
X91093467Y-67532573D01*
X91177575Y-67448465D01*
X91179566Y-67444556D01*
X91222632Y-67407774D01*
X91279094Y-67412217D01*
X91315878Y-67455284D01*
X91319500Y-67478152D01*
X91319500Y-67694829D01*
X91357634Y-67786894D01*
X91357637Y-67786898D01*
X91643913Y-68073174D01*
X91665587Y-68125500D01*
X91643913Y-68177826D01*
X91591587Y-68199500D01*
X91191735Y-68199500D01*
X91123606Y-68209427D01*
X91123605Y-68209427D01*
X91018517Y-68260801D01*
X90935801Y-68343517D01*
X90884427Y-68448605D01*
X90884427Y-68448606D01*
X90884427Y-68448607D01*
X90876528Y-68502826D01*
X90875312Y-68511169D01*
X90846320Y-68559823D01*
X90802085Y-68574500D01*
X90744619Y-68574500D01*
X90692293Y-68552826D01*
X90671392Y-68511169D01*
X90671196Y-68509824D01*
X90664866Y-68466375D01*
X90609826Y-68353789D01*
X90521211Y-68265174D01*
X90521210Y-68265173D01*
X90408626Y-68210134D01*
X90335640Y-68199500D01*
X90335636Y-68199500D01*
X89799058Y-68199500D01*
X89746732Y-68177826D01*
X89709845Y-68140939D01*
X89709843Y-68140937D01*
X89685567Y-68130881D01*
X89685565Y-68130880D01*
X89685565Y-68130879D01*
X89626962Y-68106606D01*
X89598935Y-68106606D01*
X89546609Y-68084932D01*
X89486212Y-68024535D01*
X89486211Y-68024534D01*
X89417347Y-67989446D01*
X89380229Y-67970533D01*
X89262746Y-67951926D01*
X89145263Y-67970533D01*
X89145262Y-67970533D01*
X89039279Y-68024535D01*
X88955174Y-68108640D01*
X88901172Y-68214623D01*
X88901172Y-68214624D01*
X88882565Y-68332107D01*
X88901172Y-68449589D01*
X88901172Y-68449590D01*
X88920291Y-68487112D01*
X88955173Y-68555572D01*
X89039281Y-68639680D01*
X89145264Y-68693681D01*
X89262746Y-68712288D01*
X89338925Y-68700222D01*
X89393996Y-68713443D01*
X89423589Y-68761734D01*
X89424500Y-68773311D01*
X89424500Y-69060640D01*
X89435134Y-69133625D01*
X89435134Y-69133626D01*
X89490173Y-69246210D01*
X89490174Y-69246211D01*
X89578789Y-69334826D01*
X89691375Y-69389866D01*
X89764364Y-69400500D01*
X89764370Y-69400500D01*
X90335630Y-69400500D01*
X90335636Y-69400500D01*
X90408625Y-69389866D01*
X90521211Y-69334826D01*
X90609826Y-69246211D01*
X90664866Y-69133625D01*
X90671392Y-69088830D01*
X90700384Y-69040177D01*
X90744619Y-69025500D01*
X90825575Y-69025500D01*
X90877901Y-69047174D01*
X90892056Y-69066999D01*
X90935802Y-69156483D01*
X91018517Y-69239198D01*
X91123607Y-69290573D01*
X91191740Y-69300500D01*
X91191746Y-69300500D01*
X91808254Y-69300500D01*
X91808260Y-69300500D01*
X91876393Y-69290573D01*
X91981483Y-69239198D01*
X92064198Y-69156483D01*
X92115573Y-69051393D01*
X92125500Y-68983260D01*
X92125500Y-68516740D01*
X92115573Y-68448607D01*
X92064198Y-68343517D01*
X91997507Y-68276826D01*
X91975833Y-68224500D01*
X91997507Y-68172174D01*
X92049833Y-68150500D01*
X92414811Y-68150500D01*
X92467137Y-68172174D01*
X92488811Y-68224500D01*
X92467137Y-68276826D01*
X92390173Y-68353789D01*
X92335134Y-68466373D01*
X92335134Y-68466374D01*
X92324500Y-68539359D01*
X92324500Y-69060639D01*
X92324992Y-69064013D01*
X92311085Y-69118916D01*
X92304090Y-69127003D01*
X91603269Y-69827826D01*
X91550943Y-69849500D01*
X91191735Y-69849500D01*
X91123606Y-69859427D01*
X91123605Y-69859427D01*
X91018517Y-69910801D01*
X90935801Y-69993517D01*
X90884427Y-70098605D01*
X90884427Y-70098606D01*
X90874500Y-70166735D01*
X90874500Y-70633264D01*
X90884427Y-70701393D01*
X90884427Y-70701394D01*
X90935801Y-70806482D01*
X90935802Y-70806483D01*
X91018517Y-70889198D01*
X91123607Y-70940573D01*
X91191740Y-70950500D01*
X91191746Y-70950500D01*
X91808254Y-70950500D01*
X91808260Y-70950500D01*
X91876393Y-70940573D01*
X91981483Y-70889198D01*
X92064198Y-70806483D01*
X92115573Y-70701393D01*
X92125500Y-70633260D01*
X92125500Y-70166740D01*
X92115573Y-70098607D01*
X92091075Y-70048496D01*
X92087566Y-69991970D01*
X92105229Y-69963674D01*
X92646731Y-69422174D01*
X92699057Y-69400500D01*
X93235630Y-69400500D01*
X93235636Y-69400500D01*
X93308625Y-69389866D01*
X93421211Y-69334826D01*
X93509826Y-69246211D01*
X93564866Y-69133625D01*
X93575500Y-69060636D01*
X93575500Y-69049500D01*
X93597174Y-68997174D01*
X93649500Y-68975500D01*
X93734370Y-68975500D01*
X93786696Y-68997174D01*
X93807597Y-69038830D01*
X93809427Y-69051394D01*
X93860801Y-69156482D01*
X93860802Y-69156483D01*
X93943517Y-69239198D01*
X94048607Y-69290573D01*
X94116740Y-69300500D01*
X94116746Y-69300500D01*
X94733254Y-69300500D01*
X94733260Y-69300500D01*
X94801393Y-69290573D01*
X94906483Y-69239198D01*
X94989198Y-69156483D01*
X95040573Y-69051393D01*
X95050220Y-68985180D01*
X97199500Y-68985180D01*
X97199500Y-70814820D01*
X97208233Y-70858722D01*
X97241496Y-70908504D01*
X97291278Y-70941767D01*
X97335180Y-70950500D01*
X97335181Y-70950500D01*
X99664819Y-70950500D01*
X99664820Y-70950500D01*
X99708722Y-70941767D01*
X99758504Y-70908504D01*
X99791767Y-70858722D01*
X99800500Y-70814820D01*
X99800500Y-68985180D01*
X99791767Y-68941278D01*
X99758504Y-68891496D01*
X99758474Y-68891476D01*
X99708722Y-68858233D01*
X99664820Y-68849500D01*
X97335180Y-68849500D01*
X97313229Y-68853866D01*
X97291277Y-68858233D01*
X97241496Y-68891495D01*
X97241495Y-68891496D01*
X97208233Y-68941277D01*
X97208233Y-68941278D01*
X97199500Y-68985180D01*
X95050220Y-68985180D01*
X95050500Y-68983260D01*
X95050500Y-68516740D01*
X95040573Y-68448607D01*
X94989198Y-68343517D01*
X94922507Y-68276826D01*
X94900833Y-68224500D01*
X94922507Y-68172174D01*
X94974833Y-68150500D01*
X96453337Y-68150500D01*
X96505663Y-68172174D01*
X96526425Y-68212922D01*
X96528246Y-68224414D01*
X96582247Y-68330397D01*
X96666355Y-68414505D01*
X96772338Y-68468506D01*
X96889820Y-68487113D01*
X97007302Y-68468506D01*
X97113285Y-68414505D01*
X97197393Y-68330397D01*
X97251394Y-68224414D01*
X97270001Y-68106932D01*
X97251394Y-67989450D01*
X97251393Y-67989448D01*
X97251393Y-67989446D01*
X97248565Y-67983896D01*
X97240500Y-67950302D01*
X97240500Y-65569057D01*
X97262174Y-65516731D01*
X97431731Y-65347174D01*
X97484057Y-65325500D01*
X98066525Y-65325500D01*
X98066533Y-65325501D01*
X98075145Y-65325501D01*
X98164854Y-65325501D01*
X98164855Y-65325501D01*
X98223460Y-65301225D01*
X98247736Y-65291170D01*
X98311170Y-65227736D01*
X98311170Y-65227735D01*
X98321575Y-65217330D01*
X98321577Y-65217327D01*
X98697327Y-64841577D01*
X98697330Y-64841575D01*
X98707735Y-64831170D01*
X98707736Y-64831170D01*
X98771170Y-64767736D01*
X98805500Y-64684855D01*
X98805500Y-63549500D01*
X98827174Y-63497174D01*
X98879500Y-63475500D01*
X98969010Y-63475500D01*
X99021336Y-63497174D01*
G37*
%TD.AperFunction*%
%TA.AperFunction,Conductor*%
G36*
X93392826Y-58627174D02*
G01*
X93414500Y-58679500D01*
X93414500Y-58688264D01*
X93424427Y-58756393D01*
X93424427Y-58756394D01*
X93475801Y-58861482D01*
X93475802Y-58861483D01*
X93558517Y-58944198D01*
X93663607Y-58995573D01*
X93731740Y-59005500D01*
X93731746Y-59005500D01*
X94067677Y-59005500D01*
X94120003Y-59027174D01*
X94141677Y-59079500D01*
X94120003Y-59131826D01*
X92722265Y-60529565D01*
X92658831Y-60592999D01*
X92658830Y-60593001D01*
X92624499Y-60675880D01*
X92624499Y-60774202D01*
X92624500Y-60774211D01*
X92624500Y-65729173D01*
X92624499Y-65729187D01*
X92624499Y-65824855D01*
X92641068Y-65864855D01*
X92658829Y-65907734D01*
X92658831Y-65907737D01*
X92732671Y-65981577D01*
X92732673Y-65981578D01*
X92799609Y-66048514D01*
X92799612Y-66048518D01*
X92803830Y-66052736D01*
X92867264Y-66116170D01*
X92873257Y-66118652D01*
X92880276Y-66121560D01*
X92880278Y-66121560D01*
X92880282Y-66121562D01*
X92950145Y-66150501D01*
X92950146Y-66150501D01*
X93048467Y-66150501D01*
X93048475Y-66150500D01*
X94732028Y-66150500D01*
X94784354Y-66172174D01*
X94793557Y-66183389D01*
X94810595Y-66208889D01*
X94821644Y-66264438D01*
X94810595Y-66291111D01*
X94793557Y-66316611D01*
X94746466Y-66348078D01*
X94732028Y-66349500D01*
X92239057Y-66349500D01*
X92186731Y-66327826D01*
X92142174Y-66283269D01*
X92120500Y-66230943D01*
X92120500Y-59074204D01*
X92142174Y-59021878D01*
X92194500Y-59000204D01*
X92205151Y-59000975D01*
X92236205Y-59005500D01*
X92743794Y-59005499D01*
X92815561Y-58995044D01*
X92815561Y-58995043D01*
X92815567Y-58995043D01*
X92926280Y-58940919D01*
X93013419Y-58853780D01*
X93067543Y-58743067D01*
X93078000Y-58671295D01*
X93078000Y-58671294D01*
X93078359Y-58668831D01*
X93107351Y-58620176D01*
X93151586Y-58605500D01*
X93340500Y-58605500D01*
X93392826Y-58627174D01*
G37*
%TD.AperFunction*%
%TA.AperFunction,Conductor*%
G36*
X94854589Y-60957174D02*
G01*
X94876263Y-61009500D01*
X94854589Y-61061826D01*
X94843375Y-61071029D01*
X94808399Y-61094398D01*
X94808398Y-61094399D01*
X94753034Y-61177259D01*
X94753034Y-61177260D01*
X94738500Y-61250326D01*
X94738500Y-61499674D01*
X94751727Y-61566170D01*
X94753034Y-61572740D01*
X94810595Y-61658888D01*
X94821644Y-61714437D01*
X94810595Y-61741112D01*
X94753034Y-61827259D01*
X94752126Y-61831825D01*
X94738500Y-61900326D01*
X94738500Y-62149674D01*
X94742655Y-62170564D01*
X94749780Y-62206383D01*
X94738731Y-62261931D01*
X94691638Y-62293397D01*
X94684608Y-62294089D01*
X94562519Y-62313426D01*
X94562518Y-62313426D01*
X94456535Y-62367428D01*
X94372430Y-62451533D01*
X94318428Y-62557516D01*
X94318428Y-62557517D01*
X94299821Y-62675000D01*
X94318428Y-62792482D01*
X94318428Y-62792483D01*
X94342939Y-62840587D01*
X94369600Y-62892913D01*
X94372430Y-62898466D01*
X94421637Y-62947673D01*
X94443311Y-62999999D01*
X94421637Y-63052325D01*
X94372428Y-63101533D01*
X94318426Y-63207516D01*
X94318426Y-63207517D01*
X94299819Y-63325000D01*
X94318426Y-63442482D01*
X94318426Y-63442483D01*
X94344373Y-63493405D01*
X94372427Y-63548465D01*
X94456535Y-63632573D01*
X94562518Y-63686574D01*
X94680000Y-63705181D01*
X94685752Y-63706092D01*
X94685361Y-63708560D01*
X94729528Y-63726855D01*
X94751202Y-63779181D01*
X94749780Y-63793617D01*
X94738500Y-63850326D01*
X94738500Y-64099674D01*
X94750198Y-64158481D01*
X94753034Y-64172740D01*
X94784945Y-64220500D01*
X94808399Y-64255601D01*
X94891260Y-64310966D01*
X94964326Y-64325500D01*
X96248043Y-64325500D01*
X96300369Y-64347174D01*
X96444293Y-64491098D01*
X96465967Y-64543424D01*
X96444294Y-64595749D01*
X96415737Y-64624306D01*
X96361735Y-64730289D01*
X96361735Y-64730290D01*
X96343128Y-64847773D01*
X96343128Y-64850500D01*
X96342428Y-64852188D01*
X96342217Y-64853525D01*
X96341896Y-64853474D01*
X96321454Y-64902826D01*
X96269128Y-64924500D01*
X94964326Y-64924500D01*
X94916768Y-64933960D01*
X94891259Y-64939034D01*
X94808399Y-64994398D01*
X94808398Y-64994399D01*
X94793557Y-65016612D01*
X94746465Y-65048078D01*
X94732028Y-65049500D01*
X93459057Y-65049500D01*
X93406731Y-65027826D01*
X93397174Y-65018269D01*
X93375500Y-64965943D01*
X93375500Y-64532135D01*
X93397174Y-64479809D01*
X93449500Y-64458135D01*
X93483093Y-64466200D01*
X93552518Y-64501574D01*
X93670000Y-64520181D01*
X93787482Y-64501574D01*
X93893465Y-64447573D01*
X93977573Y-64363465D01*
X94031574Y-64257482D01*
X94050181Y-64140000D01*
X94031574Y-64022518D01*
X93977573Y-63916535D01*
X93893465Y-63832427D01*
X93817296Y-63793617D01*
X93787483Y-63778426D01*
X93737923Y-63770576D01*
X93689632Y-63740982D01*
X93675500Y-63697487D01*
X93675500Y-61093321D01*
X93697174Y-61040995D01*
X93780995Y-60957174D01*
X93833321Y-60935500D01*
X94802263Y-60935500D01*
X94854589Y-60957174D01*
G37*
%TD.AperFunction*%
%TA.AperFunction,Conductor*%
G36*
X99021336Y-61097174D02*
G01*
X99042099Y-61137925D01*
X99054353Y-61215304D01*
X99054354Y-61215306D01*
X99111950Y-61328342D01*
X99171282Y-61387674D01*
X99192956Y-61440000D01*
X99171282Y-61492326D01*
X99111951Y-61551656D01*
X99054353Y-61664698D01*
X99039500Y-61758480D01*
X99039500Y-62321519D01*
X99054353Y-62415304D01*
X99054354Y-62415306D01*
X99111950Y-62528342D01*
X99171282Y-62587674D01*
X99192956Y-62640000D01*
X99171282Y-62692326D01*
X99111951Y-62751656D01*
X99054353Y-62864698D01*
X99039045Y-62961353D01*
X99037247Y-62961068D01*
X99013951Y-63006777D01*
X98965899Y-63024500D01*
X98783475Y-63024500D01*
X98783467Y-63024499D01*
X98774855Y-63024499D01*
X98685145Y-63024499D01*
X98637103Y-63044399D01*
X98602265Y-63058829D01*
X98388830Y-63272264D01*
X98383197Y-63285863D01*
X98354499Y-63355144D01*
X98354499Y-63453466D01*
X98354500Y-63453475D01*
X98354500Y-64515943D01*
X98332826Y-64568269D01*
X98048269Y-64852826D01*
X97995943Y-64874500D01*
X97413475Y-64874500D01*
X97413467Y-64874499D01*
X97404855Y-64874499D01*
X97315146Y-64874499D01*
X97266594Y-64894608D01*
X97266595Y-64894609D01*
X97232267Y-64908828D01*
X97232263Y-64908830D01*
X97228805Y-64912289D01*
X97176478Y-64933960D01*
X97124153Y-64912283D01*
X97102482Y-64859956D01*
X97103392Y-64848388D01*
X97103490Y-64847773D01*
X97084883Y-64730291D01*
X97030882Y-64624308D01*
X96995483Y-64588909D01*
X96973809Y-64536583D01*
X96973809Y-64366025D01*
X96973808Y-64366023D01*
X96972748Y-64363465D01*
X96935673Y-64273956D01*
X96865206Y-64203489D01*
X96710314Y-64048597D01*
X96688640Y-63996271D01*
X96710314Y-63943945D01*
X97432086Y-63222174D01*
X97484412Y-63200500D01*
X97985630Y-63200500D01*
X97985636Y-63200500D01*
X98058625Y-63189866D01*
X98171211Y-63134826D01*
X98259826Y-63046211D01*
X98314866Y-62933625D01*
X98325500Y-62860636D01*
X98325500Y-62339364D01*
X98314866Y-62266375D01*
X98259826Y-62153789D01*
X98171211Y-62065174D01*
X98171210Y-62065173D01*
X98058626Y-62010134D01*
X97985640Y-61999500D01*
X97985636Y-61999500D01*
X97414364Y-61999500D01*
X97414359Y-61999500D01*
X97341374Y-62010134D01*
X97341372Y-62010134D01*
X97245564Y-62056972D01*
X97189036Y-62060481D01*
X97146583Y-62022991D01*
X97143074Y-61966463D01*
X97160736Y-61938168D01*
X98001731Y-61097174D01*
X98054057Y-61075500D01*
X98969010Y-61075500D01*
X99021336Y-61097174D01*
G37*
%TD.AperFunction*%
%TA.AperFunction,Conductor*%
G36*
X90634268Y-55002174D02*
G01*
X90655942Y-55054500D01*
X90634268Y-55106826D01*
X89858831Y-55882263D01*
X89858830Y-55882265D01*
X89824499Y-55965144D01*
X89824499Y-56063466D01*
X89824500Y-56063475D01*
X89824500Y-57925500D01*
X89802826Y-57977826D01*
X89750500Y-57999500D01*
X89749820Y-57999500D01*
X88020180Y-57999500D01*
X87999544Y-58003605D01*
X87976277Y-58008233D01*
X87926496Y-58041495D01*
X87926495Y-58041496D01*
X87893233Y-58091277D01*
X87884500Y-58135180D01*
X87884500Y-59650942D01*
X87862826Y-59703268D01*
X87573831Y-59992263D01*
X87573830Y-59992265D01*
X87539499Y-60075144D01*
X87539499Y-60173466D01*
X87539500Y-60173475D01*
X87539500Y-60385381D01*
X87517826Y-60437707D01*
X87476169Y-60458607D01*
X87451375Y-60462220D01*
X87431374Y-60465134D01*
X87431373Y-60465134D01*
X87318789Y-60520173D01*
X87230173Y-60608789D01*
X87175134Y-60721373D01*
X87175134Y-60721374D01*
X87164500Y-60794359D01*
X87164500Y-61275942D01*
X87142826Y-61328268D01*
X86557669Y-61913424D01*
X86505343Y-61935098D01*
X86472846Y-61927581D01*
X86466394Y-61924427D01*
X86398264Y-61914500D01*
X86398260Y-61914500D01*
X85931740Y-61914500D01*
X85931735Y-61914500D01*
X85863606Y-61924427D01*
X85863605Y-61924427D01*
X85758517Y-61975801D01*
X85675801Y-62058517D01*
X85624427Y-62163605D01*
X85624427Y-62163606D01*
X85614500Y-62231735D01*
X85614500Y-62240500D01*
X85592826Y-62292826D01*
X85540500Y-62314500D01*
X85513475Y-62314500D01*
X85513467Y-62314499D01*
X85504855Y-62314499D01*
X85415146Y-62314499D01*
X85366594Y-62334608D01*
X85366595Y-62334609D01*
X85332267Y-62348828D01*
X85332265Y-62348829D01*
X85216826Y-62464268D01*
X85164500Y-62485942D01*
X85112174Y-62464268D01*
X85090500Y-62411942D01*
X85090500Y-55435180D01*
X85349500Y-55435180D01*
X85349500Y-57164820D01*
X85354853Y-57191731D01*
X85358233Y-57208722D01*
X85390437Y-57256920D01*
X85391496Y-57258504D01*
X85441278Y-57291767D01*
X85485180Y-57300500D01*
X85485181Y-57300500D01*
X87214819Y-57300500D01*
X87214820Y-57300500D01*
X87258722Y-57291767D01*
X87308504Y-57258504D01*
X87341767Y-57208722D01*
X87350500Y-57164820D01*
X87350500Y-55435180D01*
X87341767Y-55391278D01*
X87308504Y-55341496D01*
X87258722Y-55308233D01*
X87214820Y-55299500D01*
X85485180Y-55299500D01*
X85463229Y-55303866D01*
X85441277Y-55308233D01*
X85391496Y-55341495D01*
X85391495Y-55341496D01*
X85358233Y-55391277D01*
X85358233Y-55391278D01*
X85349500Y-55435180D01*
X85090500Y-55435180D01*
X85090500Y-55054500D01*
X85112174Y-55002174D01*
X85164500Y-54980500D01*
X90581942Y-54980500D01*
X90634268Y-55002174D01*
G37*
%TD.AperFunction*%
%TA.AperFunction,Conductor*%
G36*
X100347826Y-55002174D02*
G01*
X100369500Y-55054500D01*
X100369500Y-59074456D01*
X100347826Y-59126782D01*
X100295500Y-59148456D01*
X100243174Y-59126782D01*
X100178343Y-59061951D01*
X100178342Y-59061950D01*
X100065304Y-59004354D01*
X100065302Y-59004353D01*
X100065301Y-59004353D01*
X99971519Y-58989500D01*
X99408480Y-58989500D01*
X99314695Y-59004353D01*
X99314693Y-59004354D01*
X99201657Y-59061950D01*
X99111951Y-59151656D01*
X99054353Y-59264698D01*
X99039045Y-59361353D01*
X99037247Y-59361068D01*
X99013951Y-59406777D01*
X98965899Y-59424500D01*
X98345145Y-59424500D01*
X98262266Y-59458828D01*
X98262263Y-59458830D01*
X96593269Y-61127826D01*
X96540943Y-61149500D01*
X96520972Y-61149500D01*
X96468646Y-61127826D01*
X96459443Y-61116612D01*
X96444601Y-61094399D01*
X96444600Y-61094398D01*
X96361740Y-61039034D01*
X96288674Y-61024500D01*
X96288672Y-61024500D01*
X95571945Y-61024500D01*
X95519619Y-61002826D01*
X95497945Y-60950500D01*
X95506011Y-60916904D01*
X95515555Y-60898174D01*
X95551574Y-60827482D01*
X95570181Y-60710000D01*
X95551574Y-60592518D01*
X95497573Y-60486535D01*
X95413465Y-60402427D01*
X95326614Y-60358174D01*
X95307483Y-60348426D01*
X95190000Y-60329819D01*
X95072517Y-60348426D01*
X95072516Y-60348426D01*
X94966533Y-60402428D01*
X94906136Y-60462826D01*
X94853810Y-60484500D01*
X94008057Y-60484500D01*
X93955731Y-60462826D01*
X93934057Y-60410500D01*
X93955731Y-60358174D01*
X94242440Y-60071465D01*
X95291477Y-59022426D01*
X95343802Y-59000753D01*
X95354461Y-59001525D01*
X95381740Y-59005500D01*
X95381745Y-59005500D01*
X95848254Y-59005500D01*
X95848260Y-59005500D01*
X95916393Y-58995573D01*
X96021483Y-58944198D01*
X96093493Y-58872188D01*
X96145819Y-58850514D01*
X96198145Y-58872188D01*
X96215772Y-58914745D01*
X96218908Y-58914249D01*
X96238426Y-59037482D01*
X96238426Y-59037483D01*
X96257137Y-59074204D01*
X96292427Y-59143465D01*
X96376535Y-59227573D01*
X96482518Y-59281574D01*
X96600000Y-59300181D01*
X96717482Y-59281574D01*
X96823465Y-59227573D01*
X96907573Y-59143465D01*
X96961574Y-59037482D01*
X96980181Y-58920000D01*
X96961574Y-58802518D01*
X96907573Y-58696535D01*
X96832174Y-58621136D01*
X96810500Y-58568810D01*
X96810500Y-57309246D01*
X96832174Y-57256920D01*
X96863017Y-57238433D01*
X96894727Y-57228814D01*
X97068538Y-57135910D01*
X97220883Y-57010883D01*
X97345910Y-56858538D01*
X97438814Y-56684727D01*
X97496024Y-56496132D01*
X97515341Y-56300000D01*
X98044659Y-56300000D01*
X98063976Y-56496133D01*
X98121187Y-56684731D01*
X98192397Y-56817953D01*
X98214090Y-56858538D01*
X98339117Y-57010883D01*
X98491462Y-57135910D01*
X98545618Y-57164857D01*
X98665268Y-57228812D01*
X98665270Y-57228812D01*
X98665273Y-57228814D01*
X98853868Y-57286024D01*
X99050000Y-57305341D01*
X99246132Y-57286024D01*
X99434727Y-57228814D01*
X99608538Y-57135910D01*
X99760883Y-57010883D01*
X99885910Y-56858538D01*
X99978814Y-56684727D01*
X100036024Y-56496132D01*
X100055341Y-56300000D01*
X100036024Y-56103868D01*
X99978814Y-55915273D01*
X99978812Y-55915270D01*
X99978812Y-55915268D01*
X99907602Y-55782045D01*
X99885910Y-55741462D01*
X99760883Y-55589117D01*
X99608538Y-55464090D01*
X99583113Y-55450500D01*
X99434731Y-55371187D01*
X99246133Y-55313976D01*
X99050000Y-55294659D01*
X98853866Y-55313976D01*
X98665268Y-55371187D01*
X98491463Y-55464089D01*
X98339117Y-55589117D01*
X98214089Y-55741463D01*
X98121187Y-55915268D01*
X98063976Y-56103866D01*
X98044659Y-56300000D01*
X97515341Y-56300000D01*
X97496024Y-56103868D01*
X97438814Y-55915273D01*
X97438812Y-55915270D01*
X97438812Y-55915268D01*
X97367602Y-55782045D01*
X97345910Y-55741462D01*
X97220883Y-55589117D01*
X97068538Y-55464090D01*
X97043113Y-55450500D01*
X96894731Y-55371187D01*
X96706133Y-55313976D01*
X96510000Y-55294659D01*
X96313866Y-55313976D01*
X96125270Y-55371187D01*
X96026927Y-55423751D01*
X95970563Y-55429301D01*
X95939719Y-55410814D01*
X95636578Y-55107673D01*
X95636578Y-55107672D01*
X95635732Y-55106826D01*
X95614058Y-55054500D01*
X95635732Y-55002174D01*
X95688058Y-54980500D01*
X100295500Y-54980500D01*
X100347826Y-55002174D01*
G37*
%TD.AperFunction*%
%TD*%
M02*
