G04 EasyEDA Pro v1.9.28, 2023-01-14 19:19:00*
G04 Gerber Generator version 0.3*%TF.GenerationSoftware,KiCad,Pcbnew,8.0.3*%
%TF.CreationDate,2024-11-10T00:39:18+08:00*%
%TF.ProjectId,NekoPurrTech_TiltingCtrl,4e656b6f-5075-4727-9254-6563685f5469,rev?*%
%TF.SameCoordinates,Original*%
%TF.FileFunction,Copper,L2,Bot*%
%TF.FilePolarity,Positive*%
%FSLAX46Y46*%
G04 Gerber Fmt 4.6, Leading zero omitted, Abs format (unit mm)*
G04 Created by KiCad (PCBNEW 8.0.3) date 2024-11-10 00:39:18*
%MOMM*%
%LPD*%
G01*
G04 APERTURE LIST*
G04 Aperture macros list*
%AMRoundRect*
0 Rectangle with rounded corners*
0 $1 Rounding radius*
0 $2 $3 $4 $5 $6 $7 $8 $9 X,Y pos of 4 corners*
0 Add a 4 corners polygon primitive as box body*
4,1,4,$2,$3,$4,$5,$6,$7,$8,$9,$2,$3,0*
0 Add four circle primitives for the rounded corners*
1,1,$1+$1,$2,$3*
1,1,$1+$1,$4,$5*
1,1,$1+$1,$6,$7*
1,1,$1+$1,$8,$9*
0 Add four rect primitives between the rounded corners*
20,1,$1+$1,$2,$3,$4,$5,0*
20,1,$1+$1,$4,$5,$6,$7,0*
20,1,$1+$1,$6,$7,$8,$9,0*
20,1,$1+$1,$8,$9,$2,$3,0*%
G04 Aperture macros list end*
%TA.AperFunction,SMDPad,CuDef*%
%ADD10R,0.350000X0.600000*%
%TD*%
%TA.AperFunction,SMDPad,CuDef*%
%ADD11R,1.700000X1.100000*%
%TD*%
%TA.AperFunction,SMDPad,CuDef*%
%ADD12R,0.650000X1.525000*%
%TD*%
%TA.AperFunction,SMDPad,CuDef*%
%ADD13R,2.390000X2.390000*%
%TD*%
%TA.AperFunction,ComponentPad*%
%ADD14R,1.700000X1.700000*%
%TD*%
%TA.AperFunction,ComponentPad*%
%ADD15O,1.700000X1.700000*%
%TD*%
%TA.AperFunction,SMDPad,CuDef*%
%ADD16R,2.300000X1.800000*%
%TD*%
%TA.AperFunction,SMDPad,CuDef*%
%ADD17RoundRect,0.225000X-0.225000X-0.250000X0.225000X-0.250000X0.225000X0.250000X-0.225000X0.250000X0*%
%TD*%
%TA.AperFunction,SMDPad,CuDef*%
%ADD18RoundRect,0.200000X0.275000X-0.200000X0.275000X0.200000X-0.275000X0.200000X-0.275000X-0.200000X0*%
%TD*%
%TA.AperFunction,SMDPad,CuDef*%
%ADD19RoundRect,0.225000X0.225000X0.250000X-0.225000X0.250000X-0.225000X-0.250000X0.225000X-0.250000X0*%
%TD*%
%TA.AperFunction,SMDPad,CuDef*%
%ADD20RoundRect,0.218750X0.256250X-0.218750X0.256250X0.218750X-0.256250X0.218750X-0.256250X-0.218750X0*%
%TD*%
%TA.AperFunction,SMDPad,CuDef*%
%ADD21RoundRect,0.225000X-0.250000X0.225000X-0.250000X-0.225000X0.250000X-0.225000X0.250000X0.225000X0*%
%TD*%
%TA.AperFunction,SMDPad,CuDef*%
%ADD22RoundRect,0.250000X0.312500X0.625000X-0.312500X0.625000X-0.312500X-0.625000X0.312500X-0.625000X0*%
%TD*%
%TA.AperFunction,ViaPad*%
%ADD23C,0.450000*%
%TD*%
%TA.AperFunction,Conductor*%
%ADD24C,0.300000*%
%TD*%
%TA.AperFunction,Conductor*%
%ADD25C,0.600000*%
%TD*%
%TA.AperFunction,Conductor*%
%ADD26C,0.400000*%
%TD*%
%TA.AperFunction,Conductor*%
%ADD27C,0.150000*%
%TD*%
%TA.AperFunction,Conductor*%
%ADD28C,0.200000*%
%TD*%
G04 APERTURE END LIST*
D10*
%TO.P,IC3,1,OUT*%
%TO.N,+3.3V_ENC*%
X97475000Y-60662500D03*
%TO.P,IC3,2,NC_1*%
%TO.N,unconnected-(IC3-NC_1-Pad2)*%
X98125000Y-60662500D03*
%TO.P,IC3,3,GND_1*%
%TO.N,GND*%
X98775000Y-60662500D03*
%TO.P,IC3,4,EN*%
%TO.N,unconnected-(IC3-EN-Pad4)*%
X98775000Y-62762500D03*
%TO.P,IC3,5,NC_2*%
%TO.N,unconnected-(IC3-NC_2-Pad5)*%
X98125000Y-62762500D03*
%TO.P,IC3,6,IN*%
%TO.N,VCC*%
X97475000Y-62762500D03*
D11*
%TO.P,IC3,7,GND_2*%
%TO.N,GND*%
X98125000Y-61712500D03*
%TD*%
D12*
%TO.P,IC2,1,GND*%
%TO.N,GND*%
X93980000Y-67337000D03*
%TO.P,IC2,2,IN2*%
%TO.N,/IN2*%
X92710000Y-67337000D03*
%TO.P,IC2,3,IN1*%
%TO.N,/IN1*%
X91440000Y-67337000D03*
%TO.P,IC2,4,VREF*%
%TO.N,/Motor_PWM_OUT*%
X90170000Y-67337000D03*
%TO.P,IC2,5,VM*%
%TO.N,VCC*%
X90170000Y-61913000D03*
%TO.P,IC2,6,OUT1*%
%TO.N,/Motor+*%
X91440000Y-61913000D03*
%TO.P,IC2,7,RS*%
%TO.N,Net-(IC2-RS)*%
X92710000Y-61913000D03*
%TO.P,IC2,8,OUT2*%
%TO.N,/Motor-*%
X93980000Y-61913000D03*
D13*
%TO.P,IC2,9,EP*%
%TO.N,GND*%
X92075000Y-64625000D03*
%TD*%
D10*
%TO.P,IC1,1,OUT*%
%TO.N,+3.3V_MCU*%
X97480000Y-66763000D03*
%TO.P,IC1,2,NC_1*%
%TO.N,unconnected-(IC1-NC_1-Pad2)*%
X98130000Y-66763000D03*
%TO.P,IC1,3,GND_1*%
%TO.N,GND*%
X98780000Y-66763000D03*
%TO.P,IC1,4,EN*%
%TO.N,unconnected-(IC1-EN-Pad4)*%
X98780000Y-68863000D03*
%TO.P,IC1,5,NC_2*%
%TO.N,unconnected-(IC1-NC_2-Pad5)*%
X98130000Y-68863000D03*
%TO.P,IC1,6,IN*%
%TO.N,VCC*%
X97480000Y-68863000D03*
D11*
%TO.P,IC1,7,GND_2*%
%TO.N,GND*%
X98130000Y-67813000D03*
%TD*%
D14*
%TO.P,J5,1,Pin_1*%
%TO.N,/Klicky*%
X88885000Y-59000000D03*
D15*
%TO.P,J5,2,Pin_2*%
%TO.N,GND*%
X86345000Y-59000000D03*
%TD*%
D14*
%TO.P,J3,1,Pin_1*%
%TO.N,/Motor+*%
X86350000Y-56300000D03*
D15*
%TO.P,J3,2,Pin_2*%
%TO.N,GND*%
X88890000Y-56300000D03*
%TO.P,J3,3,Pin_3*%
%TO.N,/ENC_A*%
X91430000Y-56300000D03*
%TO.P,J3,4,Pin_4*%
%TO.N,/ENC_B*%
X93970000Y-56300000D03*
%TO.P,J3,5,Pin_5*%
%TO.N,+3.3V_ENC*%
X96510000Y-56300000D03*
%TO.P,J3,6,Pin_6*%
%TO.N,/Motor-*%
X99050000Y-56300000D03*
%TD*%
D14*
%TO.P,J2,1,Pin_1*%
%TO.N,/FMU_PWM*%
X91580000Y-73600000D03*
D15*
%TO.P,J2,2,Pin_2*%
%TO.N,unconnected-(J2-Pin_2-Pad2)*%
X89040000Y-73600000D03*
%TO.P,J2,3,Pin_3*%
%TO.N,GND*%
X86500000Y-73600000D03*
%TD*%
D14*
%TO.P,J1,1,Pin_1*%
%TO.N,VCC*%
X99025000Y-73600000D03*
D15*
%TO.P,J1,2,Pin_2*%
%TO.N,GND*%
X96485000Y-73600000D03*
%TD*%
D16*
%TO.P,C12,1*%
%TO.N,VCC*%
X87400000Y-63175000D03*
%TO.P,C12,2*%
%TO.N,GND*%
X87400000Y-66075000D03*
%TD*%
D17*
%TO.P,C10,1*%
%TO.N,+3.3V_MCU*%
X97175000Y-65500000D03*
%TO.P,C10,2*%
%TO.N,GND*%
X98725000Y-65500000D03*
%TD*%
D18*
%TO.P,R4,1*%
%TO.N,Net-(C2-Pad1)*%
X91500000Y-70650000D03*
%TO.P,R4,2*%
%TO.N,/Motor_PWM_OUT*%
X91500000Y-69000000D03*
%TD*%
D19*
%TO.P,C9,1*%
%TO.N,VCC*%
X98725000Y-70150000D03*
%TO.P,C9,2*%
%TO.N,GND*%
X97175000Y-70150000D03*
%TD*%
D20*
%TO.P,D2,1,K*%
%TO.N,Net-(D2-K)*%
X96075000Y-60925000D03*
%TO.P,D2,2,A*%
%TO.N,+3.3V_ENC*%
X96075000Y-59350000D03*
%TD*%
D18*
%TO.P,R1,1*%
%TO.N,/Motor_PWM*%
X94425000Y-70650000D03*
%TO.P,R1,2*%
%TO.N,Net-(C2-Pad1)*%
X94425000Y-69000000D03*
%TD*%
D21*
%TO.P,C7,1*%
%TO.N,/Motor_PWM_OUT*%
X90050000Y-69050000D03*
%TO.P,C7,2*%
%TO.N,GND*%
X90050000Y-70600000D03*
%TD*%
D22*
%TO.P,R9,1*%
%TO.N,Net-(IC2-RS)*%
X93552500Y-59080000D03*
%TO.P,R9,2*%
%TO.N,GND*%
X90627500Y-59080000D03*
%TD*%
D17*
%TO.P,C13,1*%
%TO.N,+3.3V_ENC*%
X97175000Y-59387500D03*
%TO.P,C13,2*%
%TO.N,GND*%
X98725000Y-59387500D03*
%TD*%
D18*
%TO.P,R10,1*%
%TO.N,GND*%
X96100000Y-64112500D03*
%TO.P,R10,2*%
%TO.N,Net-(D2-K)*%
X96100000Y-62462500D03*
%TD*%
%TO.P,R8,1*%
%TO.N,GND*%
X96100000Y-70225000D03*
%TO.P,R8,2*%
%TO.N,Net-(D1-K)*%
X96100000Y-68575000D03*
%TD*%
D20*
%TO.P,D1,1,K*%
%TO.N,Net-(D1-K)*%
X96075000Y-67037500D03*
%TO.P,D1,2,A*%
%TO.N,+3.3V_MCU*%
X96075000Y-65462500D03*
%TD*%
D19*
%TO.P,C11,1*%
%TO.N,VCC*%
X98725000Y-64037500D03*
%TO.P,C11,2*%
%TO.N,GND*%
X97175000Y-64037500D03*
%TD*%
D21*
%TO.P,C2,1*%
%TO.N,Net-(C2-Pad1)*%
X92950000Y-69050000D03*
%TO.P,C2,2*%
%TO.N,GND*%
X92950000Y-70600000D03*
%TD*%
D23*
%TO.N,VCC*%
X98050000Y-70475000D03*
X98050000Y-70125000D03*
X98050000Y-69775000D03*
%TO.N,/IN1*%
X90870002Y-67225000D03*
%TO.N,GND*%
X96480000Y-70970000D03*
X92360000Y-70500000D03*
X89290000Y-69790000D03*
X90790000Y-69820000D03*
X94167562Y-63804687D03*
X92370000Y-64830000D03*
X96890000Y-70970000D03*
X93650000Y-69830000D03*
X99210000Y-66890000D03*
X92960000Y-69940000D03*
X96070000Y-70970000D03*
X86520000Y-65500000D03*
X99210000Y-66480000D03*
X87010000Y-65500000D03*
X94169232Y-64472822D03*
X92370000Y-64380000D03*
X95600000Y-60150000D03*
X92370000Y-63930000D03*
X95660000Y-70970000D03*
X97100000Y-64030000D03*
%TO.N,/IN2*%
X93123000Y-67337000D03*
%TO.N,+3.3V_MCU*%
X99325000Y-64780027D03*
X96723309Y-64847773D03*
%TO.N,+3.3V_ENC*%
X96600000Y-58920000D03*
%TO.N,/Dbg_RX*%
X99690000Y-62040000D03*
X90969070Y-66229057D03*
X93670000Y-64140000D03*
X95190000Y-60710000D03*
%TO.N,/Motor_PWM*%
X94680000Y-63325000D03*
%TO.N,/Dbg_TX*%
X89025000Y-65940000D03*
X96889820Y-68106932D03*
%TO.N,/FMU_PWM_OUT*%
X94680002Y-62675000D03*
X89262746Y-68332107D03*
%TO.N,/Klicky*%
X89050000Y-64580000D03*
X87460000Y-64494998D03*
%TD*%
D24*
%TO.N,VCC*%
X98050000Y-69775000D02*
X98241000Y-69775000D01*
X98241000Y-69775000D02*
X98553000Y-69463000D01*
X98725000Y-69635000D02*
X98725000Y-70150000D01*
X98160000Y-69463000D02*
X98553000Y-69463000D01*
X98553000Y-69463000D02*
X98725000Y-69635000D01*
X97475000Y-63113804D02*
X97475000Y-62762500D01*
X98562500Y-63362500D02*
X97723696Y-63362500D01*
X97723696Y-63362500D02*
X97475000Y-63113804D01*
X98725000Y-64037500D02*
X98725000Y-63525000D01*
X98725000Y-63525000D02*
X98562500Y-63362500D01*
X99510000Y-70150000D02*
X98725000Y-70150000D01*
X99850000Y-69810000D02*
X99510000Y-70150000D01*
X99850000Y-64325000D02*
X99850000Y-69810000D01*
X99562500Y-64037500D02*
X99850000Y-64325000D01*
X98725000Y-64037500D02*
X99562500Y-64037500D01*
X98775000Y-63987500D02*
X98725000Y-64037500D01*
D25*
X99025000Y-72425000D02*
X98450000Y-71850000D01*
D24*
X98075000Y-70150000D02*
X98050000Y-70125000D01*
X98725000Y-70150000D02*
X98075000Y-70150000D01*
X97480000Y-68863000D02*
X97480000Y-69240000D01*
D25*
X99025000Y-73600000D02*
X99025000Y-72425000D01*
D24*
X98160000Y-69463000D02*
X98160000Y-69665000D01*
X98780000Y-70095000D02*
X98725000Y-70150000D01*
D25*
X87400000Y-63175000D02*
X88662000Y-61913000D01*
D24*
X98160000Y-69665000D02*
X98050000Y-69775000D01*
D25*
X86430000Y-71850000D02*
X85800000Y-71220000D01*
X85800000Y-64775000D02*
X87400000Y-63175000D01*
D24*
X98050000Y-69775000D02*
X98050000Y-70125000D01*
D26*
X98050000Y-69775000D02*
X98050000Y-69975000D01*
D24*
X97480000Y-69240000D02*
X97703000Y-69463000D01*
D25*
X85800000Y-71220000D02*
X85800000Y-64775000D01*
D24*
X98050000Y-69775000D02*
X98175000Y-69650000D01*
D26*
X98050000Y-70475000D02*
X98400000Y-70475000D01*
D24*
X97703000Y-69463000D02*
X98160000Y-69463000D01*
D25*
X98750000Y-70175000D02*
X98725000Y-70150000D01*
X88662000Y-61913000D02*
X90170000Y-61913000D01*
D24*
X98065000Y-69960000D02*
X98050000Y-69975000D01*
X98535000Y-69960000D02*
X98065000Y-69960000D01*
X98050000Y-69775000D02*
X98350000Y-69775000D01*
D26*
X98400000Y-70475000D02*
X98725000Y-70150000D01*
D25*
X98450000Y-71850000D02*
X86430000Y-71850000D01*
D24*
X98350000Y-69775000D02*
X98725000Y-70150000D01*
D25*
X98750000Y-71550000D02*
X98750000Y-70175000D01*
D24*
X98725000Y-70150000D02*
X98535000Y-69960000D01*
D26*
X98050000Y-69975000D02*
X98050000Y-70475000D01*
D25*
X98450000Y-71850000D02*
X98750000Y-71550000D01*
D27*
%TO.N,/IN1*%
X90870002Y-67225000D02*
X90982002Y-67337000D01*
X90982002Y-67337000D02*
X91440000Y-67337000D01*
D25*
%TO.N,/Motor-*%
X95250000Y-57630000D02*
X98590000Y-57630000D01*
X95250000Y-57630000D02*
X94565000Y-58315000D01*
X99050000Y-57170000D02*
X99050000Y-56300000D01*
X93980000Y-60965405D02*
X93980000Y-61913000D01*
X94565000Y-58315000D02*
X94565000Y-60380405D01*
X94565000Y-60380405D02*
X93980000Y-60965405D01*
X98590000Y-57630000D02*
X99050000Y-57170000D01*
D26*
%TO.N,GND*%
X87420000Y-66410000D02*
X87400000Y-66075000D01*
X87600000Y-66075000D02*
X87420000Y-66410000D01*
D27*
%TO.N,/IN2*%
X93123000Y-67337000D02*
X92710000Y-67337000D01*
%TO.N,/Motor_PWM_OUT*%
X90050000Y-68925000D02*
X90170000Y-68805000D01*
X91450000Y-69050000D02*
X91500000Y-69000000D01*
X90050000Y-69050000D02*
X90050000Y-68925000D01*
X90170000Y-68805000D02*
X90170000Y-67337000D01*
X90050000Y-69050000D02*
X91450000Y-69050000D01*
D25*
%TO.N,/Motor+*%
X91151878Y-57670000D02*
X91640000Y-58158122D01*
X91640000Y-58158122D02*
X91640000Y-60360000D01*
X91400000Y-61873000D02*
X91440000Y-61913000D01*
X86350000Y-57440000D02*
X86580000Y-57670000D01*
X86350000Y-56300000D02*
X86350000Y-57440000D01*
X91400000Y-60600000D02*
X91400000Y-61873000D01*
X86580000Y-57670000D02*
X91151878Y-57670000D01*
X91640000Y-60360000D02*
X91400000Y-60600000D01*
D28*
%TO.N,+3.3V_MCU*%
X96723309Y-65048309D02*
X97175000Y-65500000D01*
D24*
X97137500Y-65462500D02*
X97175000Y-65500000D01*
D28*
X99319973Y-64775000D02*
X99325000Y-64780027D01*
D24*
X96075000Y-65462500D02*
X97137500Y-65462500D01*
D28*
X97900000Y-64775000D02*
X99319973Y-64775000D01*
D24*
X97480000Y-65805000D02*
X97175000Y-65500000D01*
D28*
X96723309Y-64847773D02*
X96723309Y-65048309D01*
X97175000Y-65500000D02*
X97900000Y-64775000D01*
D24*
X97480000Y-66763000D02*
X97480000Y-65805000D01*
%TO.N,+3.3V_ENC*%
X96170000Y-59350000D02*
X96075000Y-59350000D01*
X96112500Y-59387500D02*
X96075000Y-59350000D01*
X97475000Y-59687500D02*
X97175000Y-59387500D01*
X97175000Y-59387500D02*
X96112500Y-59387500D01*
X97475000Y-60662500D02*
X97475000Y-59687500D01*
X96600000Y-58920000D02*
X96170000Y-59350000D01*
D27*
%TO.N,/Dbg_RX*%
X95150000Y-60670000D02*
X95150000Y-58730000D01*
X95190000Y-60710000D02*
X95150000Y-60670000D01*
X90969070Y-66229057D02*
X93500943Y-66229057D01*
X93500943Y-66229057D02*
X93670000Y-66060000D01*
X95720000Y-58160000D02*
X98950000Y-58160000D01*
X99690000Y-58900000D02*
X99690000Y-62040000D01*
X93670000Y-66060000D02*
X93670000Y-64140000D01*
X95150000Y-58730000D02*
X95720000Y-58160000D01*
X98950000Y-58160000D02*
X99690000Y-58900000D01*
%TO.N,/Motor_PWM*%
X95175000Y-65075000D02*
X95175000Y-69335000D01*
X95175000Y-69335000D02*
X94420000Y-70090000D01*
X94680000Y-63325000D02*
X94680000Y-64580000D01*
X94680000Y-64580000D02*
X95175000Y-65075000D01*
X94420000Y-70645000D02*
X94425000Y-70650000D01*
X94420000Y-70090000D02*
X94420000Y-70645000D01*
%TO.N,/Dbg_TX*%
X94876582Y-71280000D02*
X95125000Y-71031582D01*
X88812746Y-70480376D02*
X89612370Y-71280000D01*
X95643418Y-69600000D02*
X96556582Y-69600000D01*
X96556582Y-69600000D02*
X96889820Y-69266762D01*
X89025000Y-65940000D02*
X88812746Y-66152254D01*
X89612370Y-71280000D02*
X94876582Y-71280000D01*
X95125000Y-70118418D02*
X95643418Y-69600000D01*
X95125000Y-71031582D02*
X95125000Y-70118418D01*
X96889820Y-69266762D02*
X96889820Y-68106932D01*
X88812746Y-66152254D02*
X88812746Y-70480376D01*
%TO.N,/FMU_PWM_OUT*%
X94454502Y-62900500D02*
X89874500Y-62900500D01*
X89500000Y-68094853D02*
X89262746Y-68332107D01*
X94680002Y-62675000D02*
X94454502Y-62900500D01*
X89500000Y-63275000D02*
X89500000Y-68094853D01*
X89874500Y-62900500D02*
X89500000Y-63275000D01*
%TO.N,Net-(C2-Pad1)*%
X92950000Y-69050000D02*
X91500000Y-70500000D01*
X91500000Y-70500000D02*
X91500000Y-70650000D01*
X93000000Y-69000000D02*
X92950000Y-69050000D01*
X94425000Y-69000000D02*
X93000000Y-69000000D01*
D24*
%TO.N,Net-(D1-K)*%
X96100000Y-68575000D02*
X96100000Y-67062500D01*
X96100000Y-67062500D02*
X96075000Y-67037500D01*
%TO.N,Net-(D2-K)*%
X96100000Y-62462500D02*
X96100000Y-60950000D01*
X96100000Y-60950000D02*
X96075000Y-60925000D01*
D25*
%TO.N,Net-(IC2-RS)*%
X92710000Y-59922500D02*
X92710000Y-61913000D01*
X93552500Y-59080000D02*
X92710000Y-59922500D01*
D27*
%TO.N,/Klicky*%
X87545002Y-64580000D02*
X89050000Y-64580000D01*
X87460000Y-64494998D02*
X87545002Y-64580000D01*
%TD*%
%TA.AperFunction,Conductor*%
%TO.N,GND*%
G36*
X87107451Y-64247174D02*
G01*
X87129125Y-64299500D01*
X87121059Y-64333096D01*
X87098426Y-64377514D01*
X87098426Y-64377515D01*
X87079819Y-64494998D01*
X87098426Y-64612480D01*
X87098426Y-64612481D01*
X87104731Y-64624855D01*
X87152427Y-64718463D01*
X87236535Y-64802571D01*
X87342518Y-64856572D01*
X87460000Y-64875179D01*
X87577482Y-64856572D01*
X87594751Y-64847773D01*
X87661888Y-64813566D01*
X87695483Y-64805500D01*
X88713810Y-64805500D01*
X88766136Y-64827174D01*
X88826535Y-64887573D01*
X88932518Y-64941574D01*
X89050000Y-64960181D01*
X89167482Y-64941574D01*
X89167487Y-64941571D01*
X89173023Y-64939774D01*
X89173534Y-64941347D01*
X89223366Y-64937425D01*
X89266434Y-64974207D01*
X89274500Y-65007803D01*
X89274500Y-65524935D01*
X89252826Y-65577261D01*
X89200500Y-65598935D01*
X89166905Y-65590870D01*
X89142482Y-65578426D01*
X89025000Y-65559819D01*
X88907517Y-65578426D01*
X88907516Y-65578426D01*
X88801533Y-65632428D01*
X88717428Y-65716533D01*
X88663426Y-65822516D01*
X88663426Y-65822517D01*
X88644819Y-65940000D01*
X88644819Y-65940003D01*
X88647298Y-65955659D01*
X88634075Y-66010730D01*
X88626540Y-66019553D01*
X88621576Y-66024517D01*
X88621575Y-66024519D01*
X88612903Y-66045457D01*
X88612902Y-66045459D01*
X88587245Y-66107398D01*
X88587245Y-66205720D01*
X88587246Y-66205729D01*
X88587246Y-70429549D01*
X88587245Y-70429563D01*
X88587245Y-70525231D01*
X88595374Y-70544856D01*
X88621575Y-70608110D01*
X88621577Y-70608113D01*
X88695417Y-70681953D01*
X88695419Y-70681954D01*
X89286639Y-71273174D01*
X89308313Y-71325500D01*
X89286639Y-71377826D01*
X89234313Y-71399500D01*
X86647255Y-71399500D01*
X86594929Y-71377826D01*
X86272174Y-71055071D01*
X86250500Y-71002745D01*
X86250500Y-64992255D01*
X86272174Y-64939929D01*
X86964930Y-64247174D01*
X87017256Y-64225500D01*
X87055125Y-64225500D01*
X87107451Y-64247174D01*
G37*
%TD.AperFunction*%
%TA.AperFunction,Conductor*%
G36*
X97215011Y-69382026D02*
G01*
X97229130Y-69406480D01*
X97229131Y-69406482D01*
X97231342Y-69410311D01*
X97239540Y-69424511D01*
X97518489Y-69703460D01*
X97587012Y-69743022D01*
X97621781Y-69752338D01*
X97666714Y-69786815D01*
X97675717Y-69812240D01*
X97688425Y-69892479D01*
X97688425Y-69892480D01*
X97688426Y-69892482D01*
X97691434Y-69898386D01*
X97699500Y-69931981D01*
X97699500Y-69968017D01*
X97691435Y-70001611D01*
X97688426Y-70007515D01*
X97688426Y-70007517D01*
X97669819Y-70125000D01*
X97688425Y-70242479D01*
X97688425Y-70242480D01*
X97688426Y-70242482D01*
X97691434Y-70248386D01*
X97699500Y-70281981D01*
X97699500Y-70318017D01*
X97691435Y-70351611D01*
X97688426Y-70357515D01*
X97688426Y-70357517D01*
X97669819Y-70475000D01*
X97688426Y-70592482D01*
X97688426Y-70592483D01*
X97703064Y-70621211D01*
X97742427Y-70698465D01*
X97826535Y-70782573D01*
X97932518Y-70836574D01*
X98050000Y-70855181D01*
X98167482Y-70836574D01*
X98167484Y-70836573D01*
X98173389Y-70833565D01*
X98206983Y-70825500D01*
X98225500Y-70825500D01*
X98277826Y-70847174D01*
X98299500Y-70899500D01*
X98299500Y-71325500D01*
X98277826Y-71377826D01*
X98225500Y-71399500D01*
X95254638Y-71399500D01*
X95202312Y-71377826D01*
X95180638Y-71325500D01*
X95202311Y-71273175D01*
X95202312Y-71273174D01*
X95242326Y-71233159D01*
X95242329Y-71233158D01*
X95252735Y-71222752D01*
X95252736Y-71222752D01*
X95316170Y-71159318D01*
X95340947Y-71099501D01*
X95350501Y-71076437D01*
X95350501Y-70986727D01*
X95350501Y-70980769D01*
X95350500Y-70980755D01*
X95350500Y-70242475D01*
X95372174Y-70190149D01*
X95715149Y-69847174D01*
X95767475Y-69825500D01*
X96503107Y-69825500D01*
X96503115Y-69825501D01*
X96511727Y-69825501D01*
X96601436Y-69825501D01*
X96601437Y-69825501D01*
X96664205Y-69799501D01*
X96684318Y-69791170D01*
X96747752Y-69727736D01*
X96747752Y-69727735D01*
X96758157Y-69717330D01*
X96758159Y-69717327D01*
X97007147Y-69468339D01*
X97007150Y-69468337D01*
X97017555Y-69457932D01*
X97017556Y-69457932D01*
X97080990Y-69394498D01*
X97082558Y-69390711D01*
X97122603Y-69350662D01*
X97179240Y-69350658D01*
X97215011Y-69382026D01*
G37*
%TD.AperFunction*%
%TA.AperFunction,Conductor*%
G36*
X94297020Y-63147674D02*
G01*
X94318694Y-63200000D01*
X94317783Y-63211576D01*
X94299819Y-63324999D01*
X94299819Y-63325000D01*
X94300918Y-63331940D01*
X94318426Y-63442482D01*
X94318426Y-63442483D01*
X94336357Y-63477674D01*
X94371686Y-63547011D01*
X94372428Y-63548466D01*
X94432826Y-63608864D01*
X94454500Y-63661190D01*
X94454500Y-64529173D01*
X94454499Y-64529187D01*
X94454499Y-64624855D01*
X94470300Y-64663001D01*
X94488828Y-64707733D01*
X94488831Y-64707737D01*
X94562671Y-64781577D01*
X94562673Y-64781578D01*
X94927826Y-65146731D01*
X94949500Y-65199057D01*
X94949500Y-68413286D01*
X94927826Y-68465612D01*
X94875500Y-68487286D01*
X94843000Y-68479767D01*
X94801394Y-68459427D01*
X94733264Y-68449500D01*
X94733260Y-68449500D01*
X94116740Y-68449500D01*
X94116735Y-68449500D01*
X94048606Y-68459427D01*
X94048605Y-68459427D01*
X93943517Y-68510801D01*
X93860801Y-68593517D01*
X93809427Y-68698605D01*
X93807597Y-68711170D01*
X93778605Y-68759824D01*
X93734370Y-68774500D01*
X93637334Y-68774500D01*
X93585008Y-68752826D01*
X93569080Y-68721085D01*
X93566562Y-68721864D01*
X93564866Y-68716375D01*
X93509826Y-68603789D01*
X93421210Y-68515173D01*
X93308626Y-68460134D01*
X93235640Y-68449500D01*
X93235636Y-68449500D01*
X92664364Y-68449500D01*
X92664359Y-68449500D01*
X92591374Y-68460134D01*
X92591373Y-68460134D01*
X92478789Y-68515173D01*
X92390173Y-68603789D01*
X92335134Y-68716373D01*
X92335134Y-68716374D01*
X92324500Y-68789359D01*
X92324500Y-69310639D01*
X92324992Y-69314013D01*
X92311085Y-69368916D01*
X92304090Y-69377003D01*
X91603269Y-70077826D01*
X91550943Y-70099500D01*
X91191735Y-70099500D01*
X91123606Y-70109427D01*
X91123605Y-70109427D01*
X91018517Y-70160801D01*
X90935801Y-70243517D01*
X90884427Y-70348605D01*
X90884427Y-70348606D01*
X90874500Y-70416735D01*
X90874500Y-70883264D01*
X90884428Y-70951397D01*
X90886124Y-70956887D01*
X90883370Y-70957737D01*
X90886280Y-71004522D01*
X90848793Y-71046978D01*
X90816287Y-71054500D01*
X89736427Y-71054500D01*
X89684101Y-71032826D01*
X89059920Y-70408645D01*
X89038246Y-70356319D01*
X89038246Y-68759910D01*
X89059920Y-68707584D01*
X89112246Y-68685910D01*
X89139534Y-68692461D01*
X89139723Y-68691881D01*
X89145260Y-68693679D01*
X89145264Y-68693681D01*
X89262746Y-68712288D01*
X89340518Y-68699970D01*
X89395590Y-68713192D01*
X89425183Y-68761483D01*
X89425321Y-68783726D01*
X89424501Y-68789353D01*
X89424500Y-68789370D01*
X89424500Y-69310640D01*
X89435134Y-69383625D01*
X89435134Y-69383626D01*
X89490173Y-69496210D01*
X89490174Y-69496211D01*
X89578789Y-69584826D01*
X89691375Y-69639866D01*
X89764364Y-69650500D01*
X89764370Y-69650500D01*
X90335630Y-69650500D01*
X90335636Y-69650500D01*
X90408625Y-69639866D01*
X90521211Y-69584826D01*
X90609826Y-69496211D01*
X90664866Y-69383625D01*
X90671392Y-69338830D01*
X90700384Y-69290177D01*
X90744619Y-69275500D01*
X90825575Y-69275500D01*
X90877901Y-69297174D01*
X90892056Y-69316999D01*
X90921390Y-69377003D01*
X90935802Y-69406483D01*
X91018517Y-69489198D01*
X91123607Y-69540573D01*
X91191740Y-69550500D01*
X91191746Y-69550500D01*
X91808254Y-69550500D01*
X91808260Y-69550500D01*
X91876393Y-69540573D01*
X91981483Y-69489198D01*
X92064198Y-69406483D01*
X92064198Y-69406481D01*
X92064200Y-69406480D01*
X92101493Y-69330194D01*
X92115573Y-69301393D01*
X92125500Y-69233260D01*
X92125500Y-68766740D01*
X92115573Y-68698607D01*
X92064198Y-68593517D01*
X91981483Y-68510802D01*
X91981482Y-68510801D01*
X91876394Y-68459427D01*
X91808264Y-68449500D01*
X91808260Y-68449500D01*
X91191740Y-68449500D01*
X91191735Y-68449500D01*
X91123606Y-68459427D01*
X91123605Y-68459427D01*
X91018517Y-68510801D01*
X90935801Y-68593517D01*
X90884427Y-68698605D01*
X90884427Y-68698606D01*
X90884427Y-68698607D01*
X90876528Y-68752826D01*
X90875312Y-68761169D01*
X90846320Y-68809823D01*
X90802085Y-68824500D01*
X90744619Y-68824500D01*
X90692293Y-68802826D01*
X90671392Y-68761169D01*
X90671196Y-68759824D01*
X90664866Y-68716375D01*
X90609826Y-68603789D01*
X90521211Y-68515174D01*
X90498921Y-68504277D01*
X90436999Y-68474005D01*
X90399509Y-68431551D01*
X90395500Y-68407524D01*
X90395500Y-68324000D01*
X90417174Y-68271674D01*
X90469500Y-68250000D01*
X90509819Y-68250000D01*
X90509820Y-68250000D01*
X90553722Y-68241267D01*
X90603504Y-68208004D01*
X90636767Y-68158222D01*
X90645500Y-68114320D01*
X90645500Y-67652802D01*
X90667174Y-67600476D01*
X90719500Y-67578802D01*
X90746790Y-67585354D01*
X90746979Y-67584774D01*
X90752516Y-67586572D01*
X90752520Y-67586574D01*
X90870002Y-67605181D01*
X90878921Y-67603768D01*
X90933993Y-67616986D01*
X90963588Y-67665276D01*
X90964500Y-67676856D01*
X90964500Y-68114319D01*
X90973233Y-68158222D01*
X91001158Y-68200016D01*
X91006496Y-68208004D01*
X91056278Y-68241267D01*
X91100180Y-68250000D01*
X91100181Y-68250000D01*
X91779819Y-68250000D01*
X91779820Y-68250000D01*
X91823722Y-68241267D01*
X91873504Y-68208004D01*
X91906767Y-68158222D01*
X91915500Y-68114320D01*
X91915500Y-66559680D01*
X91912181Y-66542993D01*
X91923231Y-66487444D01*
X91970323Y-66455979D01*
X91984759Y-66454557D01*
X92165241Y-66454557D01*
X92217567Y-66476231D01*
X92239241Y-66528557D01*
X92237819Y-66542993D01*
X92234500Y-66559679D01*
X92234500Y-68114319D01*
X92243233Y-68158222D01*
X92271158Y-68200016D01*
X92276496Y-68208004D01*
X92326278Y-68241267D01*
X92370180Y-68250000D01*
X92370181Y-68250000D01*
X93049819Y-68250000D01*
X93049820Y-68250000D01*
X93093722Y-68241267D01*
X93143504Y-68208004D01*
X93176767Y-68158222D01*
X93185500Y-68114320D01*
X93185500Y-67770202D01*
X93207174Y-67717876D01*
X93236642Y-67699821D01*
X93240475Y-67698574D01*
X93240482Y-67698574D01*
X93346465Y-67644573D01*
X93430573Y-67560465D01*
X93484574Y-67454482D01*
X93503181Y-67337000D01*
X93484574Y-67219518D01*
X93430573Y-67113535D01*
X93346465Y-67029427D01*
X93240481Y-66975425D01*
X93236622Y-66974171D01*
X93193560Y-66937381D01*
X93185500Y-66903796D01*
X93185500Y-66559679D01*
X93182181Y-66542993D01*
X93193231Y-66487444D01*
X93240323Y-66455979D01*
X93254759Y-66454557D01*
X93447468Y-66454557D01*
X93447476Y-66454558D01*
X93456088Y-66454558D01*
X93545797Y-66454558D01*
X93545798Y-66454558D01*
X93610683Y-66427681D01*
X93628679Y-66420227D01*
X93692113Y-66356793D01*
X93692113Y-66356792D01*
X93702518Y-66346387D01*
X93702520Y-66346384D01*
X93787327Y-66261577D01*
X93787330Y-66261575D01*
X93797735Y-66251170D01*
X93797736Y-66251170D01*
X93861170Y-66187736D01*
X93888580Y-66121562D01*
X93895501Y-66104854D01*
X93895501Y-66015145D01*
X93895501Y-66009187D01*
X93895500Y-66009173D01*
X93895500Y-64476190D01*
X93917174Y-64423864D01*
X93944913Y-64396125D01*
X93977573Y-64363465D01*
X94031574Y-64257482D01*
X94050181Y-64140000D01*
X94031574Y-64022518D01*
X93977573Y-63916535D01*
X93893465Y-63832427D01*
X93824012Y-63797039D01*
X93787483Y-63778426D01*
X93787482Y-63778426D01*
X93670000Y-63759819D01*
X93552517Y-63778426D01*
X93552516Y-63778426D01*
X93446533Y-63832428D01*
X93362428Y-63916533D01*
X93308426Y-64022516D01*
X93308426Y-64022517D01*
X93289819Y-64140000D01*
X93308426Y-64257482D01*
X93308426Y-64257483D01*
X93316041Y-64272428D01*
X93357859Y-64354500D01*
X93362428Y-64363466D01*
X93422826Y-64423864D01*
X93444500Y-64476190D01*
X93444500Y-65929557D01*
X93422826Y-65981883D01*
X93370500Y-66003557D01*
X91305260Y-66003557D01*
X91252934Y-65981883D01*
X91192536Y-65921485D01*
X91192535Y-65921484D01*
X91130452Y-65889851D01*
X91086553Y-65867483D01*
X90969070Y-65848876D01*
X90851587Y-65867483D01*
X90851586Y-65867483D01*
X90745603Y-65921485D01*
X90661498Y-66005590D01*
X90607496Y-66111573D01*
X90607496Y-66111574D01*
X90588889Y-66229057D01*
X90606731Y-66341713D01*
X90593509Y-66396786D01*
X90545218Y-66426378D01*
X90519205Y-66425867D01*
X90509820Y-66424000D01*
X89830180Y-66424000D01*
X89813936Y-66427231D01*
X89758388Y-66416182D01*
X89726922Y-66369089D01*
X89725500Y-66354653D01*
X89725500Y-63399057D01*
X89747174Y-63346731D01*
X89946231Y-63147674D01*
X89998557Y-63126000D01*
X94244694Y-63126000D01*
X94297020Y-63147674D01*
G37*
%TD.AperFunction*%
%TA.AperFunction,Conductor*%
G36*
X93786696Y-69247174D02*
G01*
X93807597Y-69288830D01*
X93809427Y-69301394D01*
X93860800Y-69406480D01*
X93860801Y-69406482D01*
X93860802Y-69406483D01*
X93943517Y-69489198D01*
X94048607Y-69540573D01*
X94116740Y-69550500D01*
X94461943Y-69550500D01*
X94514269Y-69572174D01*
X94535943Y-69624500D01*
X94514269Y-69676825D01*
X94399925Y-69791169D01*
X94292265Y-69898829D01*
X94228829Y-69962265D01*
X94227493Y-69965492D01*
X94227490Y-69965500D01*
X94191710Y-70051878D01*
X94188455Y-70050530D01*
X94164072Y-70087027D01*
X94122957Y-70099500D01*
X94116735Y-70099500D01*
X94048606Y-70109427D01*
X94048605Y-70109427D01*
X93943517Y-70160801D01*
X93860801Y-70243517D01*
X93809427Y-70348605D01*
X93809427Y-70348606D01*
X93799500Y-70416735D01*
X93799500Y-70883264D01*
X93809428Y-70951397D01*
X93811124Y-70956887D01*
X93808370Y-70957737D01*
X93811280Y-71004522D01*
X93773793Y-71046978D01*
X93741287Y-71054500D01*
X92183713Y-71054500D01*
X92131387Y-71032826D01*
X92109713Y-70980500D01*
X92115090Y-70957262D01*
X92113876Y-70956887D01*
X92115571Y-70951397D01*
X92115570Y-70951397D01*
X92115573Y-70951393D01*
X92125500Y-70883260D01*
X92125500Y-70416740D01*
X92115573Y-70348607D01*
X92091075Y-70298496D01*
X92087566Y-70241970D01*
X92105229Y-70213674D01*
X92646731Y-69672174D01*
X92699057Y-69650500D01*
X93235630Y-69650500D01*
X93235636Y-69650500D01*
X93308625Y-69639866D01*
X93421211Y-69584826D01*
X93509826Y-69496211D01*
X93564866Y-69383625D01*
X93575500Y-69310636D01*
X93575500Y-69299500D01*
X93597174Y-69247174D01*
X93649500Y-69225500D01*
X93734370Y-69225500D01*
X93786696Y-69247174D01*
G37*
%TD.AperFunction*%
%TA.AperFunction,Conductor*%
G36*
X99061109Y-65047174D02*
G01*
X99101535Y-65087600D01*
X99207518Y-65141601D01*
X99325000Y-65160208D01*
X99442482Y-65141601D01*
X99442487Y-65141598D01*
X99448023Y-65139801D01*
X99448534Y-65141374D01*
X99498366Y-65137452D01*
X99541434Y-65174234D01*
X99549500Y-65207830D01*
X99549500Y-69654877D01*
X99527826Y-69707203D01*
X99430440Y-69804588D01*
X99378114Y-69826262D01*
X99325788Y-69804588D01*
X99311633Y-69784762D01*
X99304630Y-69770438D01*
X99259826Y-69678789D01*
X99171211Y-69590174D01*
X99171210Y-69590173D01*
X99058626Y-69535134D01*
X99053653Y-69534409D01*
X99045746Y-69533257D01*
X98997093Y-69504265D01*
X98992331Y-69497031D01*
X98965462Y-69450492D01*
X98965461Y-69450491D01*
X98965460Y-69450489D01*
X98949815Y-69434844D01*
X98928142Y-69382520D01*
X98949816Y-69330194D01*
X98987704Y-69309942D01*
X99013722Y-69304767D01*
X99063504Y-69271504D01*
X99096767Y-69221722D01*
X99105500Y-69177820D01*
X99105500Y-68548180D01*
X99096767Y-68504278D01*
X99063504Y-68454496D01*
X99056160Y-68449589D01*
X99013722Y-68421233D01*
X98969820Y-68412500D01*
X98590180Y-68412500D01*
X98586229Y-68413286D01*
X98546276Y-68421233D01*
X98496111Y-68454752D01*
X98440562Y-68465801D01*
X98413889Y-68454752D01*
X98363723Y-68421233D01*
X98323771Y-68413286D01*
X98319820Y-68412500D01*
X97940180Y-68412500D01*
X97936229Y-68413286D01*
X97896276Y-68421233D01*
X97846111Y-68454752D01*
X97790562Y-68465801D01*
X97763889Y-68454752D01*
X97713723Y-68421233D01*
X97673771Y-68413286D01*
X97669820Y-68412500D01*
X97290180Y-68412500D01*
X97290178Y-68412500D01*
X97289997Y-68412536D01*
X97289935Y-68412523D01*
X97286564Y-68412856D01*
X97286463Y-68411832D01*
X97234450Y-68401476D01*
X97202993Y-68354378D01*
X97209639Y-68306361D01*
X97251394Y-68224414D01*
X97270001Y-68106932D01*
X97251394Y-67989450D01*
X97197393Y-67883467D01*
X97113285Y-67799359D01*
X97056061Y-67770202D01*
X97007303Y-67745358D01*
X96889820Y-67726751D01*
X96772337Y-67745358D01*
X96772336Y-67745358D01*
X96666353Y-67799360D01*
X96582248Y-67883465D01*
X96540434Y-67965529D01*
X96497367Y-68002311D01*
X96440904Y-67997867D01*
X96404122Y-67954800D01*
X96400500Y-67931933D01*
X96400500Y-67679601D01*
X96422174Y-67627275D01*
X96441998Y-67613120D01*
X96548780Y-67560919D01*
X96635919Y-67473780D01*
X96690043Y-67363067D01*
X96700500Y-67291295D01*
X96700499Y-66783706D01*
X96690043Y-66711933D01*
X96635919Y-66601220D01*
X96548780Y-66514081D01*
X96548779Y-66514080D01*
X96438068Y-66459957D01*
X96401004Y-66454557D01*
X96366295Y-66449500D01*
X96366294Y-66449500D01*
X95783705Y-66449500D01*
X95711938Y-66459955D01*
X95711931Y-66459957D01*
X95601220Y-66514080D01*
X95526826Y-66588475D01*
X95474500Y-66610149D01*
X95422174Y-66588475D01*
X95400500Y-66536149D01*
X95400500Y-65963851D01*
X95422174Y-65911525D01*
X95474500Y-65889851D01*
X95526826Y-65911525D01*
X95601220Y-65985919D01*
X95711933Y-66040043D01*
X95783705Y-66050500D01*
X96366294Y-66050499D01*
X96438061Y-66040044D01*
X96438061Y-66040043D01*
X96438067Y-66040043D01*
X96548780Y-65985919D01*
X96549497Y-65985201D01*
X96550182Y-65984917D01*
X96553772Y-65982355D01*
X96554364Y-65983184D01*
X96601815Y-65963519D01*
X96654146Y-65985183D01*
X96728789Y-66059826D01*
X96841375Y-66114866D01*
X96914364Y-66125500D01*
X97105500Y-66125500D01*
X97157826Y-66147174D01*
X97179500Y-66199500D01*
X97179500Y-66357485D01*
X97167029Y-66398597D01*
X97163233Y-66404277D01*
X97154500Y-66448180D01*
X97154500Y-67077819D01*
X97163233Y-67121722D01*
X97188941Y-67160198D01*
X97196496Y-67171504D01*
X97246278Y-67204767D01*
X97290180Y-67213500D01*
X97290181Y-67213500D01*
X97669819Y-67213500D01*
X97669820Y-67213500D01*
X97713722Y-67204767D01*
X97763504Y-67171504D01*
X97763504Y-67171503D01*
X97763888Y-67171247D01*
X97819437Y-67160198D01*
X97846112Y-67171247D01*
X97846495Y-67171503D01*
X97846496Y-67171504D01*
X97896278Y-67204767D01*
X97940180Y-67213500D01*
X97940181Y-67213500D01*
X98319819Y-67213500D01*
X98319820Y-67213500D01*
X98363722Y-67204767D01*
X98413504Y-67171504D01*
X98446767Y-67121722D01*
X98455500Y-67077820D01*
X98455500Y-66448180D01*
X98446767Y-66404278D01*
X98413504Y-66354496D01*
X98401595Y-66346539D01*
X98363722Y-66321233D01*
X98319820Y-66312500D01*
X97940180Y-66312500D01*
X97925546Y-66315411D01*
X97896276Y-66321233D01*
X97895611Y-66321678D01*
X97894826Y-66321834D01*
X97889544Y-66324022D01*
X97889108Y-66322971D01*
X97840062Y-66332727D01*
X97792971Y-66301260D01*
X97780500Y-66260149D01*
X97780500Y-65765438D01*
X97778022Y-65756191D01*
X97775500Y-65737036D01*
X97775500Y-65284412D01*
X97797174Y-65232086D01*
X97982086Y-65047174D01*
X98034412Y-65025500D01*
X99008783Y-65025500D01*
X99061109Y-65047174D01*
G37*
%TD.AperFunction*%
%TA.AperFunction,Conductor*%
G36*
X100347826Y-55002174D02*
G01*
X100369500Y-55054500D01*
X100369500Y-74835500D01*
X100347826Y-74887826D01*
X100295500Y-74909500D01*
X85164500Y-74909500D01*
X85112174Y-74887826D01*
X85090500Y-74835500D01*
X85090500Y-73600000D01*
X88034659Y-73600000D01*
X88053976Y-73796133D01*
X88111187Y-73984731D01*
X88198776Y-74148597D01*
X88204090Y-74158538D01*
X88329117Y-74310883D01*
X88481462Y-74435910D01*
X88535547Y-74464819D01*
X88655268Y-74528812D01*
X88655270Y-74528812D01*
X88655273Y-74528814D01*
X88843868Y-74586024D01*
X89040000Y-74605341D01*
X89236132Y-74586024D01*
X89424727Y-74528814D01*
X89598538Y-74435910D01*
X89750883Y-74310883D01*
X89875910Y-74158538D01*
X89968814Y-73984727D01*
X90026024Y-73796132D01*
X90045341Y-73600000D01*
X90026024Y-73403868D01*
X89968814Y-73215273D01*
X89968812Y-73215270D01*
X89968812Y-73215268D01*
X89917048Y-73118426D01*
X89875910Y-73041462D01*
X89750883Y-72889117D01*
X89598538Y-72764090D01*
X89588597Y-72758776D01*
X89544452Y-72735180D01*
X90579500Y-72735180D01*
X90579500Y-74464819D01*
X90588233Y-74508722D01*
X90601656Y-74528812D01*
X90621496Y-74558504D01*
X90671278Y-74591767D01*
X90715180Y-74600500D01*
X90715181Y-74600500D01*
X92444819Y-74600500D01*
X92444820Y-74600500D01*
X92488722Y-74591767D01*
X92538504Y-74558504D01*
X92571767Y-74508722D01*
X92580500Y-74464820D01*
X92580500Y-72735180D01*
X92571767Y-72691278D01*
X92538504Y-72641496D01*
X92488722Y-72608233D01*
X92444820Y-72599500D01*
X90715180Y-72599500D01*
X90693229Y-72603866D01*
X90671277Y-72608233D01*
X90621496Y-72641495D01*
X90621495Y-72641496D01*
X90588233Y-72691277D01*
X90579500Y-72735180D01*
X89544452Y-72735180D01*
X89424731Y-72671187D01*
X89236133Y-72613976D01*
X89040000Y-72594659D01*
X88843866Y-72613976D01*
X88655268Y-72671187D01*
X88481463Y-72764089D01*
X88329117Y-72889117D01*
X88204089Y-73041463D01*
X88111187Y-73215268D01*
X88053976Y-73403866D01*
X88034659Y-73600000D01*
X85090500Y-73600000D01*
X85090500Y-55435180D01*
X85349500Y-55435180D01*
X85349500Y-57164819D01*
X85358233Y-57208722D01*
X85371656Y-57228812D01*
X85391496Y-57258504D01*
X85441278Y-57291767D01*
X85485180Y-57300500D01*
X85825500Y-57300500D01*
X85877826Y-57322174D01*
X85899500Y-57374500D01*
X85899500Y-57499310D01*
X85907854Y-57530486D01*
X85907854Y-57530488D01*
X85930199Y-57613882D01*
X85930203Y-57613891D01*
X85989508Y-57716610D01*
X85989509Y-57716611D01*
X85989511Y-57716614D01*
X86303386Y-58030489D01*
X86406113Y-58089799D01*
X86406115Y-58089799D01*
X86406116Y-58089800D01*
X86414184Y-58091961D01*
X86430326Y-58096286D01*
X86499303Y-58114769D01*
X86520690Y-58120500D01*
X86520691Y-58120500D01*
X87810500Y-58120500D01*
X87862826Y-58142174D01*
X87884500Y-58194500D01*
X87884500Y-59864820D01*
X87893233Y-59908722D01*
X87926496Y-59958504D01*
X87976278Y-59991767D01*
X88020180Y-60000500D01*
X88020181Y-60000500D01*
X89749819Y-60000500D01*
X89749820Y-60000500D01*
X89793722Y-59991767D01*
X89843504Y-59958504D01*
X89876767Y-59908722D01*
X89885500Y-59864820D01*
X89885500Y-58194500D01*
X89907174Y-58142174D01*
X89959500Y-58120500D01*
X90934623Y-58120500D01*
X90986949Y-58142174D01*
X91167826Y-58323051D01*
X91189500Y-58375377D01*
X91189500Y-60142745D01*
X91167826Y-60195071D01*
X91039508Y-60323389D01*
X90980201Y-60426112D01*
X90977680Y-60435523D01*
X90977679Y-60435522D01*
X90977679Y-60435525D01*
X90949500Y-60540688D01*
X90949500Y-61932310D01*
X90961978Y-61978876D01*
X90964500Y-61998030D01*
X90964500Y-62601000D01*
X90942826Y-62653326D01*
X90890500Y-62675000D01*
X90719500Y-62675000D01*
X90667174Y-62653326D01*
X90645500Y-62601000D01*
X90645500Y-61135680D01*
X90644061Y-61128446D01*
X90636767Y-61091778D01*
X90603504Y-61041996D01*
X90601513Y-61040666D01*
X90553722Y-61008733D01*
X90509820Y-61000000D01*
X89830180Y-61000000D01*
X89808229Y-61004366D01*
X89786277Y-61008733D01*
X89736496Y-61041995D01*
X89736495Y-61041996D01*
X89703233Y-61091777D01*
X89694500Y-61135680D01*
X89694500Y-61388500D01*
X89672826Y-61440826D01*
X89620500Y-61462500D01*
X88602689Y-61462500D01*
X88488116Y-61493199D01*
X88385386Y-61552510D01*
X87835071Y-62102826D01*
X87782745Y-62124500D01*
X86235180Y-62124500D01*
X86213229Y-62128866D01*
X86191277Y-62133233D01*
X86141496Y-62166495D01*
X86141495Y-62166496D01*
X86108233Y-62216277D01*
X86099500Y-62260180D01*
X86099500Y-63807744D01*
X86077826Y-63860070D01*
X85439508Y-64498389D01*
X85380201Y-64601112D01*
X85377680Y-64610523D01*
X85377679Y-64610522D01*
X85377679Y-64610525D01*
X85349500Y-64715688D01*
X85349500Y-71279308D01*
X85373712Y-71369672D01*
X85380200Y-71393883D01*
X85380203Y-71393891D01*
X85439508Y-71496610D01*
X85439509Y-71496611D01*
X85439511Y-71496614D01*
X86153387Y-72210490D01*
X86240051Y-72260525D01*
X86256116Y-72269800D01*
X86336650Y-72291378D01*
X86370688Y-72300499D01*
X86370689Y-72300500D01*
X86370691Y-72300500D01*
X98232745Y-72300500D01*
X98285071Y-72322174D01*
X98436070Y-72473174D01*
X98457744Y-72525500D01*
X98436070Y-72577826D01*
X98383744Y-72599500D01*
X98160180Y-72599500D01*
X98138229Y-72603866D01*
X98116277Y-72608233D01*
X98066496Y-72641495D01*
X98066495Y-72641496D01*
X98033233Y-72691277D01*
X98024500Y-72735180D01*
X98024500Y-74464819D01*
X98033233Y-74508722D01*
X98046656Y-74528812D01*
X98066496Y-74558504D01*
X98116278Y-74591767D01*
X98160180Y-74600500D01*
X98160181Y-74600500D01*
X99889819Y-74600500D01*
X99889820Y-74600500D01*
X99933722Y-74591767D01*
X99983504Y-74558504D01*
X100016767Y-74508722D01*
X100025500Y-74464820D01*
X100025500Y-72735180D01*
X100016767Y-72691278D01*
X99983504Y-72641496D01*
X99933722Y-72608233D01*
X99889820Y-72599500D01*
X99889819Y-72599500D01*
X99549500Y-72599500D01*
X99497174Y-72577826D01*
X99475500Y-72525500D01*
X99475500Y-72365689D01*
X99475499Y-72365688D01*
X99447321Y-72260525D01*
X99447320Y-72260522D01*
X99447320Y-72260523D01*
X99444799Y-72251114D01*
X99444799Y-72251113D01*
X99385490Y-72148386D01*
X99133520Y-71896416D01*
X99111846Y-71844090D01*
X99121760Y-71807091D01*
X99169799Y-71723887D01*
X99176286Y-71699673D01*
X99200500Y-71609309D01*
X99200500Y-70711189D01*
X99222174Y-70658863D01*
X99259826Y-70621211D01*
X99314866Y-70508625D01*
X99314866Y-70508623D01*
X99316562Y-70503136D01*
X99319868Y-70504157D01*
X99343107Y-70465171D01*
X99387334Y-70450500D01*
X99549564Y-70450500D01*
X99549564Y-70450499D01*
X99625989Y-70430021D01*
X99694511Y-70390460D01*
X99750460Y-70334511D01*
X100090460Y-69994511D01*
X100130022Y-69925988D01*
X100150500Y-69849562D01*
X100150500Y-69770438D01*
X100150500Y-64285438D01*
X100150500Y-64285436D01*
X100150499Y-64285435D01*
X100130022Y-64209014D01*
X100130020Y-64209009D01*
X100090459Y-64140488D01*
X99747010Y-63797039D01*
X99714770Y-63778426D01*
X99678490Y-63757479D01*
X99678485Y-63757477D01*
X99602064Y-63737000D01*
X99602062Y-63737000D01*
X99387334Y-63737000D01*
X99335008Y-63715326D01*
X99319080Y-63683585D01*
X99316562Y-63684364D01*
X99314866Y-63678875D01*
X99259826Y-63566289D01*
X99171211Y-63477674D01*
X99058626Y-63422634D01*
X99050543Y-63421456D01*
X99044169Y-63420527D01*
X98995516Y-63391534D01*
X98990755Y-63384301D01*
X98965462Y-63340492D01*
X98965461Y-63340491D01*
X98965460Y-63340489D01*
X98956909Y-63331938D01*
X98935236Y-63279614D01*
X98956910Y-63227288D01*
X98994798Y-63207036D01*
X99008722Y-63204267D01*
X99058504Y-63171004D01*
X99091767Y-63121222D01*
X99100500Y-63077320D01*
X99100500Y-62447680D01*
X99091767Y-62403778D01*
X99058504Y-62353996D01*
X99048891Y-62347573D01*
X99008722Y-62320733D01*
X98992826Y-62317571D01*
X98964820Y-62312000D01*
X98585180Y-62312000D01*
X98576855Y-62313656D01*
X98541276Y-62320733D01*
X98491111Y-62354252D01*
X98435562Y-62365301D01*
X98408889Y-62354252D01*
X98358723Y-62320733D01*
X98336771Y-62316366D01*
X98314820Y-62312000D01*
X97935180Y-62312000D01*
X97926855Y-62313656D01*
X97891276Y-62320733D01*
X97841111Y-62354252D01*
X97785562Y-62365301D01*
X97758889Y-62354252D01*
X97708723Y-62320733D01*
X97686771Y-62316366D01*
X97664820Y-62312000D01*
X97285180Y-62312000D01*
X97263229Y-62316366D01*
X97241277Y-62320733D01*
X97191496Y-62353995D01*
X97191495Y-62353996D01*
X97158233Y-62403777D01*
X97149500Y-62447680D01*
X97149500Y-63077319D01*
X97158233Y-63121224D01*
X97164223Y-63130189D01*
X97174172Y-63152146D01*
X97190479Y-63213000D01*
X97194979Y-63229793D01*
X97204632Y-63246512D01*
X97234540Y-63298315D01*
X97483236Y-63547011D01*
X97539185Y-63602960D01*
X97607707Y-63642521D01*
X97607708Y-63642521D01*
X97607710Y-63642522D01*
X97645920Y-63652760D01*
X97684131Y-63662999D01*
X97684132Y-63663000D01*
X97684134Y-63663000D01*
X97763258Y-63663000D01*
X98051884Y-63663000D01*
X98104210Y-63684674D01*
X98125884Y-63737000D01*
X98125111Y-63747666D01*
X98124501Y-63751851D01*
X98124500Y-63751870D01*
X98124500Y-64323140D01*
X98135134Y-64396125D01*
X98135134Y-64396126D01*
X98145828Y-64418000D01*
X98149337Y-64474528D01*
X98111847Y-64516981D01*
X98079347Y-64524500D01*
X97850172Y-64524500D01*
X97758105Y-64562634D01*
X97467913Y-64852826D01*
X97415587Y-64874500D01*
X97170925Y-64874500D01*
X97118599Y-64852826D01*
X97097836Y-64812076D01*
X97084883Y-64730291D01*
X97030882Y-64624308D01*
X96946774Y-64540200D01*
X96884106Y-64508269D01*
X96840792Y-64486199D01*
X96723309Y-64467592D01*
X96605826Y-64486199D01*
X96605825Y-64486199D01*
X96499842Y-64540201D01*
X96415737Y-64624306D01*
X96361735Y-64730289D01*
X96348781Y-64812077D01*
X96319188Y-64860368D01*
X96275692Y-64874500D01*
X95783705Y-64874500D01*
X95711938Y-64884955D01*
X95711931Y-64884957D01*
X95601220Y-64939080D01*
X95510928Y-65029372D01*
X95458602Y-65051046D01*
X95406276Y-65029372D01*
X95390237Y-65005367D01*
X95366170Y-64947265D01*
X95366170Y-64947264D01*
X95302736Y-64883830D01*
X95298521Y-64879615D01*
X95298514Y-64879609D01*
X94927174Y-64508269D01*
X94905500Y-64455943D01*
X94905500Y-63661190D01*
X94927174Y-63608864D01*
X94933079Y-63602959D01*
X94987573Y-63548465D01*
X95041574Y-63442482D01*
X95060181Y-63325000D01*
X95041574Y-63207518D01*
X94987573Y-63101535D01*
X94938365Y-63052327D01*
X94916691Y-63000001D01*
X94938365Y-62947675D01*
X94987575Y-62898465D01*
X95041576Y-62792482D01*
X95060183Y-62675000D01*
X95041576Y-62557518D01*
X94987575Y-62451535D01*
X94903467Y-62367427D01*
X94851486Y-62340941D01*
X94797485Y-62313426D01*
X94680002Y-62294819D01*
X94562519Y-62313426D01*
X94556979Y-62315226D01*
X94556469Y-62313656D01*
X94506621Y-62317571D01*
X94463560Y-62280782D01*
X94455500Y-62247197D01*
X94455500Y-61157659D01*
X94477174Y-61105333D01*
X94602674Y-60979833D01*
X94731631Y-60850875D01*
X94783956Y-60829202D01*
X94836282Y-60850876D01*
X94849886Y-60869601D01*
X94882427Y-60933465D01*
X94966535Y-61017573D01*
X95072518Y-61071574D01*
X95190000Y-61090181D01*
X95307482Y-61071574D01*
X95341904Y-61054034D01*
X95398366Y-61049591D01*
X95441434Y-61086373D01*
X95449500Y-61119968D01*
X95449500Y-61178794D01*
X95459955Y-61250561D01*
X95459957Y-61250568D01*
X95514080Y-61361279D01*
X95514081Y-61361280D01*
X95601220Y-61448419D01*
X95711933Y-61502543D01*
X95736168Y-61506074D01*
X95784822Y-61535064D01*
X95799500Y-61579300D01*
X95799500Y-61846870D01*
X95777826Y-61899196D01*
X95736171Y-61920096D01*
X95728658Y-61921190D01*
X95723605Y-61921927D01*
X95618517Y-61973301D01*
X95535801Y-62056017D01*
X95484427Y-62161105D01*
X95484427Y-62161106D01*
X95474500Y-62229235D01*
X95474500Y-62695764D01*
X95484427Y-62763893D01*
X95484427Y-62763894D01*
X95535801Y-62868982D01*
X95535802Y-62868983D01*
X95618517Y-62951698D01*
X95723607Y-63003073D01*
X95791740Y-63013000D01*
X95791746Y-63013000D01*
X96408254Y-63013000D01*
X96408260Y-63013000D01*
X96476393Y-63003073D01*
X96581483Y-62951698D01*
X96664198Y-62868983D01*
X96715573Y-62763893D01*
X96725500Y-62695760D01*
X96725500Y-62229240D01*
X96715573Y-62161107D01*
X96664198Y-62056017D01*
X96581483Y-61973302D01*
X96581482Y-61973301D01*
X96476394Y-61921927D01*
X96473231Y-61921466D01*
X96463829Y-61920096D01*
X96415176Y-61891105D01*
X96400500Y-61846870D01*
X96400500Y-61567101D01*
X96422174Y-61514775D01*
X96441998Y-61500620D01*
X96548780Y-61448419D01*
X96635919Y-61361280D01*
X96690043Y-61250567D01*
X96700500Y-61178795D01*
X96700499Y-60671206D01*
X96690043Y-60599433D01*
X96635919Y-60488720D01*
X96548780Y-60401581D01*
X96548779Y-60401580D01*
X96438068Y-60347457D01*
X96402181Y-60342228D01*
X96366295Y-60337000D01*
X96366294Y-60337000D01*
X95783705Y-60337000D01*
X95711938Y-60347455D01*
X95711931Y-60347457D01*
X95601220Y-60401580D01*
X95601216Y-60401583D01*
X95559244Y-60443555D01*
X95506918Y-60465229D01*
X95454593Y-60443555D01*
X95413464Y-60402426D01*
X95408755Y-60399005D01*
X95410207Y-60397006D01*
X95379117Y-60360586D01*
X95375500Y-60337735D01*
X95375500Y-59822666D01*
X95397174Y-59770340D01*
X95449500Y-59748666D01*
X95501826Y-59770340D01*
X95509938Y-59781705D01*
X95510519Y-59781291D01*
X95514080Y-59786279D01*
X95514081Y-59786280D01*
X95601220Y-59873419D01*
X95711933Y-59927543D01*
X95783705Y-59938000D01*
X96366294Y-59937999D01*
X96438061Y-59927544D01*
X96438061Y-59927543D01*
X96438067Y-59927543D01*
X96548780Y-59873419D01*
X96549497Y-59872701D01*
X96550182Y-59872417D01*
X96553772Y-59869855D01*
X96554364Y-59870684D01*
X96601815Y-59851019D01*
X96654146Y-59872683D01*
X96728789Y-59947326D01*
X96841375Y-60002366D01*
X96914364Y-60013000D01*
X97100500Y-60013000D01*
X97152826Y-60034674D01*
X97174500Y-60087000D01*
X97174500Y-60256985D01*
X97162029Y-60298097D01*
X97158233Y-60303777D01*
X97149500Y-60347680D01*
X97149500Y-60977319D01*
X97158233Y-61021222D01*
X97183941Y-61059698D01*
X97191496Y-61071004D01*
X97241278Y-61104267D01*
X97285180Y-61113000D01*
X97285181Y-61113000D01*
X97664819Y-61113000D01*
X97664820Y-61113000D01*
X97708722Y-61104267D01*
X97758504Y-61071004D01*
X97758504Y-61071003D01*
X97758888Y-61070747D01*
X97814437Y-61059698D01*
X97841112Y-61070747D01*
X97841495Y-61071003D01*
X97841496Y-61071004D01*
X97891278Y-61104267D01*
X97935180Y-61113000D01*
X97935181Y-61113000D01*
X98314819Y-61113000D01*
X98314820Y-61113000D01*
X98358722Y-61104267D01*
X98408504Y-61071004D01*
X98441767Y-61021222D01*
X98450500Y-60977320D01*
X98450500Y-60347680D01*
X98441767Y-60303778D01*
X98408504Y-60253996D01*
X98358722Y-60220733D01*
X98314820Y-60212000D01*
X97935180Y-60212000D01*
X97920546Y-60214911D01*
X97891276Y-60220733D01*
X97890611Y-60221178D01*
X97889826Y-60221334D01*
X97884544Y-60223522D01*
X97884108Y-60222471D01*
X97835062Y-60232227D01*
X97787971Y-60200760D01*
X97775500Y-60159649D01*
X97775500Y-59101870D01*
X97775500Y-59101864D01*
X97764866Y-59028875D01*
X97709826Y-58916289D01*
X97621211Y-58827674D01*
X97621210Y-58827673D01*
X97508626Y-58772634D01*
X97435640Y-58762000D01*
X97435636Y-58762000D01*
X96986277Y-58762000D01*
X96933951Y-58740326D01*
X96920343Y-58721596D01*
X96907573Y-58696535D01*
X96823466Y-58612428D01*
X96823465Y-58612427D01*
X96771484Y-58585941D01*
X96717483Y-58558426D01*
X96600000Y-58539819D01*
X96482517Y-58558426D01*
X96482516Y-58558426D01*
X96376533Y-58612428D01*
X96292427Y-58696534D01*
X96288313Y-58704609D01*
X96279658Y-58721596D01*
X96279657Y-58721597D01*
X96236589Y-58758379D01*
X96213723Y-58762000D01*
X95783705Y-58762000D01*
X95711938Y-58772455D01*
X95711931Y-58772457D01*
X95601220Y-58826580D01*
X95514080Y-58913720D01*
X95510519Y-58918709D01*
X95507981Y-58916897D01*
X95473526Y-58947324D01*
X95416998Y-58943813D01*
X95379509Y-58901359D01*
X95375500Y-58877333D01*
X95375500Y-58854057D01*
X95397174Y-58801731D01*
X95791731Y-58407174D01*
X95844057Y-58385500D01*
X98825943Y-58385500D01*
X98878269Y-58407174D01*
X99442826Y-58971731D01*
X99464500Y-59024057D01*
X99464500Y-61703810D01*
X99442826Y-61756136D01*
X99382428Y-61816533D01*
X99328426Y-61922516D01*
X99328426Y-61922517D01*
X99309819Y-62040000D01*
X99328426Y-62157482D01*
X99328426Y-62157483D01*
X99355941Y-62211484D01*
X99382427Y-62263465D01*
X99466535Y-62347573D01*
X99572518Y-62401574D01*
X99690000Y-62420181D01*
X99807482Y-62401574D01*
X99913465Y-62347573D01*
X99997573Y-62263465D01*
X100051574Y-62157482D01*
X100070181Y-62040000D01*
X100051574Y-61922518D01*
X99997573Y-61816535D01*
X99937174Y-61756136D01*
X99915500Y-61703810D01*
X99915500Y-58953475D01*
X99915501Y-58953466D01*
X99915501Y-58855144D01*
X99881170Y-58772265D01*
X99881169Y-58772263D01*
X99813521Y-58704615D01*
X99813514Y-58704609D01*
X99151578Y-58042673D01*
X99151578Y-58042672D01*
X99077738Y-57968832D01*
X99077736Y-57968830D01*
X99053460Y-57958774D01*
X99048737Y-57956818D01*
X99046078Y-57955716D01*
X99006033Y-57915664D01*
X99006038Y-57859026D01*
X99022074Y-57835028D01*
X99410489Y-57446614D01*
X99469799Y-57343887D01*
X99483764Y-57291767D01*
X99485301Y-57286032D01*
X99485301Y-57286030D01*
X99485303Y-57286024D01*
X99500500Y-57229309D01*
X99500500Y-57229304D01*
X99500586Y-57228654D01*
X99500753Y-57228363D01*
X99501756Y-57224623D01*
X99502757Y-57224891D01*
X99528897Y-57179600D01*
X99539062Y-57173044D01*
X99608538Y-57135910D01*
X99760883Y-57010883D01*
X99885910Y-56858538D01*
X99978814Y-56684727D01*
X100036024Y-56496132D01*
X100055341Y-56300000D01*
X100036024Y-56103868D01*
X99978814Y-55915273D01*
X99978812Y-55915270D01*
X99978812Y-55915268D01*
X99927048Y-55818426D01*
X99885910Y-55741462D01*
X99760883Y-55589117D01*
X99608538Y-55464090D01*
X99598597Y-55458776D01*
X99434731Y-55371187D01*
X99246133Y-55313976D01*
X99050000Y-55294659D01*
X98853866Y-55313976D01*
X98665268Y-55371187D01*
X98491463Y-55464089D01*
X98339117Y-55589117D01*
X98214089Y-55741463D01*
X98121187Y-55915268D01*
X98063976Y-56103866D01*
X98044659Y-56300000D01*
X98063976Y-56496133D01*
X98121187Y-56684731D01*
X98208776Y-56848597D01*
X98214090Y-56858538D01*
X98339117Y-57010883D01*
X98384707Y-57048298D01*
X98411406Y-57098247D01*
X98394965Y-57152445D01*
X98345015Y-57179144D01*
X98337762Y-57179500D01*
X97222238Y-57179500D01*
X97169912Y-57157826D01*
X97148238Y-57105500D01*
X97169912Y-57053174D01*
X97175281Y-57048307D01*
X97220883Y-57010883D01*
X97345910Y-56858538D01*
X97438814Y-56684727D01*
X97496024Y-56496132D01*
X97515341Y-56300000D01*
X97496024Y-56103868D01*
X97438814Y-55915273D01*
X97438812Y-55915270D01*
X97438812Y-55915268D01*
X97387048Y-55818426D01*
X97345910Y-55741462D01*
X97220883Y-55589117D01*
X97068538Y-55464090D01*
X97058597Y-55458776D01*
X96894731Y-55371187D01*
X96706133Y-55313976D01*
X96510000Y-55294659D01*
X96313866Y-55313976D01*
X96125268Y-55371187D01*
X95951463Y-55464089D01*
X95799117Y-55589117D01*
X95674089Y-55741463D01*
X95581187Y-55915268D01*
X95523976Y-56103866D01*
X95504659Y-56300000D01*
X95523976Y-56496133D01*
X95581187Y-56684731D01*
X95668776Y-56848597D01*
X95674090Y-56858538D01*
X95799117Y-57010883D01*
X95844707Y-57048298D01*
X95871406Y-57098247D01*
X95854965Y-57152445D01*
X95805015Y-57179144D01*
X95797762Y-57179500D01*
X95190689Y-57179500D01*
X95076117Y-57210199D01*
X95076112Y-57210201D01*
X95043875Y-57228814D01*
X94973385Y-57269511D01*
X94204508Y-58038389D01*
X94177116Y-58085834D01*
X94132182Y-58120313D01*
X94079435Y-58114769D01*
X93990304Y-58069354D01*
X93990302Y-58069353D01*
X93990301Y-58069353D01*
X93896519Y-58054500D01*
X93208480Y-58054500D01*
X93114695Y-58069353D01*
X93114693Y-58069354D01*
X93001657Y-58126950D01*
X92911951Y-58216656D01*
X92854353Y-58329698D01*
X92839500Y-58423480D01*
X92839500Y-59125244D01*
X92817826Y-59177570D01*
X92349509Y-59645887D01*
X92290201Y-59748612D01*
X92287680Y-59758023D01*
X92287679Y-59758022D01*
X92287679Y-59758025D01*
X92259500Y-59863188D01*
X92259500Y-61044985D01*
X92247029Y-61086096D01*
X92246193Y-61087346D01*
X92243233Y-61091777D01*
X92234500Y-61135680D01*
X92234500Y-62601000D01*
X92212826Y-62653326D01*
X92160500Y-62675000D01*
X91989500Y-62675000D01*
X91937174Y-62653326D01*
X91915500Y-62601000D01*
X91915500Y-61135680D01*
X91914061Y-61128446D01*
X91906767Y-61091778D01*
X91873504Y-61041996D01*
X91873503Y-61041995D01*
X91872174Y-61040666D01*
X91871454Y-61038927D01*
X91869455Y-61035936D01*
X91870050Y-61035538D01*
X91850500Y-60988340D01*
X91850500Y-60817254D01*
X91872173Y-60764929D01*
X92000489Y-60636614D01*
X92059799Y-60533887D01*
X92071901Y-60488720D01*
X92090500Y-60419309D01*
X92090500Y-58098813D01*
X92090500Y-58098811D01*
X92090499Y-58098810D01*
X92088085Y-58089800D01*
X92063889Y-57999500D01*
X92059799Y-57984235D01*
X92000490Y-57881508D01*
X91732864Y-57613882D01*
X91535465Y-57416483D01*
X91513791Y-57364157D01*
X91535465Y-57311831D01*
X91580535Y-57290514D01*
X91626132Y-57286024D01*
X91814727Y-57228814D01*
X91815027Y-57228654D01*
X91872701Y-57197826D01*
X91988538Y-57135910D01*
X92140883Y-57010883D01*
X92265910Y-56858538D01*
X92358814Y-56684727D01*
X92416024Y-56496132D01*
X92435341Y-56300000D01*
X92964659Y-56300000D01*
X92983976Y-56496133D01*
X93041187Y-56684731D01*
X93128776Y-56848597D01*
X93134090Y-56858538D01*
X93259117Y-57010883D01*
X93411462Y-57135910D01*
X93488426Y-57177048D01*
X93585268Y-57228812D01*
X93585270Y-57228812D01*
X93585273Y-57228814D01*
X93773868Y-57286024D01*
X93970000Y-57305341D01*
X94166132Y-57286024D01*
X94354727Y-57228814D01*
X94355027Y-57228654D01*
X94412701Y-57197826D01*
X94528538Y-57135910D01*
X94680883Y-57010883D01*
X94805910Y-56858538D01*
X94898814Y-56684727D01*
X94956024Y-56496132D01*
X94975341Y-56300000D01*
X94956024Y-56103868D01*
X94898814Y-55915273D01*
X94898812Y-55915270D01*
X94898812Y-55915268D01*
X94847048Y-55818426D01*
X94805910Y-55741462D01*
X94680883Y-55589117D01*
X94528538Y-55464090D01*
X94518597Y-55458776D01*
X94354731Y-55371187D01*
X94166133Y-55313976D01*
X93970000Y-55294659D01*
X93773866Y-55313976D01*
X93585268Y-55371187D01*
X93411463Y-55464089D01*
X93259117Y-55589117D01*
X93134089Y-55741463D01*
X93041187Y-55915268D01*
X92983976Y-56103866D01*
X92964659Y-56300000D01*
X92435341Y-56300000D01*
X92416024Y-56103868D01*
X92358814Y-55915273D01*
X92358812Y-55915270D01*
X92358812Y-55915268D01*
X92307048Y-55818426D01*
X92265910Y-55741462D01*
X92140883Y-55589117D01*
X91988538Y-55464090D01*
X91978597Y-55458776D01*
X91814731Y-55371187D01*
X91626133Y-55313976D01*
X91430000Y-55294659D01*
X91233866Y-55313976D01*
X91045268Y-55371187D01*
X90871463Y-55464089D01*
X90719117Y-55589117D01*
X90594089Y-55741463D01*
X90501187Y-55915268D01*
X90443976Y-56103866D01*
X90424659Y-56300000D01*
X90443976Y-56496133D01*
X90501187Y-56684731D01*
X90588776Y-56848597D01*
X90594090Y-56858538D01*
X90719117Y-57010883D01*
X90719122Y-57010887D01*
X90719123Y-57010888D01*
X90813446Y-57088298D01*
X90840145Y-57138247D01*
X90823703Y-57192445D01*
X90773754Y-57219144D01*
X90766501Y-57219500D01*
X87424500Y-57219500D01*
X87372174Y-57197826D01*
X87350500Y-57145500D01*
X87350500Y-55435180D01*
X87341767Y-55391278D01*
X87308504Y-55341496D01*
X87258722Y-55308233D01*
X87214820Y-55299500D01*
X85485180Y-55299500D01*
X85463229Y-55303866D01*
X85441277Y-55308233D01*
X85391496Y-55341495D01*
X85391495Y-55341496D01*
X85358233Y-55391277D01*
X85349500Y-55435180D01*
X85090500Y-55435180D01*
X85090500Y-55054500D01*
X85112174Y-55002174D01*
X85164500Y-54980500D01*
X100295500Y-54980500D01*
X100347826Y-55002174D01*
G37*
%TD.AperFunction*%
%TD*%
M02*
