%TF.GenerationSoftware,KiCad,Pcbnew,8.0.3*%
%TF.CreationDate,2024-11-10T00:39:22+08:00*%
%TF.ProjectId,NekoPurrTech_TiltingCtrl,4e656b6f-5075-4727-9254-6563685f5469,rev?*%
%TF.SameCoordinates,Original*%
%TF.FileFunction,Drillmap*%
%TF.FilePolarity,Positive*%
%FSLAX45Y45*%
G04 Gerber Fmt 4.5, Leading zero omitted, Abs format (unit mm)*
G04 Created by KiCad (PCBNEW 8.0.3) date 2024-11-10 00:39:22*
%MOMM*%
%LPD*%
G01*
G04 APERTURE LIST*
%ADD10C,0.050000*%
%ADD11C,0.200000*%
G04 APERTURE END LIST*
D10*
X8499000Y-5488000D02*
X10047000Y-5488000D01*
X10047000Y-7501000D01*
X8499000Y-7501000D01*
X8499000Y-5488000D01*
D11*
X8757277Y-7814984D02*
X8757277Y-7614984D01*
X8757277Y-7614984D02*
X8804896Y-7614984D01*
X8804896Y-7614984D02*
X8833467Y-7624508D01*
X8833467Y-7624508D02*
X8852515Y-7643555D01*
X8852515Y-7643555D02*
X8862039Y-7662603D01*
X8862039Y-7662603D02*
X8871563Y-7700698D01*
X8871563Y-7700698D02*
X8871563Y-7729269D01*
X8871563Y-7729269D02*
X8862039Y-7767365D01*
X8862039Y-7767365D02*
X8852515Y-7786412D01*
X8852515Y-7786412D02*
X8833467Y-7805460D01*
X8833467Y-7805460D02*
X8804896Y-7814984D01*
X8804896Y-7814984D02*
X8757277Y-7814984D01*
X8957277Y-7814984D02*
X8957277Y-7681650D01*
X8957277Y-7719746D02*
X8966801Y-7700698D01*
X8966801Y-7700698D02*
X8976324Y-7691174D01*
X8976324Y-7691174D02*
X8995372Y-7681650D01*
X8995372Y-7681650D02*
X9014420Y-7681650D01*
X9081086Y-7814984D02*
X9081086Y-7681650D01*
X9081086Y-7614984D02*
X9071563Y-7624508D01*
X9071563Y-7624508D02*
X9081086Y-7634031D01*
X9081086Y-7634031D02*
X9090610Y-7624508D01*
X9090610Y-7624508D02*
X9081086Y-7614984D01*
X9081086Y-7614984D02*
X9081086Y-7634031D01*
X9204896Y-7814984D02*
X9185848Y-7805460D01*
X9185848Y-7805460D02*
X9176324Y-7786412D01*
X9176324Y-7786412D02*
X9176324Y-7614984D01*
X9309658Y-7814984D02*
X9290610Y-7805460D01*
X9290610Y-7805460D02*
X9281086Y-7786412D01*
X9281086Y-7786412D02*
X9281086Y-7614984D01*
X9538229Y-7814984D02*
X9538229Y-7614984D01*
X9538229Y-7614984D02*
X9604896Y-7757841D01*
X9604896Y-7757841D02*
X9671563Y-7614984D01*
X9671563Y-7614984D02*
X9671563Y-7814984D01*
X9852515Y-7814984D02*
X9852515Y-7710222D01*
X9852515Y-7710222D02*
X9842991Y-7691174D01*
X9842991Y-7691174D02*
X9823944Y-7681650D01*
X9823944Y-7681650D02*
X9785848Y-7681650D01*
X9785848Y-7681650D02*
X9766801Y-7691174D01*
X9852515Y-7805460D02*
X9833467Y-7814984D01*
X9833467Y-7814984D02*
X9785848Y-7814984D01*
X9785848Y-7814984D02*
X9766801Y-7805460D01*
X9766801Y-7805460D02*
X9757277Y-7786412D01*
X9757277Y-7786412D02*
X9757277Y-7767365D01*
X9757277Y-7767365D02*
X9766801Y-7748317D01*
X9766801Y-7748317D02*
X9785848Y-7738793D01*
X9785848Y-7738793D02*
X9833467Y-7738793D01*
X9833467Y-7738793D02*
X9852515Y-7729269D01*
X9947753Y-7681650D02*
X9947753Y-7881650D01*
X9947753Y-7691174D02*
X9966801Y-7681650D01*
X9966801Y-7681650D02*
X10004896Y-7681650D01*
X10004896Y-7681650D02*
X10023944Y-7691174D01*
X10023944Y-7691174D02*
X10033467Y-7700698D01*
X10033467Y-7700698D02*
X10042991Y-7719746D01*
X10042991Y-7719746D02*
X10042991Y-7776888D01*
X10042991Y-7776888D02*
X10033467Y-7795936D01*
X10033467Y-7795936D02*
X10023944Y-7805460D01*
X10023944Y-7805460D02*
X10004896Y-7814984D01*
X10004896Y-7814984D02*
X9966801Y-7814984D01*
X9966801Y-7814984D02*
X9947753Y-7805460D01*
X10128705Y-7795936D02*
X10138229Y-7805460D01*
X10138229Y-7805460D02*
X10128705Y-7814984D01*
X10128705Y-7814984D02*
X10119182Y-7805460D01*
X10119182Y-7805460D02*
X10128705Y-7795936D01*
X10128705Y-7795936D02*
X10128705Y-7814984D01*
X10128705Y-7691174D02*
X10138229Y-7700698D01*
X10138229Y-7700698D02*
X10128705Y-7710222D01*
X10128705Y-7710222D02*
X10119182Y-7700698D01*
X10119182Y-7700698D02*
X10128705Y-7691174D01*
X10128705Y-7691174D02*
X10128705Y-7710222D01*
M02*
